<?xml version="1.0" encoding="UTF-8" standalone="no"?>
<!-- Created with Inkscape (http://www.inkscape.org/) -->
<svg
   xmlns:dc="http://purl.org/dc/elements/1.1/"
   xmlns:cc="http://creativecommons.org/ns#"
   xmlns:rdf="http://www.w3.org/1999/02/22-rdf-syntax-ns#"
   xmlns:svg="http://www.w3.org/2000/svg"
   xmlns="http://www.w3.org/2000/svg"
   xmlns:sodipodi="http://sodipodi.sourceforge.net/DTD/sodipodi-0.dtd"
   xmlns:inkscape="http://www.inkscape.org/namespaces/inkscape"
   width="9320"
   height="12600"
   id="svg2"
   sodipodi:version="0.32"
   inkscape:version="0.46"
   version="1.0"
   sodipodi:docname="1-angka.svg"
   inkscape:output_extension="org.inkscape.output.svg.inkscape">
  <defs
     id="defs4">
    <inkscape:perspective
       sodipodi:type="inkscape:persp3d"
       inkscape:vp_x="0 : 526.18109 : 1"
       inkscape:vp_y="0 : 1000 : 0"
       inkscape:vp_z="744.09448 : 526.18109 : 1"
       inkscape:persp3d-origin="372.04724 : 350.78739 : 1"
       id="perspective10" />
  </defs>
  <sodipodi:namedview
     id="base"
     pagecolor="#ffffff"
     bordercolor="#666666"
     borderopacity="1.0"
     gridtolerance="10000"
     guidetolerance="10"
     objecttolerance="10"
     inkscape:pageopacity="0.0"
     inkscape:pageshadow="2"
     inkscape:zoom="0.04"
     inkscape:cx="780.56095"
     inkscape:cy="6995.6874"
     inkscape:document-units="px"
     inkscape:current-layer="layer1"
     showgrid="false"
     showguides="true"
     inkscape:snap-guide="false"
     inkscape:window-width="1276"
     inkscape:window-height="719"
     inkscape:window-x="0"
     inkscape:window-y="25">
    <inkscape:grid
       type="xygrid"
       id="grid4173"
       visible="true"
       enabled="true" />
  </sodipodi:namedview>
  <metadata
     id="metadata7">
    <rdf:RDF>
      <cc:Work
         rdf:about="">
        <dc:format>image/svg+xml</dc:format>
        <dc:type
           rdf:resource="http://purl.org/dc/dcmitype/StillImage" />
      </cc:Work>
    </rdf:RDF>
  </metadata>
  <g
     inkscape:label="Layer 1"
     inkscape:groupmode="layer"
     id="layer1">
    <path
       id="path2802"
       style="fill:#000000"
       d="M 6835.9044,4324.1647 C 7255.2836,3542.5558 7371.4869,3169.7103 7373.2726,2599.9212 C 7376.3387,1621.642 6849.6782,428.7764 5977.5823,428.7764 C 5409.5881,428.7764 5107.4584,1173.5229 4811.9239,1587.2186 L 4562.4848,1936.3861 L 4392.19,1727.2392 C 4298.5203,1612.2086 4220.6747,1495.7079 4219.1957,1468.3489 C 4217.7107,1440.9901 3937.9874,743.897 3750.3535,652.587 C 3319.9719,443.1424 2904.1791,467.8589 2587.0068,704.0491 C 1791.0069,1296.8176 1629.4155,2923.0237 2398.535,4709.809 C 2473.9336,4884.9821 1786.0987,4764.5696 1455.6757,4544.7499 C 886.88793,4166.3584 703.72708,3438.9755 848.48217,2133.3966 C 947.09982,1243.9553 924.9344,403.4965 681.88623,403.4965 C 419.65922,403.4965 247.66152,1237.4253 247.66152,1743.9255 C 247.66152,2115.5682 222.18797,2233.2412 141.72699,2233.2412 C -10.89807,2233.2412 -94.341024,1241.0517 21.808213,807.4198 C 247.4211,-34.86599 1122.2466,-217.63196 1265.0658,547.6854 C 1292.5113,694.7341 1259.9614,1176.4871 1192.7392,1618.2465 C 1016.1196,2778.9575 1030.5428,3474.9662 1239.8687,3892.1669 C 1348.7732,4109.2045 1480.6744,4252.9244 1612.8279,4298.5247 C 1725.2857,4337.3341 1832.3144,4353.99 1850.6635,4335.5421 C 1869.0126,4317.0941 1815.2038,4099.0663 1731.0874,3851.0312 C 1511.9136,3204.7353 1518.1482,2005.6038 1744.1999,1329.8956 C 2017.4412,513.13424 2427.0026,103.36866 3066.4695,6.96825 C 3724.2735,-92.19608 4226.2841,294.92425 4441.3755,1067.2211 L 4537.9552,1413.9833 L 4755.2471,1014.3618 C 5211.974,174.39038 5625.6237,-80.94022 6316.3443,50.74023 C 7325.4397,243.12198 7801.2732,1199.8675 7645.161,2722.5509 C 7615.4429,3012.3778 7524.4607,3444.2905 7442.9656,3682.3578 L 7294.8016,4115.2121 L 7487.8645,4265.2121 C 7800.1669,4265.2121 8160.1038,3838.3479 8347.8816,3453.6816 C 8502.714,3136.5078 8523.9187,2969.4198 8548.0989,1875.6666 C 8573.8133,712.9511 8568.0834,652.3835 8432.3475,652.3835 C 8220.8327,652.3835 7634.1046,253.84328 7437.9755,-23.05132 C 7343.8249,-155.97095 7250.2815,-412.0183 7230.0926,-592.05688 C 7195.6548,-899.22006 7208.9659,-928.9482 7445.9958,-1074.217 C 8016.4249,-1423.8159 8464.446,-1157.8308 8640.9936,-364.75354 C 8691.797,-136.55719 8771.4222,50.1511 8817.9381,50.1511 C 8984.9375,50.1511 9466.6815,-241.28571 9616.7934,-433.12669 C 9794.6763,-660.4605 9907.668,-626.46224 9907.668,-345.60107 C 9907.668,-107.55203 9270.9197,545.95424 8963.3605,623.5544 L 8763.2157,674.0507 L 8805.2696,1532.458 C 8856.3315,2574.6578 8757.54,3727.2718 8586.0062,4090.6594 C 8379.211,4528.7438 7949.3891,4729.1438 7007.089,4826.8197 L 6540.2316,4875.2144 L 6835.9044,4324.1647 z M 8484.4602,-43.94722 C 8483.3719,-289.43727 8317.5026,-693.02527 8154.3862,-847.07163 C 7946.6295,-1043.2802 7709.7018,-1009.7677 7579.8268,-765.80846 C 7404.097,-435.72055 7599.0583,53.15272 8122.899,180.24094 C 8450.4368,259.6999 8484.9178,59.01968 8484.4602,-43.94722 z"
       sodipodi:nodetypes="ccscccccccccssscccccscccccccccccccsccccscscccccccccccc" />
  </g>
</svg>
