<?xml version="1.0" encoding="UTF-8" standalone="no"?>
<!-- Created with Inkscape (http://www.inkscape.org/) -->
<svg
   xmlns:dc="http://purl.org/dc/elements/1.1/"
   xmlns:cc="http://creativecommons.org/ns#"
   xmlns:rdf="http://www.w3.org/1999/02/22-rdf-syntax-ns#"
   xmlns:svg="http://www.w3.org/2000/svg"
   xmlns="http://www.w3.org/2000/svg"
   xmlns:sodipodi="http://sodipodi.sourceforge.net/DTD/sodipodi-0.dtd"
   xmlns:inkscape="http://www.inkscape.org/namespaces/inkscape"
   width="9320"
   height="12600"
   id="svg2"
   sodipodi:version="0.32"
   inkscape:version="0.46"
   version="1.0"
   sodipodi:docname="7-angka.svg"
   inkscape:output_extension="org.inkscape.output.svg.inkscape">
  <defs
     id="defs4">
    <inkscape:perspective
       sodipodi:type="inkscape:persp3d"
       inkscape:vp_x="0 : 526.18109 : 1"
       inkscape:vp_y="0 : 1000 : 0"
       inkscape:vp_z="744.09448 : 526.18109 : 1"
       inkscape:persp3d-origin="372.04724 : 350.78739 : 1"
       id="perspective10" />
  </defs>
  <sodipodi:namedview
     id="base"
     pagecolor="#ffffff"
     bordercolor="#666666"
     borderopacity="1.0"
     gridtolerance="10000"
     guidetolerance="10"
     objecttolerance="10"
     inkscape:pageopacity="0.0"
     inkscape:pageshadow="2"
     inkscape:zoom="0.04"
     inkscape:cx="780.56095"
     inkscape:cy="6995.6874"
     inkscape:document-units="px"
     inkscape:current-layer="layer1"
     showgrid="false"
     showguides="true"
     inkscape:snap-guide="false"
     inkscape:window-width="1280"
     inkscape:window-height="726"
     inkscape:window-x="0"
     inkscape:window-y="25">
    <inkscape:grid
       type="xygrid"
       id="grid4173"
       visible="true"
       enabled="true" />
  </sodipodi:namedview>
  <metadata
     id="metadata7">
    <rdf:RDF>
      <cc:Work
         rdf:about="">
        <dc:format>image/svg+xml</dc:format>
        <dc:type
           rdf:resource="http://purl.org/dc/dcmitype/StillImage" />
      </cc:Work>
    </rdf:RDF>
  </metadata>
  <g
     inkscape:label="Layer 1"
     inkscape:groupmode="layer"
     id="layer1">
    <path
       id="path2858"
       style="fill:#000000"
       d="M 1796.5278,5021.8122 C 1531.7711,4894.2453 1397.1284,4761.619 1246.2669,4479.8142 C 1058.2175,4128.5286 1044.939,4026.6342 1019.2908,2737.8285 C 989.3509,1233.1261 1022.6736,-53.5087 526.26184,1110.2743 C 300.48717,1925.0275 298.16358,1559.6476 296.74083,2138.0374 C 295.95837,2454.6052 268.28673,2567.2715 196.85933,2544.7067 C -38.98489,2470.1887 -85.451849,1391.2824 128.15872,949.48975 C 307.18191,579.23501 509.92454,402.10209 822.68947,342.68744 C 1022.3101,304.77174 1092.7653,333.04894 1241.3111,510.69986 C 1406.0599,707.72514 1415.9871,773.7982 1369.2277,1362.3519 C 1221.1009,3226.9352 1219.0221,3755.4287 1358.4389,4102.1354 C 1505.5224,4467.9238 1482.0953,4165.2494 1804.9929,4615.2494 L 2177.4084,4790.2494 L 2027.9142,4291.5866 C 1945.6901,4086.0713 1839.2325,3678.0884 1791.3507,3384.9564 C 1635.075,2428.3997 1955.8545,1299.3792 2551.7051,708.77613 L 2893.8883,369.60611 L 3479.2899,397.68063 C 3972.066,421.31138 4110.4472,458.89692 4353.8318,635.20399 C 4779.4642,943.52956 4870.9122,1178.0202 5032.7918,2376.0486 C 5196.0072,3584.0535 5317.0395,4172.1487 5752.03,4388.1657 C 5964.3206,4493.5881 6052.9707,4642.369 6490.1746,4618.8133 C 7532.176,4562.6716 7981.9074,3753.5296 8029.8603,2612.4311 C 8045.2097,2247.1756 8034.3497,1770.2973 8005.7219,1552.7039 L 7953.6826,1157.0844 L 7552.813,1111.9923 C 6748.8608,1021.5604 6302.6152,612.57166 6302.6152,-33.83533 C 6302.6152,-494.21421 6535.282,-739.4919 6971.9957,-739.4919 C 7258.9227,-739.4919 7349.9202,-700.24749 7539.2895,-494.84471 C 7663.3412,-360.28923 7832.4765,-106.94204 7915.159,68.14912 C 7997.8337,243.24028 8116.8269,386.49592 8179.5916,386.49592 C 8309.579,386.49592 8515.3806,400.99933 8832.3662,124.57685 C 9011.2153,-31.39505 9230.2481,-293.46568 9269.151,-197.17868 C 9377.6239,71.271823 8860.6857,820.21887 8457.4451,978.84805 L 8237.9145,1065.2113 L 8238.4914,2283.4701 C 8239.1396,3651.0346 8149.0274,4040.7241 7717.0481,4538.4406 C 7225.4893,5104.82 6313.1748,5334.9944 5655.326,5058.6245 C 5139.2809,4841.8269 5000.1329,4514.0143 4884.0722,3241.6105 C 4781.535,2117.5595 4628.484,1264.6643 4197.6272,1022.9523 C 3830.1912,816.8064 3346.8682,808.3284 2967.9792,1030.726 C 2602.0607,1245.5044 2222.0102,2032.3147 2111.316,2685.35 C 1978.2382,3470.4412 2115.9082,4045.9937 2617.1573,4800.1052 C 2787.0198,5055.6669 2799.2075,5108.9487 2696.3858,5146.4215 C 2459.9568,5232.5896 2142.8131,5188.6685 1796.5278,5021.8122 z M 7804.3544,340.42038 C 7804.3544,118.12796 7467.0401,-354.26897 7246.3081,-441.10518 C 6983.7409,-544.39573 6735.6061,-445.37639 6655.3658,-205.28578 C 6587.5187,-2.2475782 6802.0936,434.40045 7218.7473,575.41166 C 7630.7771,714.85402 7804.3544,486.8889 7804.3544,340.42038 z"
       sodipodi:nodetypes="ccccccccccccccccccccccccccssccsccccccccccccccccccc" />
  </g>
</svg>
