<?xml version="1.0" encoding="UTF-8" standalone="no"?>
<!-- Created with Inkscape (http://www.inkscape.org/) -->
<svg
   xmlns:dc="http://purl.org/dc/elements/1.1/"
   xmlns:cc="http://creativecommons.org/ns#"
   xmlns:rdf="http://www.w3.org/1999/02/22-rdf-syntax-ns#"
   xmlns:svg="http://www.w3.org/2000/svg"
   xmlns="http://www.w3.org/2000/svg"
   xmlns:sodipodi="http://sodipodi.sourceforge.net/DTD/sodipodi-0.dtd"
   xmlns:inkscape="http://www.inkscape.org/namespaces/inkscape"
   width="9320"
   height="12600"
   id="svg2"
   sodipodi:version="0.32"
   inkscape:version="0.46"
   version="1.0"
   sodipodi:docname="a-kara-tedung.svg"
   inkscape:output_extension="org.inkscape.output.svg.inkscape">
  <defs
     id="defs4">
    <inkscape:perspective
       sodipodi:type="inkscape:persp3d"
       inkscape:vp_x="0 : 526.18109 : 1"
       inkscape:vp_y="0 : 1000 : 0"
       inkscape:vp_z="744.09448 : 526.18109 : 1"
       inkscape:persp3d-origin="372.04724 : 350.78739 : 1"
       id="perspective10" />
  </defs>
  <sodipodi:namedview
     id="base"
     pagecolor="#ffffff"
     bordercolor="#666666"
     borderopacity="1.0"
     gridtolerance="10000"
     guidetolerance="10"
     objecttolerance="10"
     inkscape:pageopacity="0.0"
     inkscape:pageshadow="2"
     inkscape:zoom="0.04"
     inkscape:cx="780.56095"
     inkscape:cy="6995.6874"
     inkscape:document-units="px"
     inkscape:current-layer="layer1"
     showgrid="false"
     showguides="true"
     inkscape:snap-guide="false"
     inkscape:window-width="1280"
     inkscape:window-height="727"
     inkscape:window-x="0"
     inkscape:window-y="25">
    <inkscape:grid
       type="xygrid"
       id="grid4173"
       visible="true"
       enabled="true" />
  </sodipodi:namedview>
  <metadata
     id="metadata7">
    <rdf:RDF>
      <cc:Work
         rdf:about="">
        <dc:format>image/svg+xml</dc:format>
        <dc:type
           rdf:resource="http://purl.org/dc/dcmitype/StillImage" />
      </cc:Work>
    </rdf:RDF>
  </metadata>
  <g
     inkscape:label="Layer 1"
     inkscape:groupmode="layer"
     id="layer1">
    <path
       style="fill:#000000"
       d="M 4732.5452,5281.1807 C 4272.0556,5079.1501 3676.0996,4495.4022 3676.0996,4246.3926 C 3676.0996,4024.1148 3736.0302,4025.7361 4121.3764,4258.3929 C 5303.0857,5735.5706 6399.6918,4476.653 6513.1088,3788.9558 C 6586.2902,3345.2991 6061.0177,2772.9959 5687.3003,3570.1496 C 5507.131,3857.8384 5487.1491,3827.7407 5487.1491,3268.6807 C 5487.1491,2464.6111 5585.0515,2371.6048 6102.4683,2684.0166 C 6654.1441,3017.116 6694.5154,3010.2436 6694.5154,2583.2215 C 6694.5154,1908.0005 7129.3334,1010.5016 7628.6851,655.02286 C 8355.1272,137.902 9794.655,159.9994 10479.383,698.77713 C 11142.74,1220.7439 11604.391,2473.7391 11461.349,3364.0307 C 11268.486,4564.3199 10171.459,5601.9979 9398.2616,5315.4545 C 8912.3872,5135.398 9075.3967,4959.7819 9728.3857,4959.7819 C 11233.956,4959.7819 11799.752,2625.2623 10475.799,1496.0215 C 8921.1941,-220.2507 7751.9572,1185.9766 7264.0302,1889.5331 C 6771.319,2599.9973 6790.5614,2986.9127 7368.5429,3989.7001 C 7666.2945,4506.3451 7872.5881,4972.6104 7826.9648,5025.8802 C 7781.3565,5079.1501 7649.2253,4968.9275 7533.3785,4780.9413 C 6848.3339,3669.3586 6907.8723,3698.9099 6627.7784,4331.3635 C 6283.694,5108.2431 5375.6338,5563.3187 4732.5452,5281.1807 z"
       id="path3850"
       sodipodi:nodetypes="cscccscsccccsccccccc" />
    <path
       style="fill:#000000"
       d="M 1166.0731,5174.5785 C 428.69517,4831.8336 10.4643,4029.1103 9.7483,2955.181 C 8.3954,943.7948 1385.2304,-224.9514 3167.8193,274.3977 C 3829.9383,459.8926 4944.7904,1430.8923 4940.2388,1818.14 C 4938.9497,1928.9333 4706.2014,1741.0877 4423.0205,1400.7105 C 3423.166,198.8522 1939.8636,-4.9041 980.12914,927.7684 C 115.69034,1767.8425 172.63422,3378.0052 687.49511,4167.1221 C 876.52584,4837.0194 2421.9094,5495.7114 2803.5384,4181.5757 C 2806.781,3731.4302 2925.7451,3358.5709 2181.2532,3292.6775 C 1549.881,3236.8172 1369.5072,2930.1648 1968.032,2930.1648 C 2485.6801,2930.1648 2947.6275,2541.4767 2825.0229,2209.0796 C 2707.32,1889.9935 1917.122,1839.282 1635.0708,2132.7063 C 1348.9775,2430.3356 1232.309,2181.613 1470.1976,1781.2198 C 1937.9379,993.9266 3192.025,1210.4808 3192.025,2078.5346 C 3192.025,2342.5219 3082.2158,2653.3134 2948.0093,2769.1895 C 2731.096,2956.4724 2739.9285,3019.6506 3027.5816,3338.1904 C 3448.9156,3804.775 3437.4413,4299.7697 2993.0949,4825.0623 C 2547.6985,5351.613 1838.7274,5487.2408 1166.0731,5174.5785 z"
       id="path4028" />
  </g>
</svg>
