<?xml version="1.0" encoding="UTF-8" standalone="no"?>
<!-- Created with Inkscape (http://www.inkscape.org/) -->
<svg
   xmlns:dc="http://purl.org/dc/elements/1.1/"
   xmlns:cc="http://creativecommons.org/ns#"
   xmlns:rdf="http://www.w3.org/1999/02/22-rdf-syntax-ns#"
   xmlns:svg="http://www.w3.org/2000/svg"
   xmlns="http://www.w3.org/2000/svg"
   xmlns:sodipodi="http://sodipodi.sourceforge.net/DTD/sodipodi-0.dtd"
   xmlns:inkscape="http://www.inkscape.org/namespaces/inkscape"
   width="9320"
   height="12600"
   id="svg2"
   sodipodi:version="0.32"
   inkscape:version="0.46"
   version="1.0"
   sodipodi:docname="a-kara.svg"
   inkscape:output_extension="org.inkscape.output.svg.inkscape">
  <defs
     id="defs4">
    <inkscape:perspective
       sodipodi:type="inkscape:persp3d"
       inkscape:vp_x="0 : 526.18109 : 1"
       inkscape:vp_y="0 : 1000 : 0"
       inkscape:vp_z="744.09448 : 526.18109 : 1"
       inkscape:persp3d-origin="372.04724 : 350.78739 : 1"
       id="perspective10" />
  </defs>
  <sodipodi:namedview
     id="base"
     pagecolor="#ffffff"
     bordercolor="#666666"
     borderopacity="1.0"
     gridtolerance="10000"
     guidetolerance="10"
     objecttolerance="10"
     inkscape:pageopacity="0.0"
     inkscape:pageshadow="2"
     inkscape:zoom="0.04"
     inkscape:cx="780.56095"
     inkscape:cy="6995.6874"
     inkscape:document-units="px"
     inkscape:current-layer="layer1"
     showgrid="false"
     showguides="true"
     inkscape:snap-guide="false"
     inkscape:window-width="1280"
     inkscape:window-height="727"
     inkscape:window-x="0"
     inkscape:window-y="25">
    <inkscape:grid
       type="xygrid"
       id="grid4173"
       visible="true"
       enabled="true" />
  </sodipodi:namedview>
  <metadata
     id="metadata7">
    <rdf:RDF>
      <cc:Work
         rdf:about="">
        <dc:format>image/svg+xml</dc:format>
        <dc:type
           rdf:resource="http://purl.org/dc/dcmitype/StillImage" />
      </cc:Work>
    </rdf:RDF>
  </metadata>
  <g
     inkscape:label="Layer 1"
     inkscape:groupmode="layer"
     id="layer1">
    <path
       id="path2727"
       style="fill:#000000"
       d="M 1229.8469,5099.5785 C 492.46893,4756.8336 74.238091,3954.1103 73.522028,2880.181 C 72.16919,868.79473 1449.0042,-299.95145 3231.5931,199.39764 C 3893.7121,384.89252 5008.5642,1355.8923 5004.0126,1743.14 C 5002.7235,1853.9333 4769.9752,1666.0877 4486.7943,1325.7105 C 3486.9398,123.85219 2003.6374,-79.904095 1043.9029,852.76836 C 179.4641,1692.8425 236.40798,3303.0052 751.26887,4092.1221 C 940.2996,4762.0194 2485.6832,5420.7114 2867.3122,4106.5757 C 2870.5548,3656.4302 2989.5189,3283.5709 2245.027,3217.6775 C 1613.6548,3161.8172 1433.281,2855.1648 2031.8058,2855.1648 C 2549.4539,2855.1648 3011.4013,2466.4767 2888.7967,2134.0796 C 2771.0938,1814.9935 1980.8958,1764.282 1698.8446,2057.7063 C 1412.7513,2355.3356 1296.0828,2106.613 1533.9714,1706.2198 C 2001.7117,918.92654 3255.7988,1135.4808 3255.7988,2003.5346 C 3255.7988,2267.5219 3145.9896,2578.3134 3011.7831,2694.1895 C 2794.8698,2881.4724 2803.7023,2944.6506 3091.3554,3263.1904 C 3512.6894,3729.775 3501.2151,4224.7697 3056.8687,4750.0623 C 2611.4723,5276.613 1902.5012,5412.2408 1229.8469,5099.5785 z M 4926.8118,5225.4879 C 4590.1742,5135.9523 3733.2311,4369.8841 3733.2311,4158.4955 C 3733.2311,4089.8704 3930.1719,4140.6149 4170.8774,4271.2263 C 5538.1444,5701.1721 6426.6175,4520.8263 6794.32,3947.9183 C 7051.1149,3547.8231 6945.0756,2911.2871 6543.2526,2911.2871 C 6251.4939,2911.2871 6220.3925,2924.5809 5995.3925,3392.4096 C 5916.4586,3556.532 6048.7775,3848.5318 5961.2484,3848.5318 C 5873.719,3848.5318 5802.1044,3541.002 5802.1044,3165.1284 L 5802.1044,2481.7248 L 6440.9246,2587.9988 L 7079.7446,2694.2559 L 6975.7919,1988.3028 C 6918.6274,1600.0123 6772.5489,1077.4515 6651.1857,827.04007 C 6456.282,424.90851 6460.0855,371.74681 6683.7783,371.74681 C 7488.0449,371.74681 8030.1215,1260.1815 8030.1215,2578.3299 C 8030.1215,3175.0454 8110.3141,3546.1013 8268.8376,3682.9706 C 8617.5221,3984.0271 8560.6122,4220.8459 8189.2655,4014.0931 C 7895.3262,3850.4359 7869.0675,3891.1473 7845.9759,4546.3391 L 7820.9742,5255.8021 L 7726.6179,4429.4365 C 7604.1884,3357.196 7211.5956,3218.9358 6942.499,4153.3135 C 6839.6599,4510.4291 6666.3203,4879.2993 6557.3064,4973.007 C 6307.0843,5188.1207 5345.8701,5336.9767 4926.8118,5225.4879 z M 7641.6667,1924.5785 C 7589.3877,1707.925 7231.5821,905.6751 7121.5181,905.6751 C 6869.6248,905.6751 7188.5355,2881.5222 7452.6829,3057.7786 C 7667.0025,3200.7903 7782.4772,2508.2808 7641.6667,1924.5785 z"
       sodipodi:nodetypes="cccccccccscccscccccsccsssccccccsscccccccccscc" />
  </g>
</svg>
