<?xml version="1.0" encoding="UTF-8" standalone="no"?>
<!-- Created with Inkscape (http://www.inkscape.org/) -->
<svg
   xmlns:dc="http://purl.org/dc/elements/1.1/"
   xmlns:cc="http://creativecommons.org/ns#"
   xmlns:rdf="http://www.w3.org/1999/02/22-rdf-syntax-ns#"
   xmlns:svg="http://www.w3.org/2000/svg"
   xmlns="http://www.w3.org/2000/svg"
   xmlns:sodipodi="http://sodipodi.sourceforge.net/DTD/sodipodi-0.dtd"
   xmlns:inkscape="http://www.inkscape.org/namespaces/inkscape"
   width="9320"
   height="12600"
   id="svg2"
   sodipodi:version="0.32"
   inkscape:version="0.46"
   version="1.0"
   sodipodi:docname="ai-kara.svg"
   inkscape:output_extension="org.inkscape.output.svg.inkscape">
  <defs
     id="defs4">
    <inkscape:perspective
       sodipodi:type="inkscape:persp3d"
       inkscape:vp_x="0 : 526.18109 : 1"
       inkscape:vp_y="0 : 1000 : 0"
       inkscape:vp_z="744.09448 : 526.18109 : 1"
       inkscape:persp3d-origin="372.04724 : 350.78739 : 1"
       id="perspective10" />
  </defs>
  <sodipodi:namedview
     id="base"
     pagecolor="#ffffff"
     bordercolor="#666666"
     borderopacity="1.0"
     gridtolerance="10000"
     guidetolerance="10"
     objecttolerance="10"
     inkscape:pageopacity="0.0"
     inkscape:pageshadow="2"
     inkscape:zoom="0.04"
     inkscape:cx="780.56095"
     inkscape:cy="6505.6452"
     inkscape:document-units="px"
     inkscape:current-layer="layer1"
     showgrid="false"
     showguides="true"
     inkscape:snap-guide="false"
     inkscape:window-width="1280"
     inkscape:window-height="727"
     inkscape:window-x="0"
     inkscape:window-y="25">
    <inkscape:grid
       type="xygrid"
       id="grid4173"
       visible="true"
       enabled="true" />
  </sodipodi:namedview>
  <metadata
     id="metadata7">
    <rdf:RDF>
      <cc:Work
         rdf:about="">
        <dc:format>image/svg+xml</dc:format>
        <dc:type
           rdf:resource="http://purl.org/dc/dcmitype/StillImage" />
      </cc:Work>
    </rdf:RDF>
  </metadata>
  <g
     inkscape:label="Layer 1"
     inkscape:groupmode="layer"
     id="layer1">
    <path
       style="fill:#000000"
       d="M 1906.9138,11997.179 C 794.37799,11737.047 243.17222,11008.577 230.76875,9373.8237 C 215.29273,7333.8363 768.67696,6854.1837 4200.236,5933.2273 C 6174.7069,5403.3289 6810.1052,5166.1886 7289.1691,4780.405 C 8227.8924,4024.4782 8544.5403,2652.2596 8015.5222,1632.6732 C 7558.4823,751.83961 6905.1682,-235.61731 5601.5777,1231.628 L 5107.6043,1629.4152 L 4819.3777,1321.7252 C 4304.0473,541.50011 3214.0302,-241.76057 2367.807,1554.929 C 2082.8921,2108.835 2223.5111,3345.7818 2610.5502,3690.172 C 3020.243,4054.7305 2980.6147,4145.642 2413.127,4143.092 C 1414.7913,4138.6221 1116.8811,3680.0006 1116.8811,2147.5909 C 1116.8811,1486.4348 1035.5595,579.33538 926.1949,524.91056 C 667.1321,395.97025 337.21248,804.82977 407.09969,1438.4288 L 275.14424,1913.6599 L 133.95862,1497.508 C -136.52547,700.28487 591.94306,-152.63323 1197.6107,252.13537 C 1443.7035,416.60257 1469.5178,652.81221 1369.7862,1827.5284 C 1263.154,3083.6153 1285.6062,3242.2261 1616.2694,3569.396 C 2076.5708,4024.8176 2291.6988,3868.3206 2031.5153,3267.3006 C 1775.6761,2676.316 1777.905,1948.6439 2037.673,1250.4386 C 2337.4091,444.79916 2792.0062,113.95458 3599.2273,113.95458 C 4327.9982,113.95458 4734.4546,368.16023 4961.2683,965.80605 L 5093.3119,1313.7452 L 5325.4522,869.16385 C 5602.1192,339.29465 6066.2991,113.16918 6871.178,116.16531 C 7616.8479,118.93846 7782.9034,209.43327 8188.0754,833.84054 C 8659.2441,1559.9807 8636.1624,3548.4229 8146.2688,4433.2513 C 7561.9073,5488.7332 6572.5465,5641.692 4242.8827,6371.4877 C 1646.1473,7184.9421 1443.6863,7462.3963 917.31284,8284.7326 C 387.30343,11087.662 713.06906,11488.104 2510.2645,11488.104 C 3611.0893,11488.104 4060.0577,11219.954 4419.8846,10347.586 C 4653.6494,9780.8224 4822.0219,9608.2783 5261.7979,9484.826 C 6080.4026,9255.0256 6671.9291,9539.8907 7029.9049,10336.29 C 7382.0001,11119.619 8450.139,11942.48 9393.471,11828.705 C 10247.725,11725.672 10540.217,10854.649 10761.477,10023.858 C 10974.968,9222.2038 11008.275,5698.7242 10833.14,2440.4748 C 10717.87,295.97195 10708.765,257.93368 10310.481,257.93368 C 9686.6555,257.93368 8804.9505,-413.80097 8804.9505,-889.05145 C 8804.9505,-1394.0208 9174.4609,-1647.9744 9822.1871,-1588.1681 C 10205.587,-1552.7673 10409.432,-1403.6588 10682.258,-959.0387 C 10878.939,-638.53994 11281.215,-248.64528 11576.216,-92.613765 C 12145.139,208.28897 12569.59,987.89414 12418.229,1453.9622 C 12345.119,1679.1083 12253.724,1611.9815 11951.759,1111.3076 C 11138.619,-236.90309 11099.696,-19.106724 11161.335,5533.6849 C 11217.107,10558.488 11208.406,10714.045 10835.306,11363.915 C 10353.824,12202.57 9611.479,12462.777 8520.1613,12175.41 C 7951.742,12025.74 7726.6784,11848.91 7312.1881,11226.277 C 6720.7623,10337.87 6213.3025,9665.743 5367.0196,9854.014 C 4896.6444,9958.646 4688.3665,10564.054 4303.3045,11200.398 C 3982.0856,11731.216 3658.4115,11848.835 3319.9413,11965.327 C 2733.3888,12167.21 2642.8119,12169.247 1906.9138,11997.179 z"
       id="path7123"
       sodipodi:nodetypes="cccccccccccscccccccccsccccccccsccccccssccccccccccccc" />
  </g>
</svg>
