<?xml version="1.0" encoding="UTF-8" standalone="no"?>
<!-- Created with Inkscape (http://www.inkscape.org/) -->

<svg
   xmlns:dc="http://purl.org/dc/elements/1.1/"
   xmlns:cc="http://creativecommons.org/ns#"
   xmlns:rdf="http://www.w3.org/1999/02/22-rdf-syntax-ns#"
   xmlns:svg="http://www.w3.org/2000/svg"
   xmlns="http://www.w3.org/2000/svg"
   xmlns:sodipodi="http://sodipodi.sourceforge.net/DTD/sodipodi-0.dtd"
   xmlns:inkscape="http://www.inkscape.org/namespaces/inkscape"
   version="1.0"
   width="1000"
   height="1000"
   id="svg5496"
   sodipodi:version="0.32"
   inkscape:version="0.47 r22583"
   sodipodi:docname="ga.svg"
   inkscape:output_extension="org.inkscape.output.svg.inkscape">
  <metadata
     id="metadata5594">
    <rdf:RDF>
      <cc:Work
         rdf:about="">
        <dc:format>image/svg+xml</dc:format>
        <dc:type
           rdf:resource="http://purl.org/dc/dcmitype/StillImage" />
        <dc:title></dc:title>
      </cc:Work>
    </rdf:RDF>
  </metadata>
  <sodipodi:namedview
     inkscape:window-height="706"
     inkscape:window-width="1280"
     inkscape:pageshadow="2"
     inkscape:pageopacity="0.0"
     borderopacity="1.0"
     bordercolor="#666666"
     pagecolor="#ffffff"
     id="base"
     showgrid="false"
     showguides="true"
     inkscape:guide-bbox="true"
     inkscape:zoom="0.454"
     inkscape:cx="-8.0642885"
     inkscape:cy="950.2976"
     inkscape:window-x="0"
     inkscape:window-y="24"
     inkscape:current-layer="g5481"
     inkscape:window-maximized="1">
    <sodipodi:guide
       orientation="horizontal"
       position="200"
       id="guide5596" />
  </sodipodi:namedview>
  <defs
     id="defs5498">
    <inkscape:perspective
       sodipodi:type="inkscape:persp3d"
       inkscape:vp_x="0 : 500 : 1"
       inkscape:vp_y="0 : 1000 : 0"
       inkscape:vp_z="1000 : 500 : 1"
       inkscape:persp3d-origin="500 : 333.33333 : 1"
       id="perspective2822" />
    <inkscape:perspective
       id="perspective2887"
       inkscape:persp3d-origin="350 : 333.33333 : 1"
       inkscape:vp_z="700 : 500 : 1"
       inkscape:vp_y="0 : 1000 : 0"
       inkscape:vp_x="0 : 500 : 1"
       sodipodi:type="inkscape:persp3d" />
    <inkscape:perspective
       id="perspective3016"
       inkscape:persp3d-origin="0.5 : 0.33333333 : 1"
       inkscape:vp_z="1 : 0.5 : 1"
       inkscape:vp_y="0 : 1000 : 0"
       inkscape:vp_x="0 : 0.5 : 1"
       sodipodi:type="inkscape:persp3d" />
    <inkscape:perspective
       id="perspective2625"
       inkscape:persp3d-origin="500 : 333.33333 : 1"
       inkscape:vp_z="1000 : 500 : 1"
       inkscape:vp_y="0 : 1000 : 0"
       inkscape:vp_x="0 : 500 : 1"
       sodipodi:type="inkscape:persp3d" />
    <inkscape:perspective
       id="perspective2654"
       inkscape:persp3d-origin="500 : 333.33333 : 1"
       inkscape:vp_z="1000 : 500 : 1"
       inkscape:vp_y="0 : 1000 : 0"
       inkscape:vp_x="0 : 500 : 1"
       sodipodi:type="inkscape:persp3d" />
    <inkscape:perspective
       id="perspective2703"
       inkscape:persp3d-origin="500 : 333.33333 : 1"
       inkscape:vp_z="1000 : 500 : 1"
       inkscape:vp_y="0 : 1000 : 0"
       inkscape:vp_x="0 : 500 : 1"
       sodipodi:type="inkscape:persp3d" />
    <inkscape:perspective
       id="perspective3447"
       inkscape:persp3d-origin="0.5 : 0.33333333 : 1"
       inkscape:vp_z="1 : 0.5 : 1"
       inkscape:vp_y="0 : 1000 : 0"
       inkscape:vp_x="0 : 0.5 : 1"
       sodipodi:type="inkscape:persp3d" />
    <inkscape:perspective
       id="perspective4271"
       inkscape:persp3d-origin="0.5 : 0.33333333 : 1"
       inkscape:vp_z="1 : 0.5 : 1"
       inkscape:vp_y="0 : 1000 : 0"
       inkscape:vp_x="0 : 0.5 : 1"
       sodipodi:type="inkscape:persp3d" />
    <inkscape:perspective
       id="perspective2734"
       inkscape:persp3d-origin="500 : 333.33333 : 1"
       inkscape:vp_z="1000 : 500 : 1"
       inkscape:vp_y="0 : 1000 : 0"
       inkscape:vp_x="0 : 500 : 1"
       sodipodi:type="inkscape:persp3d" />
    <inkscape:perspective
       id="perspective2531"
       inkscape:persp3d-origin="500 : 333.33333 : 1"
       inkscape:vp_z="1000 : 500 : 1"
       inkscape:vp_y="0 : 1000 : 0"
       inkscape:vp_x="0 : 500 : 1"
       sodipodi:type="inkscape:persp3d" />
    <inkscape:perspective
       id="perspective2561"
       inkscape:persp3d-origin="500 : 333.33333 : 1"
       inkscape:vp_z="1000 : 500 : 1"
       inkscape:vp_y="0 : 1000 : 0"
       inkscape:vp_x="0 : 500 : 1"
       sodipodi:type="inkscape:persp3d" />
    <inkscape:perspective
       id="perspective2590"
       inkscape:persp3d-origin="500 : 333.33333 : 1"
       inkscape:vp_z="1000 : 500 : 1"
       inkscape:vp_y="0 : 1000 : 0"
       inkscape:vp_x="0 : 500 : 1"
       sodipodi:type="inkscape:persp3d" />
    <inkscape:perspective
       id="perspective2619"
       inkscape:persp3d-origin="500 : 333.33333 : 1"
       inkscape:vp_z="1000 : 500 : 1"
       inkscape:vp_y="0 : 1000 : 0"
       inkscape:vp_x="0 : 500 : 1"
       sodipodi:type="inkscape:persp3d" />
    <inkscape:perspective
       id="perspective2648"
       inkscape:persp3d-origin="500 : 333.33333 : 1"
       inkscape:vp_z="1000 : 500 : 1"
       inkscape:vp_y="0 : 1000 : 0"
       inkscape:vp_x="0 : 500 : 1"
       sodipodi:type="inkscape:persp3d" />
    <inkscape:perspective
       id="perspective2677"
       inkscape:persp3d-origin="500 : 333.33333 : 1"
       inkscape:vp_z="1000 : 500 : 1"
       inkscape:vp_y="0 : 1000 : 0"
       inkscape:vp_x="0 : 500 : 1"
       sodipodi:type="inkscape:persp3d" />
    <inkscape:perspective
       id="perspective2707"
       inkscape:persp3d-origin="500 : 333.33333 : 1"
       inkscape:vp_z="1000 : 500 : 1"
       inkscape:vp_y="0 : 1000 : 0"
       inkscape:vp_x="0 : 500 : 1"
       sodipodi:type="inkscape:persp3d" />
  </defs>
  <g
     id="layer1" />
  <g
     id="g2890"
     transform="matrix(1.8357927,0,0,1.8357927,-1.5860185,-143.69943)">
    <g
       id="layer1-4" />
    <g
       id="g4388"
       transform="matrix(0.53051661,0,0,0.53051661,3.3201954,89.300831)">
      <g
         id="layer1-7" />
      <g
         id="g4467"
         transform="matrix(1.0331668,0,0,1.0331668,-8.8711831,-24.130273)">
        <g
           id="layer1-2" />
        <g
           id="g4546"
           transform="matrix(0.99290489,0,0,0.99290489,0.68458924,6.5204004)">
          <g
             id="layer1-0" />
          <g
             id="g4625"
             transform="matrix(0.96722984,0,0,0.96722984,-9.4810264,23.641774)">
            <g
               id="layer1-01" />
            <g
               id="g4704"
               transform="matrix(0.97603208,0,0,0.97603208,11.795168,20.090358)">
              <g
                 id="layer1-3" />
              <g
                 id="g4783"
                 transform="matrix(0.86518307,0,0,1.0249589,3.5836411,-16.751257)">
                <g
                   id="layer1-1" />
                <g
                   id="g4862"
                   transform="matrix(1.0913359,0,0,1.0763742,-3.3888513,-57.8705)">
                  <g
                     id="layer1-9" />
                  <g
                     id="g5481"
                     transform="matrix(1.1535284,0,0,0.98724522,-5.183815,4.1423581)">
                    <g
                       id="layer1-92" />
                    <path
                       sodipodi:nodetypes="cssssssscccccscssscccscscsscccscccscccc"
                       id="path2466"
                       d="M 180.4629,777.19061 C 128.85337,742.98125 98.222884,631.69753 98.222884,478.40355 c 0,-107.63049 2.904546,-207.70767 -15.792906,-207.70767 -27.221703,0 -54.05503,106.76937 -56.373533,173.46267 C 24.82628,479.54127 21.647103,476.81549 9.3004156,429.79213 -19.193311,321.27104 23.728051,215.93392 96.440249,215.93392 c 40.823631,0 54.912161,78.24995 38.247621,212.43329 -17.97295,144.71828 18.79155,293.42658 64.93166,310.70708 19.44314,7.28189 21.30472,-2.90321 8.9213,-48.80919 -27.5308,-102.05709 -31.89807,-300.24726 6.41172,-375.04599 65.12544,-127.15582 197.20506,-132.27042 248.49525,-9.62279 l 28.63131,68.46463 37.64111,-63.69241 c 73.55626,-124.46468 186.48345,-119.70353 258.3053,10.89082 29.45578,53.55967 34.90506,90.32643 29.16506,196.7777 -3.8823,72.00125 -13.10368,146.77178 -20.49209,166.15673 -7.72205,20.26106 -5.93623,35.24537 4.20075,35.24537 25.49435,0 74.55506,-150.73356 73.87913,-226.985 -0.31704,-35.77646 -14.99159,-112.62928 -32.61006,-170.78414 l -45.24942,-103.53346 42.6589,0 c 22.25106,0 73.76965,19.64969 101.02526,46.35802 48.47556,47.5021 49.684,53.86721 55.45032,292.03304 C 999.83465,712.71233 995.5009,800 983.96526,800 c -10.72195,0 -18.20379,-67.85237 -18.52983,-168.04669 -0.55459,-170.37086 5.71192,-346.16595 -104.6661,-374.03988 -11.32391,-2.85965 35.95087,137.92332 43.07749,207.06727 19.82857,192.3809 -32.6399,294.17979 -166.03623,322.14286 l -58.06501,12.17194 46.41033,-69.38444 C 804.06252,613.43922 793.85416,335.70971 718.49478,289.71974 652.65173,249.53741 571.41177,347.67929 530.6851,401.67016 L 493.88701,450.45276 447.586,392.82881 C 398.06555,331.19775 365.7111,228.7477 282.95589,287.51764 c -72.12793,51.2228 -93.1697,314.19555 -22.42842,447.02668 L 295.38697,800 254.20673,799.38754 c -22.64916,-0.33675 -55.83376,-10.32549 -73.74383,-22.19693 z"
                       style="fill:#000000" />
                  </g>
                </g>
              </g>
            </g>
          </g>
        </g>
      </g>
    </g>
  </g>
</svg>
