<?xml version="1.0" encoding="UTF-8" standalone="no"?>
<!-- Created with Inkscape (http://www.inkscape.org/) -->

<svg
   xmlns:dc="http://purl.org/dc/elements/1.1/"
   xmlns:cc="http://creativecommons.org/ns#"
   xmlns:rdf="http://www.w3.org/1999/02/22-rdf-syntax-ns#"
   xmlns:svg="http://www.w3.org/2000/svg"
   xmlns="http://www.w3.org/2000/svg"
   xmlns:sodipodi="http://sodipodi.sourceforge.net/DTD/sodipodi-0.dtd"
   xmlns:inkscape="http://www.inkscape.org/namespaces/inkscape"
   version="1.0"
   width="1000"
   height="1000"
   id="svg5496"
   sodipodi:version="0.32"
   inkscape:version="0.47 r22583"
   sodipodi:docname="ca-tedung.svg"
   inkscape:output_extension="org.inkscape.output.svg.inkscape">
  <metadata
     id="metadata5594">
    <rdf:RDF>
      <cc:Work
         rdf:about="">
        <dc:format>image/svg+xml</dc:format>
        <dc:type
           rdf:resource="http://purl.org/dc/dcmitype/StillImage" />
        <dc:title />
      </cc:Work>
    </rdf:RDF>
  </metadata>
  <sodipodi:namedview
     inkscape:window-height="706"
     inkscape:window-width="1280"
     inkscape:pageshadow="2"
     inkscape:pageopacity="0.0"
     borderopacity="1.0"
     bordercolor="#666666"
     pagecolor="#ffffff"
     id="base"
     showgrid="false"
     showguides="true"
     inkscape:guide-bbox="true"
     inkscape:zoom="0.454"
     inkscape:cx="500"
     inkscape:cy="500"
     inkscape:window-x="0"
     inkscape:window-y="24"
     inkscape:current-layer="svg5496"
     inkscape:window-maximized="1">
    <sodipodi:guide
       orientation="horizontal"
       position="200"
       id="guide5596" />
  </sodipodi:namedview>
  <defs
     id="defs5498">
    <inkscape:perspective
       sodipodi:type="inkscape:persp3d"
       inkscape:vp_x="0 : 500 : 1"
       inkscape:vp_y="0 : 1000 : 0"
       inkscape:vp_z="1000 : 500 : 1"
       inkscape:persp3d-origin="500 : 333.33333 : 1"
       id="perspective8823" />
    <inkscape:perspective
       id="perspective8811"
       inkscape:persp3d-origin="0.5 : 0.33333333 : 1"
       inkscape:vp_z="1 : 0.5 : 1"
       inkscape:vp_y="0 : 1000 : 0"
       inkscape:vp_x="0 : 0.5 : 1"
       sodipodi:type="inkscape:persp3d" />
  </defs>
  <g
     id="layer1" />
  <path
     id="path8789"
     style="fill:#000000"
     d="M 95.119612,729.90591 C 116.22449,707.78787 201.67344,570.43732 201.67344,554.37706 c 0,-22.28507 -60.04765,-46.69979 -144.379964,79.9011 -21.452095,32.2042 -37.807836,76.61932 -26.022948,107.33022 7.369176,19.20382 40.079088,13.20859 63.849084,-11.70247 z M 28.9351,790.33288 C 12.002188,781.98448 5.1503675,773.01961 1.7176595,754.72199 -4.7667925,720.15676 2.5936115,654.79371 15.76882,629.94235 c 6.1365,-11.57474 11.176692,-23.26059 11.200476,-25.96851 0.05616,-6.33103 46.415784,-51.7041 73.700584,-72.13133 23.23784,-17.39738 81.46017,-38.69243 105.78825,-38.69243 20.72304,0 52.24782,-77.00068 57.02658,-149.29441 3.63672,-50.49222 3.40322,-92.36197 -57.117,-94.70233 -24.42996,0 -55.90693,51.91874 -75.39849,70.3758 -24.06849,22.79107 -75.73612,103.90397 -89.368624,140.29975 -7.0782,18.89705 -21.603072,26.73784 -21.603072,11.66172 0,-4.19623 10.106136,-38.13122 22.45806,-75.41112 25.242372,-76.185 64.168186,-138.67704 102.733576,-164.93 134.92916,-79.88633 156.52913,23.18219 136.18281,135.73082 -16.53252,62.4759 -31.80888,133.6809 -29.11776,135.72135 -4.92531,72.66458 36.2642,85.19809 77.67562,141.83075 31.48152,30.74964 74.24381,73.90012 91.79669,82.96777 130.32631,72.5327 153.97964,-8.16004 216.08902,-105.08145 31.56987,-107.05554 -13.28846,-303.1091 -138.87784,-337.17593 -18.50352,0 -117.62548,77.25065 -120.12436,74.75184 -5.38716,-5.38723 75.05971,-97.76998 90.14335,-110.9207 21.05868,-18.36004 82.49449,-42.21822 121.15057,-47.04797 27.31968,-3.41335 55.62936,-1.37971 91.31592,6.55985 61.67292,13.7209 91.54488,38.53844 133.67172,111.05392 15.3768,26.46922 30.603,45.00192 35.44608,43.1435 4.66956,-1.79183 14.34732,-13.17358 21.50628,-25.29268 53.89092,-91.23026 139.13204,-134.21179 266.84064,-134.55047 81.3837,-0.21607 137.1521,13.93043 185.8972,47.15475 36.9752,25.2019 40.3502,28.39709 64.1864,60.76558 47.2677,64.18713 79.6488,221.19918 61.3931,297.68856 -22.3709,93.73139 -108.6959,169.64029 -211.6163,186.08187 -49.5826,7.92085 -103.4036,3.32321 -112.0294,-9.57006 -13.8489,-20.70108 -5.6961,-27.09216 28.7342,-22.52484 59.4246,6.29256 113.739,-2.99816 164.5751,-30.48882 26.9208,-13.88896 67.3391,-56.5704 88.0571,-92.98786 12.6837,-22.29483 17.9548,-44.05125 20.4016,-84.20672 5.7572,-153.72458 -90.4057,-238.10417 -222.1604,-288.33138 -53.0348,-9.53792 -107.0136,-8.45354 -175.0282,3.51613 -72.09576,12.68794 -123.13548,94.31646 -161.05692,132.23808 -15.94008,15.94016 -31.65648,27.32906 -34.9254,25.30874 -3.2688,-2.02024 -11.97648,-16.07652 -19.35024,-31.2362 -46.24972,-45.87259 -82.80682,-130.2893 -145.40175,-149.74242 -83.15304,0.15924 -84.11349,80.61422 -50.67669,112.33002 90.31239,101.42102 74.00601,242.70523 19.9044,356.80058 -38.46072,61.08006 -110.05356,93.56591 -174.41533,79.1421 -44.97384,-10.07885 -53.9916,-16.33348 -131.42964,-91.15906 -60.76248,-58.71242 -111.2058,-98.08334 -125.80884,-98.19333 -2.62452,-0.021 -15.9216,22.85047 -29.54916,50.82273 -38.40427,78.82925 -55.65146,103.27584 -88.359538,125.24286 -35.191596,23.63496 -32.172204,23.1994 -61.294092,8.84148 z"
     sodipodi:nodetypes="csssccsssssccsssscccccccssssssscsssssccsccsssccccsscssc" />
</svg>
