<?xml version="1.0" encoding="UTF-8" standalone="no"?>
<!-- Created with Inkscape (http://www.inkscape.org/) -->

<svg
   xmlns:svg="http://www.w3.org/2000/svg"
   xmlns="http://www.w3.org/2000/svg"
   version="1.0"
   width="1000"
   height="1000"
   id="svg5496">
  <defs
     id="defs5498" />
  <g
     id="layer1" />
  <g
     transform="matrix(1.8357927,0,0,1.8357927,-1.5860185,-143.69943)"
     id="g2890">
    <g
       id="layer1-4" />
    <g
       transform="matrix(0.53225174,0,0,0.53225174,1.3923261,92.611952)"
       id="g3175">
      <g
         id="layer1-42" />
      <path
         d="m 3.1150474,714.57123 c 0,-104.58859 64.1399386,-195.94178 149.2042526,-212.50854 106.07664,-20.65905 114.94797,-50.70544 135.32986,-126.55153 15.4185,-57.37609 53.14962,-161.55901 -2.46723,-161.55901 -49.22129,0 -156.77379,106.75768 -200.775175,175.5581 -40.983262,64.08139 -42.501949,83.51708 -49.478725,57.09818 -14.898207,-56.41495 102.2776,-212.41699 183.35326,-244.10761 110.79577,-43.30738 157.37427,-1.3463 135.45272,122.02532 -26.85333,94.35387 -45.86599,182.34494 -14.88878,248.57773 41.01486,87.6944 144.44301,152.8291 276.36031,170.86158 93.23959,12.74541 163.91162,-118.50055 163.91162,-223.38215 0,-108.43383 -86.56873,-195.22748 -194.72143,-195.22748 -86.62331,0 -29.80399,-41.77334 66.05554,-100.08369 91.0204,-55.36693 190.92636,-40.69282 268.42258,43.85017 46.77715,51.03058 54.81834,91.64113 58.41822,295.02701 L 981.46644,800 959.79141,627.91153 c -22.71307,-180.32956 9.09132,-334.06654 -158.34825,-385.4369 -50.96564,-15.63623 -164.52747,12.8972 -169.31238,41.99685 -2.86619,17.43081 60.25543,6.58252 122.70713,56.73377 97.91819,78.63229 95.57913,297.07133 0.40219,386.58387 -116.91662,95.3501 -210.47351,79.5647 -404.30745,-68.21672 l -78.98383,-60.21799 -82.15043,95.04887 C 84.722021,815.97822 3.1150474,824.79436 3.1150474,714.57123 z M 169.76549,673.38655 C 191.67775,644.01703 252.19815,571.63731 247.37884,552.30988 239.53205,520.841 136.52072,539.79857 87.464195,576.0048 34.58924,615.02923 36.366997,726.16647 81.0955,726.16647 c 14.435705,0 60.53658,-15.07205 88.66999,-52.77992 z"
         id="path2540"
         style="fill:#000000" />
    </g>
  </g>
</svg>
