<?xml version="1.0" encoding="UTF-8" standalone="no"?>
<!-- Created with Inkscape (http://www.inkscape.org/) -->
<svg
   xmlns:dc="http://purl.org/dc/elements/1.1/"
   xmlns:cc="http://creativecommons.org/ns#"
   xmlns:rdf="http://www.w3.org/1999/02/22-rdf-syntax-ns#"
   xmlns:svg="http://www.w3.org/2000/svg"
   xmlns="http://www.w3.org/2000/svg"
   xmlns:sodipodi="http://sodipodi.sourceforge.net/DTD/sodipodi-0.dtd"
   xmlns:inkscape="http://www.inkscape.org/namespaces/inkscape"
   width="9320"
   height="12600"
   id="svg2"
   sodipodi:version="0.32"
   inkscape:version="0.46"
   version="1.0"
   sodipodi:docname="carik-pareren.svg"
   inkscape:output_extension="org.inkscape.output.svg.inkscape">
  <defs
     id="defs4">
    <inkscape:perspective
       sodipodi:type="inkscape:persp3d"
       inkscape:vp_x="0 : 526.18109 : 1"
       inkscape:vp_y="0 : 1000 : 0"
       inkscape:vp_z="744.09448 : 526.18109 : 1"
       inkscape:persp3d-origin="372.04724 : 350.78739 : 1"
       id="perspective10" />
  </defs>
  <sodipodi:namedview
     id="base"
     pagecolor="#ffffff"
     bordercolor="#666666"
     borderopacity="1.0"
     gridtolerance="10000"
     guidetolerance="10"
     objecttolerance="10"
     inkscape:pageopacity="0.0"
     inkscape:pageshadow="2"
     inkscape:zoom="0.04"
     inkscape:cx="780.56095"
     inkscape:cy="6995.6874"
     inkscape:document-units="px"
     inkscape:current-layer="layer1"
     showgrid="false"
     showguides="true"
     inkscape:snap-guide="false"
     inkscape:window-width="1280"
     inkscape:window-height="726"
     inkscape:window-x="0"
     inkscape:window-y="25">
    <inkscape:grid
       type="xygrid"
       id="grid4173"
       visible="true"
       enabled="true" />
  </sodipodi:namedview>
  <metadata
     id="metadata7">
    <rdf:RDF>
      <cc:Work
         rdf:about="">
        <dc:format>image/svg+xml</dc:format>
        <dc:type
           rdf:resource="http://purl.org/dc/dcmitype/StillImage" />
      </cc:Work>
    </rdf:RDF>
  </metadata>
  <g
     inkscape:label="Layer 1"
     inkscape:groupmode="layer"
     id="layer1">
    <path
       style="fill:#000000"
       d="M 2021.3677,3987.6464 C 2007.8546,3956.7947 1963.1174,3828.2278 1921.9524,3701.945 C 1826.9853,3410.6267 1563.6941,2904.5188 1368.7244,2638.5103 C 1194.7777,2401.188 766.29665,1954.613 549.134,1784.3185 L 399.88824,1667.2802 L 236.23391,1782.8441 C 106.01336,1874.7975 66.20102,1890.0553 41.3412,1857.5311 C 24.154927,1835.0516 23.471314,1789.9015 39.81993,1757.1984 C 102.30649,1632.2135 465.23431,1140.0365 494.86014,1140.1139 C 561.7276,1140.2831 1018.549,1576.5476 1228.2931,1840.5451 C 1600.4495,2308.9567 1810.6559,2733.4895 2012.3461,3424.0018 C 2165.0243,3946.7307 2176.3037,4021.9276 2103.8375,4034.0557 C 2071.9972,4039.3849 2034.8857,4018.5005 2021.3677,3987.6464 z"
       id="path2928" />
    <path
       style="fill:#000000"
       d="M 3708.8677,4000.1464 C 3695.3546,3969.2947 3650.6174,3840.7278 3609.4524,3714.445 C 3514.4853,3423.1267 3251.1941,2917.0188 3056.2244,2651.0103 C 2882.2777,2413.688 2453.7967,1967.113 2236.634,1796.8185 L 2087.3883,1679.7802 L 1923.7339,1795.3441 C 1793.5134,1887.2975 1753.701,1902.5553 1728.8412,1870.0311 C 1711.6549,1847.5516 1710.9713,1802.4015 1727.32,1769.6984 C 1789.8065,1644.7135 2152.7343,1152.5365 2182.3602,1152.6139 C 2249.2276,1152.7831 2706.049,1589.0476 2915.7931,1853.0451 C 3287.9495,2321.4567 3498.1559,2745.9895 3699.8461,3436.5018 C 3852.5243,3959.2307 3863.8037,4034.4276 3791.3375,4046.5557 C 3759.4972,4051.8849 3722.3857,4031.0005 3708.8677,4000.1464 z"
       id="path3355" />
  </g>
</svg>
