<?xml version="1.0" encoding="UTF-8" standalone="no"?>
<!-- Created with Inkscape (http://www.inkscape.org/) -->

<svg
   xmlns:dc="http://purl.org/dc/elements/1.1/"
   xmlns:cc="http://creativecommons.org/ns#"
   xmlns:rdf="http://www.w3.org/1999/02/22-rdf-syntax-ns#"
   xmlns:svg="http://www.w3.org/2000/svg"
   xmlns="http://www.w3.org/2000/svg"
   xmlns:sodipodi="http://sodipodi.sourceforge.net/DTD/sodipodi-0.dtd"
   xmlns:inkscape="http://www.inkscape.org/namespaces/inkscape"
   version="1.0"
   width="1000"
   height="1000"
   id="svg5496"
   sodipodi:version="0.32"
   inkscape:version="0.47 r22583"
   sodipodi:docname="New document 99"
   inkscape:output_extension="org.inkscape.output.svg.inkscape">
  <metadata
     id="metadata5594">
    <rdf:RDF>
      <cc:Work
         rdf:about="">
        <dc:format>image/svg+xml</dc:format>
        <dc:type
           rdf:resource="http://purl.org/dc/dcmitype/StillImage" />
        <dc:title></dc:title>
      </cc:Work>
    </rdf:RDF>
  </metadata>
  <sodipodi:namedview
     inkscape:window-height="706"
     inkscape:window-width="1280"
     inkscape:pageshadow="2"
     inkscape:pageopacity="0.0"
     borderopacity="1.0"
     bordercolor="#666666"
     pagecolor="#ffffff"
     id="base"
     showgrid="false"
     showguides="true"
     inkscape:guide-bbox="true"
     inkscape:zoom="0.454"
     inkscape:cx="461.69421"
     inkscape:cy="454.20759"
     inkscape:window-x="0"
     inkscape:window-y="24"
     inkscape:current-layer="svg5496"
     inkscape:window-maximized="1">
    <sodipodi:guide
       orientation="horizontal"
       position="200"
       id="guide5596" />
  </sodipodi:namedview>
  <defs
     id="defs5498">
    <inkscape:perspective
       sodipodi:type="inkscape:persp3d"
       inkscape:vp_x="0 : 500 : 1"
       inkscape:vp_y="0 : 1000 : 0"
       inkscape:vp_z="1000 : 500 : 1"
       inkscape:persp3d-origin="500 : 333.33333 : 1"
       id="perspective9190" />
    <inkscape:perspective
       id="perspective9178"
       inkscape:persp3d-origin="0.5 : 0.33333333 : 1"
       inkscape:vp_z="1 : 0.5 : 1"
       inkscape:vp_y="0 : 1000 : 0"
       inkscape:vp_x="0 : 0.5 : 1"
       sodipodi:type="inkscape:persp3d" />
  </defs>
  <g
     id="layer1" />
  <path
     d="m 583.68854,748.71712 c 12.0464,-12.04648 10.3564,-90.4718 -2.9157,-112.93977 -25.09702,-40.33138 -99.29949,-68.0842 -143.32529,-63.35874 -18.95749,3.04828 2.44179,69.06446 12.1186,107.69233 13.66828,54.56103 39.53088,77.00694 88.72872,77.00694 20.34607,0 40.77317,-3.78034 45.39367,-8.40076 z M 88.043861,794 C 31.344479,775.63817 5.425897,705.7294 18.489651,650.80399 32.515061,599.67061 42.853251,552.17001 91.63854,480.71618 124.02199,428.90915 210.62729,317.69633 194.86535,253.72127 128.62766,199.52353 43.803665,334.79604 22.507171,387.83461 c -4.91304,14.93487 -18.47088,16.2736 -18.47088,1.82381 0,-25.6585 39.16895,-104.70185 67.49679,-136.20924 61.192439,-68.06076 130.062549,-72.12232 162.574659,-9.58771 17.42333,79.98337 -282.89724,509.72079 -142.18366,513.50143 24.59679,0 117.30672,-16.21827 168.80742,-68.83963 71.12194,-74.16217 129.58662,-119.52841 141.94408,-218.62587 14.54409,-89.5592 49.10613,-172.61692 88.0239,-211.53469 24.7711,-24.77117 85.83226,-54.47925 121.92526,-59.32033 33.8376,-4.53858 85.213,8.41294 120.4676,30.36929 14.0211,8.73217 44.9509,42.83035 68.7331,75.77378 23.7822,32.94343 45.8022,59.89711 48.9332,59.89711 3.1311,0 14.5598,-11.81356 25.3972,-26.25236 53.1634,-70.83021 111.7356,-109.45738 200.44936,-132.19249 74.1953,-19.01441 175.297,-3.35862 241.7575,37.43658 25.3171,15.54055 64.7978,48.65095 64.7978,54.34302 0,2.33478 6.134,10.8292 13.631,18.8765 35.4001,37.9969 58.5329,108.10934 67.1213,203.43174 4.2137,46.76877 2.6449,60.45857 -11.5342,100.62161 -31.2347,88.47761 -126.2592,162.33783 -224.331,174.36743 -53.5962,6.57415 -93.7042,-0.59295 -94.9377,-16.96505 -0.8366,-11.10797 7.0966,-13.11498 65.6505,-16.60836 79.5048,-4.74335 125.5122,-23.98129 177.3785,-74.17098 40.7003,-39.3852 52.483,-61.72288 62.9224,-119.29383 19.8846,-109.65703 -41.3739,-258.94267 -156.2318,-299.61634 -61.6238,-21.82215 -108.6442,-29.68169 -177.5752,-29.68169 -113.5077,0 -145.47606,99.87694 -221.90296,159.20014 -40.3477,31.31823 -41.5185,31.72525 -52.5047,18.25338 -12.175,-14.92962 -59.84487,-115.52973 -99.13737,-137.5108 -33.6344,-18.81573 -127.8791,-19.5501 -183.06736,-1.42651 -72.36461,23.7642 -124.89759,140.10067 -127.03047,205.00744 l -1.03763,31.5762 47.3209,8.88051 c 46.72802,8.76927 73.7487,22.72013 112.56843,58.11952 C 683.78421,675.49725 606.858,854.59351 467.58689,757.11788 437.79716,736.2681 423.66029,621.19668 393.71981,618.67607 268.75878,720.12733 223.80338,801.57419 88.043861,794 z"
     style="fill:#000000"
     id="path9168"
     sodipodi:nodetypes="cccssccccccssccccssssssscscscssscccsssssccccscc" />
</svg>
