<?xml version="1.0" encoding="UTF-8" standalone="no"?>
<!-- Created with Inkscape (http://www.inkscape.org/) -->

<svg
   xmlns:dc="http://purl.org/dc/elements/1.1/"
   xmlns:cc="http://creativecommons.org/ns#"
   xmlns:rdf="http://www.w3.org/1999/02/22-rdf-syntax-ns#"
   xmlns:svg="http://www.w3.org/2000/svg"
   xmlns="http://www.w3.org/2000/svg"
   xmlns:sodipodi="http://sodipodi.sourceforge.net/DTD/sodipodi-0.dtd"
   xmlns:inkscape="http://www.inkscape.org/namespaces/inkscape"
   version="1.0"
   width="1000"
   height="1000"
   id="svg5496"
   sodipodi:version="0.32"
   inkscape:version="0.47 r22583"
   sodipodi:docname="ka.svg"
   inkscape:output_extension="org.inkscape.output.svg.inkscape">
  <metadata
     id="metadata5594">
    <rdf:RDF>
      <cc:Work
         rdf:about="">
        <dc:format>image/svg+xml</dc:format>
        <dc:type
           rdf:resource="http://purl.org/dc/dcmitype/StillImage" />
        <dc:title></dc:title>
      </cc:Work>
    </rdf:RDF>
  </metadata>
  <sodipodi:namedview
     inkscape:window-height="706"
     inkscape:window-width="1280"
     inkscape:pageshadow="2"
     inkscape:pageopacity="0.0"
     borderopacity="1.0"
     bordercolor="#666666"
     pagecolor="#ffffff"
     id="base"
     showgrid="false"
     showguides="true"
     inkscape:guide-bbox="true"
     inkscape:zoom="0.454"
     inkscape:cx="500"
     inkscape:cy="500"
     inkscape:window-x="0"
     inkscape:window-y="24"
     inkscape:current-layer="g4388"
     inkscape:window-maximized="1">
    <sodipodi:guide
       orientation="horizontal"
       position="200"
       id="guide5596" />
  </sodipodi:namedview>
  <defs
     id="defs5498">
    <inkscape:perspective
       sodipodi:type="inkscape:persp3d"
       inkscape:vp_x="0 : 500 : 1"
       inkscape:vp_y="0 : 1000 : 0"
       inkscape:vp_z="1000 : 500 : 1"
       inkscape:persp3d-origin="500 : 333.33333 : 1"
       id="perspective2822" />
    <inkscape:perspective
       id="perspective2887"
       inkscape:persp3d-origin="350 : 333.33333 : 1"
       inkscape:vp_z="700 : 500 : 1"
       inkscape:vp_y="0 : 1000 : 0"
       inkscape:vp_x="0 : 500 : 1"
       sodipodi:type="inkscape:persp3d" />
    <inkscape:perspective
       id="perspective3016"
       inkscape:persp3d-origin="0.5 : 0.33333333 : 1"
       inkscape:vp_z="1 : 0.5 : 1"
       inkscape:vp_y="0 : 1000 : 0"
       inkscape:vp_x="0 : 0.5 : 1"
       sodipodi:type="inkscape:persp3d" />
    <inkscape:perspective
       id="perspective2625"
       inkscape:persp3d-origin="500 : 333.33333 : 1"
       inkscape:vp_z="1000 : 500 : 1"
       inkscape:vp_y="0 : 1000 : 0"
       inkscape:vp_x="0 : 500 : 1"
       sodipodi:type="inkscape:persp3d" />
    <inkscape:perspective
       id="perspective2654"
       inkscape:persp3d-origin="500 : 333.33333 : 1"
       inkscape:vp_z="1000 : 500 : 1"
       inkscape:vp_y="0 : 1000 : 0"
       inkscape:vp_x="0 : 500 : 1"
       sodipodi:type="inkscape:persp3d" />
    <inkscape:perspective
       id="perspective2703"
       inkscape:persp3d-origin="500 : 333.33333 : 1"
       inkscape:vp_z="1000 : 500 : 1"
       inkscape:vp_y="0 : 1000 : 0"
       inkscape:vp_x="0 : 500 : 1"
       sodipodi:type="inkscape:persp3d" />
    <inkscape:perspective
       id="perspective3447"
       inkscape:persp3d-origin="0.5 : 0.33333333 : 1"
       inkscape:vp_z="1 : 0.5 : 1"
       inkscape:vp_y="0 : 1000 : 0"
       inkscape:vp_x="0 : 0.5 : 1"
       sodipodi:type="inkscape:persp3d" />
    <inkscape:perspective
       id="perspective4271"
       inkscape:persp3d-origin="0.5 : 0.33333333 : 1"
       inkscape:vp_z="1 : 0.5 : 1"
       inkscape:vp_y="0 : 1000 : 0"
       inkscape:vp_x="0 : 0.5 : 1"
       sodipodi:type="inkscape:persp3d" />
    <inkscape:perspective
       id="perspective2734"
       inkscape:persp3d-origin="500 : 333.33333 : 1"
       inkscape:vp_z="1000 : 500 : 1"
       inkscape:vp_y="0 : 1000 : 0"
       inkscape:vp_x="0 : 500 : 1"
       sodipodi:type="inkscape:persp3d" />
  </defs>
  <g
     id="layer1" />
  <g
     id="g2890"
     transform="matrix(1.8357927,0,0,1.8357927,-1.5860185,-143.69943)">
    <g
       id="layer1-4" />
    <g
       id="g4388"
       transform="matrix(0.53051661,0,0,0.53051661,3.3201954,89.300831)">
      <g
         id="layer1-7" />
      <path
         sodipodi:nodetypes="cccccscsscscsccccccscscc"
         d="M 44.286629,766.89353 C -58.706944,612.04674 138.82615,434.74105 184.31659,267.87294 205.42565,196.99279 101.76065,280.93198 44.908515,355.05036 -13.741401,431.5103 -16.182957,373.55903 41.790329,281.07703 142.13284,121.00701 305.46361,184.4279 216.67855,349.60767 102.00137,524.63911 58.018037,701.88725 107.1731,734.72087 c 38.06757,25.42761 138.28537,-58.22255 265.04843,-154.66425 56.05069,-38.36831 42.42187,-93.37195 42.42187,-139.11339 0,-148.7411 117.97865,-250.95677 289.65403,-250.95677 185.18386,0 255.75689,101.4717 273.66894,393.48188 8.321,135.65207 4.32692,201.37455 -12.86032,211.7067 -17.12156,10.29296 -25.18417,-13.74759 -25.7535,-76.79199 -2.75688,-305.9848 -33.51539,-481.85769 -246.38848,-481.85769 -92.64996,0 -175.1081,58.98284 -193.8216,128.58592 -9.62389,35.79374 -64.3848,157.45326 7.47141,185.41849 95.93676,37.33681 178.29343,107.49762 156.54495,188.39021 -25.49947,94.84295 -165.94045,70.07186 -212.42856,-37.46844 L 423.09798,637.53071 314.85709,710.62696 C 168.24545,809.63698 88.693451,833.65744 44.286629,766.89353 z M 611.71973,701.90137 c 0,-39.82577 -57.97767,-85.94355 -108.046,-85.94355 -34.78179,0 -28.19287,56.13066 11.07131,94.32219 47.50196,46.20256 96.97469,41.92816 96.97469,-8.37864 z"
         style="fill:#000000"
         id="path2528" />
    </g>
  </g>
</svg>
