<?xml version="1.0" encoding="UTF-8" standalone="no"?>
<!-- Created with Inkscape (http://www.inkscape.org/) -->
<svg
   xmlns:dc="http://purl.org/dc/elements/1.1/"
   xmlns:cc="http://creativecommons.org/ns#"
   xmlns:rdf="http://www.w3.org/1999/02/22-rdf-syntax-ns#"
   xmlns:svg="http://www.w3.org/2000/svg"
   xmlns="http://www.w3.org/2000/svg"
   xmlns:sodipodi="http://sodipodi.sourceforge.net/DTD/sodipodi-0.dtd"
   xmlns:inkscape="http://www.inkscape.org/namespaces/inkscape"
   version="1.0"
   width="1000"
   height="1000"
   id="svg5496"
   sodipodi:version="0.32"
   inkscape:version="0.46"
   sodipodi:docname="ha-gantungan.svg"
   inkscape:output_extension="org.inkscape.output.svg.inkscape">
  <metadata
     id="metadata5594">
    <rdf:RDF>
      <cc:Work
         rdf:about="">
        <dc:format>image/svg+xml</dc:format>
        <dc:type
           rdf:resource="http://purl.org/dc/dcmitype/StillImage" />
      </cc:Work>
    </rdf:RDF>
  </metadata>
  <sodipodi:namedview
     inkscape:window-height="618"
     inkscape:window-width="641"
     inkscape:pageshadow="2"
     inkscape:pageopacity="0.0"
     guidetolerance="10.0"
     gridtolerance="10.0"
     objecttolerance="10.0"
     borderopacity="1.0"
     bordercolor="#666666"
     pagecolor="#ffffff"
     id="base"
     showgrid="false"
     showguides="true"
     inkscape:guide-bbox="true"
     inkscape:zoom="0.454"
     inkscape:cx="614.71806"
     inkscape:cy="3.4220387"
     inkscape:window-x="9"
     inkscape:window-y="46"
     inkscape:current-layer="svg5496">
    <sodipodi:guide
       orientation="horizontal"
       position="200"
       id="guide5596" />
  </sodipodi:namedview>
  <defs
     id="defs5498">
    <inkscape:perspective
       sodipodi:type="inkscape:persp3d"
       inkscape:vp_x="0 : 500 : 1"
       inkscape:vp_y="0 : 1000 : 0"
       inkscape:vp_z="1000 : 500 : 1"
       inkscape:persp3d-origin="500 : 333.33333 : 1"
       id="perspective2557" />
  </defs>
  <g
     id="layer1" />
  <path
     style="fill:#000000"
     d="M 250.61593,1391.617 C 178.98189,1361.2878 198.23949,1202.3829 190.42113,1044.4444 C 183.30697,897.91378 205.61521,849.91064 161.99694,867.43507 C 143.55683,874.84381 118.14855,972.88963 118.14855,1026.7274 C 118.14855,1078.2319 109.9271,1106.93 97.47971,1098.8756 C 65.996133,1078.503 72.823452,942.49796 109.00735,869.23748 C 132.40778,821.85976 153.58319,805.89472 186.51546,810.80163 C 229.45001,817.19889 220.18259,828.13605 220.18259,1019.2711 C 220.18259,1245.2018 249.61564,1364.5453 373.94548,1364.5453 C 474.25132,1364.5453 525.11463,1212.1871 542.44609,1038.9146 C 554.50259,918.3791 566.32518,884.79722 609.1073,849.56309 C 680.31741,790.91689 781.70698,794.13133 837.95499,856.81818 C 878.80327,902.34285 882.89529,929.92912 882.89529,1159.7808 C 882.89529,1313.9389 874.82667,1412.6582 862.22649,1412.6582 C 849.85333,1412.6582 841.55769,1327.5403 841.55769,1200.5845 C 841.55769,965.25413 823.09765,849.20962 719.39938,849.20962 C 607.41423,849.20962 626.8709,981.82605 564.89211,1239.3156 C 534.6767,1364.8449 496.97316,1413.1718 379.38648,1411.2865 C 332.33243,1410.5322 274.38571,1401.6809 250.61593,1391.617 z"
     id="path2483"
     sodipodi:nodetypes="csssscssssccssssscc" />
</svg>
