<?xml version="1.0" encoding="UTF-8" standalone="no"?>
<!-- Created with Inkscape (http://www.inkscape.org/) -->

<svg
   xmlns:svg="http://www.w3.org/2000/svg"
   xmlns="http://www.w3.org/2000/svg"
   version="1.0"
   width="1000"
   height="1000"
   id="svg5496">
  <defs
     id="defs5498" />
  <g
     id="layer1" />
  <g
     transform="matrix(1.8357927,0,0,1.8357927,-1.5860185,-143.69943)"
     id="g2890">
    <g
       id="layer1-4" />
    <path
       d="M 99.247534,499.41032 C 56.090251,471.28326 42.329532,431.97744 43.792674,341.00993 c 1.076099,-66.90794 8.108033,-117.93989 -2.198591,-117.93989 -13.501905,0 -26.228665,51.96837 -22.870551,105.07082 1.290564,20.40824 -1.384806,29.16182 -7.457978,24.40192 -5.2088169,-4.08255 -9.4705409,-34.40791 -9.4705409,-67.38978 0,-48.42659 3.574329,-63.14203 18.5729259,-76.46465 40.444409,-35.92481 69.435545,12.18065 51.123458,102.79074 -10.42158,51.56715 -6.13076,93.83665 10.080137,121.37197 21.737726,36.92286 36.190676,52.88379 90.096426,43.96369 61.67946,-10.20634 61.7318,-78.70299 61.7318,-164.38323 0,-87.00757 36.55764,-114.41536 87.05145,-123.00421 87.30432,-22.72013 82.73929,100.30955 85.33214,158.76719 6.08539,159.62402 28.32392,138.97127 28.32392,-28.09001 0,-71.98353 -3.62433,-129.61606 -0.27097,-129.60826 19.93857,0.0465 53.42932,45.934 60.21262,90.52218 9.99267,65.68351 10.43815,232.47782 0.63227,232.47782 -4.23952,0 -9.42198,-43.85363 -11.51678,-97.45256 -4.05366,-53.50064 -16.4326,-173.50065 -24.58554,-175.37782 -4.82579,-1.11112 -6.14733,71.54112 -8.88375,135.89159 -4.69021,121.39275 -14.51108,151.81309 -41.95787,129.96558 -22.16982,-39.92148 -17.65859,-97.17521 -19.82936,-146.65199 -3.19886,-71.35165 11.10091,-113.00097 -35.25703,-136.84786 -89.77698,-46.18198 -101.61818,91.24658 -102.61949,153.70512 -0.0754,47.98991 -7.52061,110.72609 -38.50353,124.42302 -36.63313,16.19493 -85.93289,15.43044 -112.280306,-1.74099 z"
       id="path2489"
       style="fill:#000000" />
  </g>
</svg>
