<?xml version="1.0" encoding="UTF-8" standalone="no"?>
<!-- Created with Inkscape (http://www.inkscape.org/) -->
<svg
   xmlns:dc="http://purl.org/dc/elements/1.1/"
   xmlns:cc="http://creativecommons.org/ns#"
   xmlns:rdf="http://www.w3.org/1999/02/22-rdf-syntax-ns#"
   xmlns:svg="http://www.w3.org/2000/svg"
   xmlns="http://www.w3.org/2000/svg"
   xmlns:sodipodi="http://sodipodi.sourceforge.net/DTD/sodipodi-0.dtd"
   xmlns:inkscape="http://www.inkscape.org/namespaces/inkscape"
   width="9320"
   height="12600"
   id="svg2"
   sodipodi:version="0.32"
   inkscape:version="0.46"
   version="1.0"
   sodipodi:docname="i-kara.svg"
   inkscape:output_extension="org.inkscape.output.svg.inkscape">
  <defs
     id="defs4">
    <inkscape:perspective
       sodipodi:type="inkscape:persp3d"
       inkscape:vp_x="0 : 526.18109 : 1"
       inkscape:vp_y="0 : 1000 : 0"
       inkscape:vp_z="744.09448 : 526.18109 : 1"
       inkscape:persp3d-origin="372.04724 : 350.78739 : 1"
       id="perspective10" />
  </defs>
  <sodipodi:namedview
     id="base"
     pagecolor="#ffffff"
     bordercolor="#666666"
     borderopacity="1.0"
     gridtolerance="10000"
     guidetolerance="10"
     objecttolerance="10"
     inkscape:pageopacity="0.0"
     inkscape:pageshadow="2"
     inkscape:zoom="0.04"
     inkscape:cx="780.56095"
     inkscape:cy="6995.6874"
     inkscape:document-units="px"
     inkscape:current-layer="layer1"
     showgrid="false"
     showguides="true"
     inkscape:snap-guide="false"
     inkscape:window-width="1280"
     inkscape:window-height="727"
     inkscape:window-x="0"
     inkscape:window-y="25">
    <inkscape:grid
       type="xygrid"
       id="grid4173"
       visible="true"
       enabled="true" />
  </sodipodi:namedview>
  <metadata
     id="metadata7">
    <rdf:RDF>
      <cc:Work
         rdf:about="">
        <dc:format>image/svg+xml</dc:format>
        <dc:type
           rdf:resource="http://purl.org/dc/dcmitype/StillImage" />
      </cc:Work>
    </rdf:RDF>
  </metadata>
  <g
     inkscape:label="Layer 1"
     inkscape:groupmode="layer"
     id="layer1">
    <path
       style="fill:#000000"
       d="M 4402.7363,8166.5136 C 3586.3724,7697.7077 3626.2262,7467.1777 4469.0341,7782.9147 C 6178.975,8511.3582 6115.6977,8033.1468 6191.649,7673.2908 C 6227.7465,7502.2033 5907.0381,7271.8418 5254.2024,6999.7185 C 4250.2703,6581.2617 3890.8538,6089.3856 4384.2556,5809.0112 C 4732.3282,5611.1492 5517.722,5628.3253 5858.282,5841.1743 C 6071.5242,5974.3731 6003.0666,5994.2434 5576.5636,5923.0132 C 4937.363,5816.2519 4458.1223,6019.3341 4579.4114,6345.6799 C 4624.2986,6466.4176 5078.2974,6683.4762 5588.3207,6828.2943 C 6357.7689,7046.5318 6525.354,7166.4275 6572.7578,7533.1877 C 6694.4227,8473.8306 5529.9298,8813.6481 4402.7363,8166.5136 z"
       id="path4803"
       sodipodi:nodetypes="ccccccccccc" />
    <path
       style="fill:#000000"
       d="M 2356.4081,5038.2761 C 1509.8251,4889.7533 1261.4058,4388.2788 1191.4456,2686.4986 C 1135.1018,1316.2841 1057.8902,677.425 790.82096,722.891 C 586.04908,757.7485 471.7299,1429.1074 405.90168,1872.6547 C 317.3294,2469.4398 289.06366,2500.5927 153.29411,2151.177 C -40.922734,1651.2179 152.48648,702.49136 501.57323,442.82924 C 648.81824,333.20538 921.25884,270.05794 1106.9864,302.55796 C 1405.2136,354.59131 1444.6917,558.85225 1444.6917,2049.6359 C 1444.6917,3389.5396 1514.2011,3833.0869 1781.6084,4199.0051 C 2190.6449,4759.0804 2540.0886,4650.2984 2282.6542,4043.2415 C 2016.3175,3415.1354 2063.1203,1859.5201 2368.0525,1205.1448 C 2695.9164,501.59847 3409.6223,60.745364 4104.1523,132.81778 C 4485.2611,172.38996 4737.756,363.011 5030.518,832.49078 L 5432.9623,1477.7732 L 5848.9478,874.25228 C 6317.7838,194.11283 6918.032,-10.148106 7796.0173,211.794 C 8764.1336,456.6375 9056.1818,1193.3573 9021.042,3302.4804 L 8991.5744,5070.6076 L 8872.5576,3639.2664 C 8807.1051,2852.0289 8649.5305,2039.0271 8522.3814,1832.914 C 8312.6985,665.35296 7583.8135,-424.82783 5874.2273,1603.2258 C 5382.5534,2075.0633 5355.4896,2080.9572 5135.6365,1765.3885 C 4524.3073,887.72382 3473.6411,-436.7979 2503.0707,2130.633 C 2421.2063,3659.2174 2249.0733,3706.792 2743.3391,4359.8205 C 3144.8632,4890.2586 3195.272,5200.1017 2868.9291,5131.7343 C 2808.679,5119.2731 2578.0266,5077.0065 2356.4081,5038.2761 z"
       id="path4801"
       sodipodi:nodetypes="cccccccscccccccccccccccccc" />
  </g>
</svg>
