<?xml version="1.0" encoding="UTF-8" standalone="no"?>
<!-- Created with Inkscape (http://www.inkscape.org/) -->
<svg
   xmlns:dc="http://purl.org/dc/elements/1.1/"
   xmlns:cc="http://creativecommons.org/ns#"
   xmlns:rdf="http://www.w3.org/1999/02/22-rdf-syntax-ns#"
   xmlns:svg="http://www.w3.org/2000/svg"
   xmlns="http://www.w3.org/2000/svg"
   xmlns:sodipodi="http://sodipodi.sourceforge.net/DTD/sodipodi-0.dtd"
   xmlns:inkscape="http://www.inkscape.org/namespaces/inkscape"
   version="1.0"
   width="1000"
   height="1000"
   id="svg5496"
   sodipodi:version="0.32"
   inkscape:version="0.46"
   sodipodi:docname="ja-gantungan.svg"
   inkscape:output_extension="org.inkscape.output.svg.inkscape">
  <metadata
     id="metadata5594">
    <rdf:RDF>
      <cc:Work
         rdf:about="">
        <dc:format>image/svg+xml</dc:format>
        <dc:type
           rdf:resource="http://purl.org/dc/dcmitype/StillImage" />
      </cc:Work>
    </rdf:RDF>
  </metadata>
  <sodipodi:namedview
     inkscape:window-height="618"
     inkscape:window-width="641"
     inkscape:pageshadow="2"
     inkscape:pageopacity="0.0"
     guidetolerance="10.0"
     gridtolerance="10.0"
     objecttolerance="10.0"
     borderopacity="1.0"
     bordercolor="#666666"
     pagecolor="#ffffff"
     id="base"
     showgrid="false"
     showguides="true"
     inkscape:guide-bbox="true"
     inkscape:zoom="0.454"
     inkscape:cx="500"
     inkscape:cy="19.640884"
     inkscape:window-x="17"
     inkscape:window-y="46"
     inkscape:current-layer="svg5496">
    <sodipodi:guide
       orientation="horizontal"
       position="200"
       id="guide5596" />
  </sodipodi:namedview>
  <defs
     id="defs5498">
    <inkscape:perspective
       sodipodi:type="inkscape:persp3d"
       inkscape:vp_x="0 : 500 : 1"
       inkscape:vp_y="0 : 1000 : 0"
       inkscape:vp_z="1000 : 500 : 1"
       inkscape:persp3d-origin="500 : 333.33333 : 1"
       id="perspective2841" />
  </defs>
  <g
     id="layer1" />
  <path
     style="fill:#000000"
     d="M 214.23363,1363.8673 C 110.40898,1324.4639 18.659355,1220.1897 18.659355,1141.5955 C 18.659355,993.22095 234.18676,834.43147 463.57661,813.80299 C 628.30446,798.98952 659.62512,803.96628 509.15752,835.4196 C 368.70953,864.77701 203.99948,954.50241 127.95293,1023.7486 C 100.90541,1048.3774 56.631986,1126.0877 60.939988,1170.5111 C 124.6122,1273.1817 180.5866,1333.1366 373.91618,1346.6602 C 552.06417,1359.1185 643.54023,1323.4996 643.54023,1241.6684 C 643.54023,1170.7369 621.27611,1092.7721 478.24969,1092.7721 C 411.07219,1092.7721 296.38419,1122.4396 296.38419,1113.1027 C 296.38419,1085.1348 466.73388,1049.4113 599.93789,1049.4453 C 771.2085,1049.4879 873.91899,1098.1703 938.62286,1209.9719 C 993.08425,1304.076 1007.0772,1392.2332 967.55256,1392.2332 C 954.82348,1392.2332 944.40881,1369.0964 944.40881,1340.818 C 944.40881,1258.725 882.76477,1148.0245 802.79596,1123.7347 C 673.10336,1084.3406 778.18216,1091.7135 693.64059,1158.2582 C 672.00767,1144.3956 672.46594,1230.5399 670.13412,1263.7398 C 662.36836,1374.3077 394.93369,1432.4495 214.23363,1363.8673 z"
     id="path2585"
     sodipodi:nodetypes="csccsccsssccssccsc" />
</svg>
