<?xml version="1.0" encoding="UTF-8" standalone="no"?>
<!-- Created with Inkscape (http://www.inkscape.org/) -->
<svg
   xmlns:dc="http://purl.org/dc/elements/1.1/"
   xmlns:cc="http://creativecommons.org/ns#"
   xmlns:rdf="http://www.w3.org/1999/02/22-rdf-syntax-ns#"
   xmlns:svg="http://www.w3.org/2000/svg"
   xmlns="http://www.w3.org/2000/svg"
   xmlns:sodipodi="http://sodipodi.sourceforge.net/DTD/sodipodi-0.dtd"
   xmlns:inkscape="http://www.inkscape.org/namespaces/inkscape"
   version="1.0"
   width="1000"
   height="1000"
   id="svg5496"
   sodipodi:version="0.32"
   inkscape:version="0.46"
   sodipodi:docname="ka-gantungan.svg"
   inkscape:output_extension="org.inkscape.output.svg.inkscape">
  <metadata
     id="metadata5594">
    <rdf:RDF>
      <cc:Work
         rdf:about="">
        <dc:format>image/svg+xml</dc:format>
        <dc:type
           rdf:resource="http://purl.org/dc/dcmitype/StillImage" />
      </cc:Work>
    </rdf:RDF>
  </metadata>
  <sodipodi:namedview
     inkscape:window-height="618"
     inkscape:window-width="641"
     inkscape:pageshadow="2"
     inkscape:pageopacity="0.0"
     guidetolerance="10.0"
     gridtolerance="10.0"
     objecttolerance="10.0"
     borderopacity="1.0"
     bordercolor="#666666"
     pagecolor="#ffffff"
     id="base"
     showgrid="false"
     showguides="true"
     inkscape:guide-bbox="true"
     inkscape:zoom="0.454"
     inkscape:cx="500"
     inkscape:cy="18.156295"
     inkscape:window-x="603"
     inkscape:window-y="45"
     inkscape:current-layer="svg5496">
    <sodipodi:guide
       orientation="horizontal"
       position="200"
       id="guide5596" />
  </sodipodi:namedview>
  <defs
     id="defs5498">
    <inkscape:perspective
       sodipodi:type="inkscape:persp3d"
       inkscape:vp_x="0 : 500 : 1"
       inkscape:vp_y="0 : 1000 : 0"
       inkscape:vp_z="1000 : 500 : 1"
       inkscape:persp3d-origin="500 : 333.33333 : 1"
       id="perspective2756" />
  </defs>
  <g
     id="layer1" />
  <path
     id="path2477"
     style="fill:#000000"
     d="M 142.3576,1369.7958 C 121.26904,1312.9436 169.03404,1211.4228 221.4177,1160.5128 C 278.12786,1097.0843 270.45887,898.90451 219.44719,855.1074 C 191.39671,831.0242 172.32831,901.20898 163.56481,941.99206 C 156.40606,975.30704 134.99311,1011.4646 134.99311,1043.5845 C 134.99311,1075.7041 124.37995,1108.7693 111.40842,1117.0628 C 77.459847,1138.7681 108.11956,916.73129 147.78068,853.65395 C 206.70514,759.94045 298.2687,844.35607 298.92048,992.99486 C 299.29556,1078.5433 330.97801,1083.5873 347.01176,1000.6515 C 353.53681,966.90123 381.01165,912.66391 408.06734,880.12446 C 449.23136,830.61686 477.1363,819.47435 579.0568,811.84762 C 742.52887,799.61498 844.58155,843.61384 885.03135,943.76478 C 919.80282,1029.8573 933.24198,1396.2704 900.26048,1396.2704 C 888.22135,1396.2704 879.7317,1323.2748 879.7317,1219.7585 C 879.7317,1016.6274 886.93598,887.54512 679.06319,854.94143 C 561.66131,836.52759 420.00281,856.05341 391.57347,975.11669 C 376.50392,1038.2286 374.41374,1111.8876 421.62554,1111.8876 C 494.2961,1111.8876 654.0269,1159.9806 685.66188,1206.7046 C 722.84665,1261.6256 734.5786,1318.9625 700.55369,1354.1619 C 665.05595,1390.8848 532.25169,1407.6797 473.35674,1367.7583 C 445.7257,1349.0289 403.72676,1301.2452 380.02529,1261.5722 C 325.27098,1169.9205 276.1553,1159.6688 261.26683,1254.5821 C 254.69047,1296.506 235.64196,1355.3723 222.42228,1371.8506 C 190.71889,1411.3692 157.32756,1410.1535 142.3576,1369.7958 z M 685.56096,1311.0876 C 694.12785,1264.3139 504.82009,1144.7011 421.64126,1154.6237 L 368.78698,1186.2049 L 467.88526,1281.0971 C 530.57656,1347.6971 556.15024,1360.9409 611.41836,1355.4276 C 656.24513,1350.9556 680.96686,1336.1712 685.56096,1311.0876 z"
     sodipodi:nodetypes="ccsssssscsscssssssssssscccccsc" />
</svg>
