<?xml version="1.0" encoding="UTF-8" standalone="no"?>
<!-- Created with Inkscape (http://www.inkscape.org/) -->

<svg
   xmlns:dc="http://purl.org/dc/elements/1.1/"
   xmlns:cc="http://creativecommons.org/ns#"
   xmlns:rdf="http://www.w3.org/1999/02/22-rdf-syntax-ns#"
   xmlns:svg="http://www.w3.org/2000/svg"
   xmlns="http://www.w3.org/2000/svg"
   xmlns:sodipodi="http://sodipodi.sourceforge.net/DTD/sodipodi-0.dtd"
   xmlns:inkscape="http://www.inkscape.org/namespaces/inkscape"
   version="1.0"
   width="1000"
   height="1000"
   id="svg5496"
   sodipodi:version="0.32"
   inkscape:version="0.47 r22583"
   sodipodi:docname="New document 94"
   inkscape:output_extension="org.inkscape.output.svg.inkscape">
  <metadata
     id="metadata5594">
    <rdf:RDF>
      <cc:Work
         rdf:about="">
        <dc:format>image/svg+xml</dc:format>
        <dc:type
           rdf:resource="http://purl.org/dc/dcmitype/StillImage" />
        <dc:title></dc:title>
      </cc:Work>
    </rdf:RDF>
  </metadata>
  <sodipodi:namedview
     inkscape:window-height="706"
     inkscape:window-width="1280"
     inkscape:pageshadow="2"
     inkscape:pageopacity="0.0"
     borderopacity="1.0"
     bordercolor="#666666"
     pagecolor="#ffffff"
     id="base"
     showgrid="false"
     showguides="true"
     inkscape:guide-bbox="true"
     inkscape:zoom="0.227"
     inkscape:cx="509.75616"
     inkscape:cy="489.22659"
     inkscape:window-x="0"
     inkscape:window-y="24"
     inkscape:current-layer="svg5496"
     inkscape:window-maximized="1">
    <sodipodi:guide
       orientation="horizontal"
       position="200"
       id="guide5596" />
  </sodipodi:namedview>
  <defs
     id="defs5498">
    <inkscape:perspective
       sodipodi:type="inkscape:persp3d"
       inkscape:vp_x="0 : 500 : 1"
       inkscape:vp_y="0 : 1000 : 0"
       inkscape:vp_z="1000 : 500 : 1"
       inkscape:persp3d-origin="500 : 333.33333 : 1"
       id="perspective8930" />
    <inkscape:perspective
       id="perspective8917"
       inkscape:persp3d-origin="0.5 : 0.33333333 : 1"
       inkscape:vp_z="1 : 0.5 : 1"
       inkscape:vp_y="0 : 1000 : 0"
       inkscape:vp_x="0 : 0.5 : 1"
       sodipodi:type="inkscape:persp3d" />
    <inkscape:perspective
       sodipodi:type="inkscape:persp3d"
       inkscape:vp_x="0 : 0.5 : 1"
       inkscape:vp_y="0 : 1000 : 0"
       inkscape:vp_z="1 : 0.5 : 1"
       inkscape:persp3d-origin="0.5 : 0.33333333 : 1"
       id="perspective4271" />
    <inkscape:perspective
       sodipodi:type="inkscape:persp3d"
       inkscape:vp_x="0 : 0.5 : 1"
       inkscape:vp_y="0 : 1000 : 0"
       inkscape:vp_z="1 : 0.5 : 1"
       inkscape:persp3d-origin="0.5 : 0.33333333 : 1"
       id="perspective3447" />
    <inkscape:perspective
       sodipodi:type="inkscape:persp3d"
       inkscape:vp_x="0 : 500 : 1"
       inkscape:vp_y="0 : 1000 : 0"
       inkscape:vp_z="1000 : 500 : 1"
       inkscape:persp3d-origin="500 : 333.33333 : 1"
       id="perspective2703" />
    <inkscape:perspective
       sodipodi:type="inkscape:persp3d"
       inkscape:vp_x="0 : 500 : 1"
       inkscape:vp_y="0 : 1000 : 0"
       inkscape:vp_z="1000 : 500 : 1"
       inkscape:persp3d-origin="500 : 333.33333 : 1"
       id="perspective2654" />
    <inkscape:perspective
       sodipodi:type="inkscape:persp3d"
       inkscape:vp_x="0 : 500 : 1"
       inkscape:vp_y="0 : 1000 : 0"
       inkscape:vp_z="1000 : 500 : 1"
       inkscape:persp3d-origin="500 : 333.33333 : 1"
       id="perspective2625" />
    <inkscape:perspective
       sodipodi:type="inkscape:persp3d"
       inkscape:vp_x="0 : 0.5 : 1"
       inkscape:vp_y="0 : 1000 : 0"
       inkscape:vp_z="1 : 0.5 : 1"
       inkscape:persp3d-origin="0.5 : 0.33333333 : 1"
       id="perspective3016" />
    <inkscape:perspective
       sodipodi:type="inkscape:persp3d"
       inkscape:vp_x="0 : 500 : 1"
       inkscape:vp_y="0 : 1000 : 0"
       inkscape:vp_z="700 : 500 : 1"
       inkscape:persp3d-origin="350 : 333.33333 : 1"
       id="perspective2887" />
    <inkscape:perspective
       id="perspective2822"
       inkscape:persp3d-origin="500 : 333.33333 : 1"
       inkscape:vp_z="1000 : 500 : 1"
       inkscape:vp_y="0 : 1000 : 0"
       inkscape:vp_x="0 : 500 : 1"
       sodipodi:type="inkscape:persp3d" />
  </defs>
  <g
     id="layer1" />
  <path
     id="path8781"
     style="fill:#000000"
     d="m 151.08993,727.74086 c 11.25827,-18.21633 16.67234,-40.16715 19.05184,-77.24465 1.91251,-29.80085 20.97788,-120.86167 18.78819,-117.87598 -45.93087,62.62788 -121.519869,125.42982 -104.739927,211.79079 1.49664,4.82779 13.622652,8.77781 26.946717,8.77781 20.26921,0 26.79399,-4.1559 39.95318,-25.44797 z m 478.71944,13.12627 C 688.00282,666.97025 593.4326,596.70636 530.29751,554.65974 466.85255,523.23143 302.0102,504.27813 302.0102,523.80235 c 0,19.36566 30.58578,137.49576 64.4211,171.21578 59.403,59.20072 92.20596,72.33435 175.31088,70.19067 48.3648,-1.24751 79.16355,-12.55582 88.06719,-24.34167 z M 470.06414,796.22554 C 430.4927,785.87511 396.8165,765.87121 364.41362,733.46834 333.49214,702.54688 282.97586,582.01657 267.772,542.02744 c -6.34206,-16.68091 -9.6765,-18.23774 -29.92429,-13.97166 -12.5328,2.64064 -25.41778,7.25714 -28.63326,10.25886 -3.21556,3.00173 -7.96367,81.3144 -13.24355,117.49361 -14.27425,97.81104 -20.73359,115.12999 -47.71465,127.93336 -13.18664,6.25745 -30.47224,9.11163 -40.25226,6.64641 -17.790845,-4.48454 -55.356677,-30.09522 -44.421293,-30.28447 3.417516,-0.0562 1.919604,-2.82834 -3.328824,-6.15373 -13.567381,-8.59642 -18.011413,-62.5327 -8.721408,-105.85051 9.63276,-44.91608 52.637105,-108.0779 92.953615,-136.52402 l 28.93121,-20.41295 c 10.38133,-87.75338 13.77555,-179.30481 -59.34022,-242.04868 -54.828595,0 -75.499026,97.31905 -88.897038,194.30335 -11.677704,84.53106 -22.0949155,78.62747 -22.0949155,-12.52157 0,-146.24104 39.2119075,-225.44138 111.6155635,-225.44138 49.1599,0 75.49653,56.05728 85.44242,181.86346 3.48029,44.02257 7.33494,81.04817 8.56594,82.27911 1.23099,1.23099 11.55931,-0.25281 22.9519,-3.29716 19.13,-5.11219 21.10542,-8.71854 25.83658,-47.16797 4.59086,-37.30909 20.79384,-85.7603 35.05805,-104.83271 56.39185,-75.40068 108.50257,-102.1578 219.65713,-112.7868 62.68668,-5.99439 142.12285,6.20949 195.06337,29.96776 55.46412,24.89082 89.39544,64.52477 104.69844,122.29464 18.34752,69.26331 19.21164,75.30341 26.65464,186.31969 11.61588,173.25525 13.19412,198.7661 32.41896,211.36274 12.34824,8.0909 20.5452,9.22056 30.03852,4.1399 11.17848,-5.98253 13.7688,-35.39347 18.01152,-109.25346 10.7904,-187.84578 23.97936,-273.72019 48.77364,-317.57002 13.332,-23.57837 55.20301,-67.08648 78.29941,-81.36088 50.8189,-31.4078 115.6165,-35.20293 208.5866,-44.93138 43.9539,-4.59936 79.5907,14.06615 117.3131,17.08616 19.1685,1.53461 83.142,33.37778 110.2343,57.38337 61.9481,54.89026 86.5246,95.02847 103.754,169.45102 13.9007,60.04374 13.8826,84.17075 -0.1104,147.40069 -25.666,115.97069 -113.5414,193.8203 -231.4422,205.03678 -56.116,5.33867 -101.462,-8.2382 -101.462,-30.37835 0,-11.35861 7.2383,-12.59249 71.9779,-12.26947 59.0629,0.29494 77.8023,-2.3205 104.4376,-14.57494 80.5987,-37.08179 124.7415,-105.1952 130.7671,-201.77664 3.1136,-49.90832 1.5258,-61.60723 -11.9461,-88.01444 -41.0844,-80.53183 -132.4903,-203.97077 -286.2189,-203.97077 -80.7326,0 -187.5959,16.61779 -187.5959,29.17214 -93.98544,76.27827 -112.20815,230.50896 -112.68355,342.55862 -0.14112,113.95271 -1.74336,132.42317 -12.91344,148.87831 -24.82932,36.57682 -92.74368,41.80291 -110.5626,8.50787 C 793.26095,668.95739 826.59678,539.92467 792.41955,423.14352 727.00029,239.32243 586.80506,231.38379 410.26567,254.3534 354.15949,268.78333 287.92732,387.19435 282.92397,437.18778 l -2.45975,24.57785 35.1112,1.71315 c 66.21324,3.23058 147.48936,16.67059 186.0894,30.77216 91.15341,22.03153 242.48095,169.67487 154.19905,265.16978 -11.74632,11.74638 -33.07633,24.85922 -47.40013,29.13969 -34.41516,10.28457 -111.96372,14.57937 -138.399,7.66492 l -6e-4,2.1e-4 z"
     sodipodi:nodetypes="csscscccsssccssssssscsscccssssssssssssssssssssscsscssssccsccccccccscc" />
</svg>
