<?xml version="1.0" encoding="UTF-8" standalone="no"?>
<!-- Created with Inkscape (http://www.inkscape.org/) -->

<svg
   xmlns:dc="http://purl.org/dc/elements/1.1/"
   xmlns:cc="http://creativecommons.org/ns#"
   xmlns:rdf="http://www.w3.org/1999/02/22-rdf-syntax-ns#"
   xmlns:svg="http://www.w3.org/2000/svg"
   xmlns="http://www.w3.org/2000/svg"
   xmlns:sodipodi="http://sodipodi.sourceforge.net/DTD/sodipodi-0.dtd"
   xmlns:inkscape="http://www.inkscape.org/namespaces/inkscape"
   version="1.0"
   width="1000"
   height="1000"
   id="svg5496"
   sodipodi:version="0.32"
   inkscape:version="0.47 r22583"
   sodipodi:docname="ka.svg"
   inkscape:output_extension="org.inkscape.output.svg.inkscape">
  <metadata
     id="metadata5594">
    <rdf:RDF>
      <cc:Work
         rdf:about="">
        <dc:format>image/svg+xml</dc:format>
        <dc:type
           rdf:resource="http://purl.org/dc/dcmitype/StillImage" />
        <dc:title></dc:title>
      </cc:Work>
    </rdf:RDF>
  </metadata>
  <sodipodi:namedview
     inkscape:window-height="706"
     inkscape:window-width="1280"
     inkscape:pageshadow="2"
     inkscape:pageopacity="0.0"
     borderopacity="1.0"
     bordercolor="#666666"
     pagecolor="#ffffff"
     id="base"
     showgrid="false"
     showguides="true"
     inkscape:guide-bbox="true"
     inkscape:zoom="0.454"
     inkscape:cx="500"
     inkscape:cy="500"
     inkscape:window-x="0"
     inkscape:window-y="24"
     inkscape:current-layer="g2890"
     inkscape:window-maximized="1">
    <sodipodi:guide
       orientation="horizontal"
       position="200"
       id="guide5596" />
  </sodipodi:namedview>
  <defs
     id="defs5498">
    <inkscape:perspective
       sodipodi:type="inkscape:persp3d"
       inkscape:vp_x="0 : 500 : 1"
       inkscape:vp_y="0 : 1000 : 0"
       inkscape:vp_z="1000 : 500 : 1"
       inkscape:persp3d-origin="500 : 333.33333 : 1"
       id="perspective2822" />
    <inkscape:perspective
       id="perspective2887"
       inkscape:persp3d-origin="350 : 333.33333 : 1"
       inkscape:vp_z="700 : 500 : 1"
       inkscape:vp_y="0 : 1000 : 0"
       inkscape:vp_x="0 : 500 : 1"
       sodipodi:type="inkscape:persp3d" />
    <inkscape:perspective
       id="perspective3016"
       inkscape:persp3d-origin="0.5 : 0.33333333 : 1"
       inkscape:vp_z="1 : 0.5 : 1"
       inkscape:vp_y="0 : 1000 : 0"
       inkscape:vp_x="0 : 0.5 : 1"
       sodipodi:type="inkscape:persp3d" />
    <inkscape:perspective
       id="perspective2625"
       inkscape:persp3d-origin="500 : 333.33333 : 1"
       inkscape:vp_z="1000 : 500 : 1"
       inkscape:vp_y="0 : 1000 : 0"
       inkscape:vp_x="0 : 500 : 1"
       sodipodi:type="inkscape:persp3d" />
    <inkscape:perspective
       id="perspective2654"
       inkscape:persp3d-origin="500 : 333.33333 : 1"
       inkscape:vp_z="1000 : 500 : 1"
       inkscape:vp_y="0 : 1000 : 0"
       inkscape:vp_x="0 : 500 : 1"
       sodipodi:type="inkscape:persp3d" />
    <inkscape:perspective
       id="perspective2703"
       inkscape:persp3d-origin="500 : 333.33333 : 1"
       inkscape:vp_z="1000 : 500 : 1"
       inkscape:vp_y="0 : 1000 : 0"
       inkscape:vp_x="0 : 500 : 1"
       sodipodi:type="inkscape:persp3d" />
    <inkscape:perspective
       id="perspective3447"
       inkscape:persp3d-origin="0.5 : 0.33333333 : 1"
       inkscape:vp_z="1 : 0.5 : 1"
       inkscape:vp_y="0 : 1000 : 0"
       inkscape:vp_x="0 : 0.5 : 1"
       sodipodi:type="inkscape:persp3d" />
    <inkscape:perspective
       id="perspective4271"
       inkscape:persp3d-origin="0.5 : 0.33333333 : 1"
       inkscape:vp_z="1 : 0.5 : 1"
       inkscape:vp_y="0 : 1000 : 0"
       inkscape:vp_x="0 : 0.5 : 1"
       sodipodi:type="inkscape:persp3d" />
  </defs>
  <g
     id="layer1" />
  <g
     id="g2890"
     transform="matrix(1.8357927,0,0,1.8357927,-1.5860185,-143.69943)">
    <g
       id="layer1-4" />
    <path
       id="path4065-7"
       style="fill:#000000"
       d="m 73.82338,485.69053 c 7.794978,-9.35829 11.538957,-25.91681 13.913728,-61.53614 l 5.389936,-57.21888 c -35.202633,28.56882 -47.471575,58.68638 -52.892706,103.68288 0,19.10828 22.003197,28.98153 33.589042,15.07214 z m 232.45437,2.69743 c 15.97625,-9.28975 20.78088,-64.31743 1.57776,-82.63618 -24.39736,-23.27382 -79.78896,-45.09006 -129.58551,-51.0379 -18.61012,-2.22284 -19.12947,23.32537 -19.12947,29.58013 0,9.95991 8.63621,43.02809 26.35686,61.74118 34.45883,36.38877 64.14427,51.19965 95.76474,47.77979 10.59618,-1.14596 21.85324,-3.58818 25.01562,-5.42702 z M 43.471774,508.84747 c -56.983353,-51.97483 9.224177,-133.83457 49.477513,-171.81856 -0.327419,-35.4329 2.702626,-82.50065 -19.775543,-111.39468 -14.16757,-9.38476 -25.781229,-8.98952 -34.571573,1.1767 -9.017552,10.42883 -22.97641,61.36116 -25.774882,84.2888 -3.6472802,29.88141 -5.3552355,36.92789 -8.9506323,36.92789 -4.76513532,0 -1.1027593,-61.91486 5.5282419,-93.45918 8.7891544,-41.81076 23.7549554,-62.87673 47.6638984,-67.09218 24.580762,-4.33388 36.299244,23.38449 42.189545,99.79344 l 3.586368,46.52251 8.35298,-2.00264 c 4.59409,-1.10153 10.57294,-2.64009 13.28631,-3.41909 3.39339,-0.9742 6.15139,-9.73377 8.83534,-28.0615 9.791,-66.8594 45.74966,-101.68146 114.78266,-111.15456 48.48668,-6.65363 92.93565,1.31998 125.60837,22.53259 21.20274,13.76578 35.9456,37.95271 41.75156,68.49701 2.12843,11.19736 2.77953,60.25683 4.37974,100.22218 3.638,90.86016 8.2783,106.13305 30.4117,100.09751 10.04001,-2.73786 13.75496,-14.30443 17.51155,-57.38015 5.51966,-63.2936 -4.07744,-155.3927 -22.29984,-213.99986 -3.60335,-11.58932 -6.00498,-21.66526 -5.33698,-22.39105 0.66801,-0.72579 10.18978,0.39776 21.15946,2.49738 40.51713,7.7542 62.4782,31.575 72.9776,79.15752 4.40773,19.97522 5.84575,47.6347 7.02084,135.03897 l 1.47777,109.91845 -7.65031,6.5e-4 -7.6504,5.8e-4 0,-90.5734 c 0,-84.81751 -5.99707,-123.41271 -13.00037,-147.63309 -8.28907,-28.66628 -24.82094,-51.36405 -40.27287,-55.29332 -14.21406,21.80899 -0.0328,80.01697 3.40322,105.84771 7.27943,52.26774 7.15891,126.20519 -0.25026,153.35055 -2.7458,30.52776 -47.6231,46.79854 -59.95163,17.3268 C 389.04092,306.29157 428.74169,238.37628 292.67566,208.87698 202.4759,203.56845 181.05809,248.6319 181.20187,248.29511 l -30.50833,71.46279 22.98751,6.40777 c 7.26785,2.02591 14.87,2.02108 22.10175,3.37999 67.1949,12.62648 121.79803,44.82316 138.89361,83.1922 9.09132,20.40442 9.12208,55.68347 0.0625,71.82796 -9.60379,17.11454 -31.27678,26.58119 -61.41218,26.82443 -34.91623,0.28153 -60.58679,-13.4455 -93.96087,-50.2458 -21.96427,-24.21921 -29.22848,-60.18396 -44.57387,-97.27895 -4.33772,-10.48573 -30.35835,-7.21343 -31.50518,4.215 -8.689558,42.92426 10.77898,107.419 -24.818633,138.13953 -12.254692,8.11767 -23.34951,8.95059 -34.996867,2.62744 l 4.74e-4,0 -10e-6,0 z"
       sodipodi:nodetypes="ccccccsssssscccssssscccsssssssccscccccccccccccscsssscssccccc" />
  </g>
</svg>
