<?xml version="1.0" encoding="UTF-8" standalone="no"?>
<!-- Created with Inkscape (http://www.inkscape.org/) -->
<svg
   xmlns:dc="http://purl.org/dc/elements/1.1/"
   xmlns:cc="http://creativecommons.org/ns#"
   xmlns:rdf="http://www.w3.org/1999/02/22-rdf-syntax-ns#"
   xmlns:svg="http://www.w3.org/2000/svg"
   xmlns="http://www.w3.org/2000/svg"
   xmlns:sodipodi="http://sodipodi.sourceforge.net/DTD/sodipodi-0.dtd"
   xmlns:inkscape="http://www.inkscape.org/namespaces/inkscape"
   width="9320"
   height="12600"
   id="svg2"
   sodipodi:version="0.32"
   inkscape:version="0.46"
   version="1.0"
   sodipodi:docname="la-lenga-tedung.svg"
   inkscape:output_extension="org.inkscape.output.svg.inkscape">
  <defs
     id="defs4">
    <inkscape:perspective
       sodipodi:type="inkscape:persp3d"
       inkscape:vp_x="0 : 526.18109 : 1"
       inkscape:vp_y="0 : 1000 : 0"
       inkscape:vp_z="744.09448 : 526.18109 : 1"
       inkscape:persp3d-origin="372.04724 : 350.78739 : 1"
       id="perspective10" />
  </defs>
  <sodipodi:namedview
     id="base"
     pagecolor="#ffffff"
     bordercolor="#666666"
     borderopacity="1.0"
     gridtolerance="10000"
     guidetolerance="10"
     objecttolerance="10"
     inkscape:pageopacity="0.0"
     inkscape:pageshadow="2"
     inkscape:zoom="0.04"
     inkscape:cx="780.56095"
     inkscape:cy="7610.7873"
     inkscape:document-units="px"
     inkscape:current-layer="layer1"
     showgrid="false"
     showguides="true"
     inkscape:snap-guide="false"
     inkscape:window-width="1280"
     inkscape:window-height="727"
     inkscape:window-x="0"
     inkscape:window-y="25">
    <inkscape:grid
       type="xygrid"
       id="grid4173"
       visible="true"
       enabled="true" />
  </sodipodi:namedview>
  <metadata
     id="metadata7">
    <rdf:RDF>
      <cc:Work
         rdf:about="">
        <dc:format>image/svg+xml</dc:format>
        <dc:type
           rdf:resource="http://purl.org/dc/dcmitype/StillImage" />
      </cc:Work>
    </rdf:RDF>
  </metadata>
  <g
     inkscape:label="Layer 1"
     inkscape:groupmode="layer"
     id="layer1">
    <path
       id="path9196"
       style="fill:#000000"
       d="M 4694.4826,12847.162 C 5155.8485,12359.707 5208.3706,11445.485 4802.6767,10964.104 C 4647.9713,10780.537 3860.2936,10245.351 3052.2881,9774.8014 C 1455.884,8845.1109 1037.8579,8433.6305 863.3015,7620.0808 C 701.67592,6866.7743 1291.9961,6138.4038 2391.8348,5734.0671 C 3547.3785,5309.2502 4399.622,5419.0246 5984.2486,6196.7833 C 7607.9673,6993.7223 8010.8111,7097.3831 8167.2909,6758.4986 C 8522.1081,5038.4583 9416.6441,1155.0197 6988.3568,531.4848 C 6547.9843,521.1139 6018.0064,1136.9853 5677.4329,1346.2499 L 5138.4482,1677.4356 L 4758.3389,1361.5286 C 2551.8751,-727.1662 1833.3328,2655.2129 2787.7142,4395.6156 C 2976.6986,4700.7315 1818.8816,4468.3703 1395.0333,4116.1179 C 958.57552,3753.3757 920.82519,3616.604 953.23023,2515.3026 C 972.71524,1853.0028 979.91265,1223.2743 969.21092,1115.9026 C 860.56389,78.0093 397.42208,904.15639 302.95753,1272.0761 C 253.32981,1465.3482 176.96412,1764.0338 133.25856,1935.8269 C 89.541851,2107.628 43.973028,1909.7332 31.984724,1496.0723 C 6.1229277,603.89302 259.51802,139.78908 772.4966,139.78908 C 1386.006,139.78908 1599.7989,762.80187 1349.3424,1820.8118 C 1097.7106,2883.8171 1222.9276,3606.2252 1724.162,3983.2233 C 2182.1009,4327.65 2326.8142,4199.2591 2082.535,3665.2708 C 1526.7712,2450.3975 2188.3667,373.98181 3225.3695,78.483708 C 4037.0127,-152.79919 4698.2534,82.019838 5016.1923,714.42041 L 5299.4971,1277.9276 L 5661.6074,783.05988 C 6368.2394,-182.64323 7743.5423,-271.58829 8363.3286,608.32519 C 8706.8522,1096.0252 8748.1403,1415.8646 8746.3437,3575.6913 C 8745.2457,4907.1021 8683.9292,6224.8434 8610.1032,6504.0082 C 8492.8708,6947.2912 8524.4552,7011.5858 8859.3617,7011.5858 C 9070.2823,7011.5858 9406.4198,6938.8311 9606.339,6849.9097 C 9825.688,6752.3459 9969.8135,6747.224 9969.8135,6836.9937 C 9969.8135,6918.811 9605.1191,7101.5061 9159.3792,7242.9797 C 8365.9237,7494.8219 8332.2323,7535.4728 7550.3769,9184.1699 C 6659.5069,11062.778 5073.1948,13258.666 4606.9715,13258.666 C 4351.7799,13258.666 4365.3318,13194.934 4694.4826,12847.162 z M 7091.1071,9459.4892 C 8022.0009,7711.2381 8009.325,7491.7851 6963.1397,7243.4474 C 6498.0367,7133.0468 5547.2079,6488.1598 4697.393,6207.5994 C 3270.1556,5736.4072 2968.8692,6037.0341 2261.7492,6213.1008 C 648.73226,6614.7496 822.64564,7965.0865 2641.0268,9157.9651 C 5015.7598,10715.814 5070.3114,10762.42 5281.3983,11413.92 L 5490.1672,12058.286 L 5965.2292,11370.019 C 6226.5093,10991.467 6733.1555,10131.732 7091.1071,9459.4892 z"
       sodipodi:nodetypes="ccccccccccccccccccsccccccccccscsccscccccccccc" />
    <path
       style="fill:#000000"
       d="M 9526.343,9463.09 C 9269.174,9407.656 9042.624,9247.318 8939.8201,9047.986 C 8835.0393,8844.822 8850.9154,8493.022 8964.8637,8493.022 C 9003.897,8493.022 9099.162,8594.261 9176.565,8717.996 C 9322.539,8951.349 9490.277,9049.207 9744.287,9049.207 C 10012.619,9049.207 10182.628,8970.369 10320.755,8781.885 C 10448.55,8607.503 10448.798,8584.877 10324.796,8415.67 C 10155.581,8184.7633 9985.291,8106.8153 9512.827,8044.004 C 9020.327,7978.5297 9023.491,7898.3912 9521.174,7832.5363 C 9988.876,7770.6489 10119.26,7689.4855 10119.26,7460.22 C 10119.26,7240.8285 9970.716,7174.9973 9475.252,7174.8058 C 9099.221,7174.6604 9092.019,7172.2505 9091.779,7046.4861 C 9091.57,6937.1487 9142.247,6904.2946 9436.659,6822.9004 C 9749.552,6736.3979 9805.807,6732.6703 10038.929,6782.9929 C 10435.331,6868.5605 10592.952,7040.3781 10593.297,7387.2893 C 10593.577,7666.8388 10580.708,7687.9684 10348.067,7789.9851 C 10113.71,7892.7518 10108.351,7901.8231 10230.325,7989.3422 C 10773.607,8379.164 10783.023,8392.617 10780.116,8774.854 C 10778.591,8975.18 10742.302,9151.305 10699.467,9166.243 C 10656.633,9181.181 10598.693,9225.741 10570.72,9265.266 C 10506.309,9356.252 10050.787,9502.866 9842.561,9499.63 C 9755.605,9498.278 9613.305,9481.835 9526.343,9463.09 z"
       id="path9500" />
  </g>
</svg>
