<?xml version="1.0" encoding="UTF-8" standalone="no"?>
<!-- Created with Inkscape (http://www.inkscape.org/) -->

<svg
   xmlns:svg="http://www.w3.org/2000/svg"
   xmlns="http://www.w3.org/2000/svg"
   version="1.0"
   width="1000"
   height="1000"
   id="svg5496">
  <defs
     id="defs5498" />
  <g
     id="layer1" />
  <g
     transform="matrix(1.8357927,0,0,1.8357927,-1.5860185,-143.69943)"
     id="g2890">
    <g
       id="layer1-4" />
    <path
       d="m 91.938504,476.48697 c 6.046665,-7.76606 5.160728,-16.71517 9.105346,-43.14657 4.57423,-30.65023 10.41087,-70.86769 7.71017,-70.86769 -8.16169,0 -29.878066,22.01874 -39.048752,39.59235 -10.408095,19.94495 -21.451826,63.31351 -15.966782,77.09001 3.182082,7.99223 5.510856,9.09925 17.153622,8.15419 9.619896,-0.78091 15.637412,-3.87516 21.046396,-10.82229 z m 264.294716,9.69644 c 10.79475,-9.32875 16.04896,-56.5881 4.14987,-70.09196 -19.14093,-21.72236 -90.26805,-45.80926 -152.58832,-51.67329 l -33.15717,-0.1237 c -0.0222,70.45897 63.02417,108.06841 124.04356,127.27815 22.28472,4.48728 49.02047,1.9837 57.55206,-5.38926 l 0,6e-5 z M 49.643654,507.35 C 25.776713,494.96325 22.783216,444.77413 43.551369,405.20576 54.211648,384.89537 74.49392,362.15171 91.568093,351.36179 l 14.800987,-9.35329 c -3.1654,-43.54385 6.92798,-153.44358 -59.793081,-121.72489 -11.936798,15.41649 -18.492263,56.08059 -25.655732,96.84554 -4.831627,27.4953 -7.567373,35.45351 -12.4993522,36.36053 -5.646567,1.03841 -6.3116197,-2.86788 -6.2925246,-36.96045 0.025832,-46.94588 4.6861502,-75.52235 15.6249528,-95.82047 10.13689,-18.80994 22.264877,-27.98068 42.842482,-32.39572 35.835781,-7.68882 50.753695,16.34531 57.488225,92.61881 2.34613,26.57189 5.15836,49.16492 6.24949,50.20682 1.09107,1.04193 7.04495,0.20958 13.23085,-1.84965 10.63687,-3.54091 11.47366,-5.21391 15.42297,-30.83491 10.17216,-65.99174 46.9175,-98.91776 123.06888,-110.27693 32.65386,-4.87086 93.68373,-2.07244 119.42485,5.47599 94.50509,30.80092 93.84074,129.04683 96.32469,212.43317 l -0.52354,95.63526 c -0.0275,5.03001 -1.01112,10.83424 -6.14594,10.83456 -5.13407,3.2e-4 -10.50173,-5.80232 -10.50364,-10.83171 -0.0475,-124.86419 33.97384,-265.14728 -117.64563,-290.89712 -29.68259,-2.96784 -50.13032,-3.01476 -77.44073,-0.1775 -70.27023,7.29999 -103.12254,64.15613 -111.5788,99.96009 l -2.65351,11.23488 22.59453,2.28458 c 76.09095,7.6938 144.18756,32.02614 180.74123,64.58272 31.65694,28.19524 37.13281,83.33742 10.62211,106.96504 -24.73478,22.04483 -74.68961,22.58931 -121.57934,1.32516 -37.02923,-16.79246 -77.34868,-54.62927 -93.64036,-87.87457 -9.53182,-11.39136 -15.43464,-40.7867 -30.0839,-45.97147 -13.28402,3.52286 -13.83159,30.66183 -13.83159,45.42757 0,20.99811 -9.34122,65.99262 -16.41086,79.04768 -12.911674,23.84288 -32.426061,30.95796 -54.082156,19.71861 l 0,-1.2e-4 z"
       id="path4408"
       style="fill:#000000" />
  </g>
</svg>
