<?xml version="1.0" encoding="UTF-8" standalone="no"?>
<!-- Created with Inkscape (http://www.inkscape.org/) -->
<svg
   xmlns:dc="http://purl.org/dc/elements/1.1/"
   xmlns:cc="http://creativecommons.org/ns#"
   xmlns:rdf="http://www.w3.org/1999/02/22-rdf-syntax-ns#"
   xmlns:svg="http://www.w3.org/2000/svg"
   xmlns="http://www.w3.org/2000/svg"
   xmlns:sodipodi="http://sodipodi.sourceforge.net/DTD/sodipodi-0.dtd"
   xmlns:inkscape="http://www.inkscape.org/namespaces/inkscape"
   version="1.0"
   width="1000"
   height="1000"
   id="svg5496"
   sodipodi:version="0.32"
   inkscape:version="0.46"
   sodipodi:docname="nya-gantungan.svg"
   inkscape:output_extension="org.inkscape.output.svg.inkscape">
  <metadata
     id="metadata5594">
    <rdf:RDF>
      <cc:Work
         rdf:about="">
        <dc:format>image/svg+xml</dc:format>
        <dc:type
           rdf:resource="http://purl.org/dc/dcmitype/StillImage" />
      </cc:Work>
    </rdf:RDF>
  </metadata>
  <sodipodi:namedview
     inkscape:window-height="618"
     inkscape:window-width="641"
     inkscape:pageshadow="2"
     inkscape:pageopacity="0.0"
     guidetolerance="10.0"
     gridtolerance="10.0"
     objecttolerance="10.0"
     borderopacity="1.0"
     bordercolor="#666666"
     pagecolor="#ffffff"
     id="base"
     showgrid="false"
     showguides="true"
     inkscape:guide-bbox="true"
     inkscape:zoom="0.454"
     inkscape:cx="699.03201"
     inkscape:cy="147.57709"
     inkscape:window-x="617"
     inkscape:window-y="67"
     inkscape:current-layer="svg5496">
    <sodipodi:guide
       orientation="horizontal"
       position="200"
       id="guide5596" />
  </sodipodi:namedview>
  <defs
     id="defs5498">
    <inkscape:perspective
       sodipodi:type="inkscape:persp3d"
       inkscape:vp_x="0 : 500 : 1"
       inkscape:vp_y="0 : 1000 : 0"
       inkscape:vp_z="1000 : 500 : 1"
       inkscape:persp3d-origin="500 : 333.33333 : 1"
       id="perspective2899" />
  </defs>
  <g
     id="layer1" />
  <path
     style="fill:#000000"
     d="M 1355.346,1346.0837 C 1273.0382,1333.6023 1306.8434,1320.5998 1402.9294,1320.5998 C 1594.2105,1320.5998 1664.634,1119.45 1553.1484,1003.7785 C 1459.5054,900.75299 1417.9447,839.08386 1276.3896,850.22859 C 1137.1519,861.19082 1085.6994,994.98421 1036.1202,1151.6825 C 998.07229,1271.9365 928.15218,1341.8071 845.86144,1341.8071 L 796.88448,1341.8071 L 839.80543,1286.6911 C 923.58528,1179.1075 872.65318,905.72311 791.7141,847.46319 C 734.21276,806.07364 674.89248,927.8058 620.49732,976.32114 L 573.16897,1018.5338 L 475.76425,872.79691 C 390.46053,796.71397 309.76687,925.19516 272.03997,1027.9421 C 240.85943,1112.8597 219.79962,1151.0556 276.0822,1251.5516 L 326.62944,1341.8071 L 275.15259,1341.8071 C 246.84023,1341.8071 201.08892,1320.3631 173.48267,1294.1539 C 128.57078,1251.5151 123.2894,1230.1864 123.2894,1091.4505 C 123.2894,998.63098 110.58753,858.35881 96.977237,850.37277 C 68.376347,833.59113 42.216597,949.3018 41.806187,1008.0577 C 41.610697,1036.0427 32.923727,1047.8573 18.685037,1039.5025 C -10.155923,1022.58 6.5272473,867.32956 41.483907,827.34113 C 78.166677,785.3777 138.74399,791.51318 154.5497,838.79261 C 162.01177,861.11351 161.66207,948.6058 153.77284,1033.2199 C 142.04835,1158.9662 145.51038,1195.8763 172.7285,1235.3141 C 217.09992,1299.6064 250.99385,1298.6025 225.02864,1233.7651 C 195.92982,1161.1025 200.65459,1001.1727 234.14831,925.06742 C 265.38038,854.1013 355.22788,798.20914 438.07504,798.20914 C 493.92146,798.20914 520.53908,864.34648 552.71991,915.27731 C 579.15163,957.10933 563.65526,943.85922 599.363,893.55389 C 652.85431,818.1951 727.04456,786.81183 806.78449,805.81233 C 917.78982,832.26303 982.08374,1094.0439 910.05353,1226.2859 C 879.58256,1282.2284 887.817,1297.3992 933.07876,1268.7066 C 967.63933,1246.7976 994.70634,1187.0479 1023.0903,1070.0081 C 1059.6714,919.16803 1092.7905,866.30662 1173.494,829.94827 C 1373.5419,739.82342 1588.2924,837.87004 1636.6437,1041.4046 C 1677.7082,1214.2654 1531.3626,1372.7753 1355.346,1346.0837 z"
     id="path2476"
     sodipodi:nodetypes="cscsccccscccccccsssssssssssssscssccsc" />
</svg>
