<?xml version="1.0" encoding="UTF-8" standalone="no"?>
<!-- Created with Inkscape (http://www.inkscape.org/) -->
<svg
   xmlns:dc="http://purl.org/dc/elements/1.1/"
   xmlns:cc="http://creativecommons.org/ns#"
   xmlns:rdf="http://www.w3.org/1999/02/22-rdf-syntax-ns#"
   xmlns:svg="http://www.w3.org/2000/svg"
   xmlns="http://www.w3.org/2000/svg"
   xmlns:sodipodi="http://sodipodi.sourceforge.net/DTD/sodipodi-0.dtd"
   xmlns:inkscape="http://www.inkscape.org/namespaces/inkscape"
   width="9320"
   height="12600"
   id="svg2"
   sodipodi:version="0.32"
   inkscape:version="0.46"
   version="1.0"
   sodipodi:docname="pa-kapal.svg"
   inkscape:output_extension="org.inkscape.output.svg.inkscape">
  <defs
     id="defs4">
    <inkscape:perspective
       sodipodi:type="inkscape:persp3d"
       inkscape:vp_x="0 : 526.18109 : 1"
       inkscape:vp_y="0 : 1000 : 0"
       inkscape:vp_z="744.09448 : 526.18109 : 1"
       inkscape:persp3d-origin="372.04724 : 350.78739 : 1"
       id="perspective10" />
  </defs>
  <sodipodi:namedview
     id="base"
     pagecolor="#ffffff"
     bordercolor="#666666"
     borderopacity="1.0"
     gridtolerance="10000"
     guidetolerance="10"
     objecttolerance="10"
     inkscape:pageopacity="0.0"
     inkscape:pageshadow="2"
     inkscape:zoom="0.04"
     inkscape:cx="780.56095"
     inkscape:cy="7995.6874"
     inkscape:document-units="px"
     inkscape:current-layer="layer1"
     showgrid="false"
     showguides="true"
     inkscape:snap-guide="false"
     inkscape:window-width="1280"
     inkscape:window-height="727"
     inkscape:window-x="0"
     inkscape:window-y="25">
    <inkscape:grid
       type="xygrid"
       id="grid4173"
       visible="true"
       enabled="true" />
  </sodipodi:namedview>
  <metadata
     id="metadata7">
    <rdf:RDF>
      <cc:Work
         rdf:about="">
        <dc:format>image/svg+xml</dc:format>
        <dc:type
           rdf:resource="http://purl.org/dc/dcmitype/StillImage" />
      </cc:Work>
    </rdf:RDF>
  </metadata>
  <g
     inkscape:label="Layer 1"
     inkscape:groupmode="layer"
     id="layer1">
    <path
       style="fill:#000000"
       d="M 4267.4855,6343.4757 C 4261.7399,6342.0283 4258.4879,6340.0442 4254.3457,6335.4593 C 4247.4634,6327.8415 4245.8692,6320.4201 4247.7114,6304.5747 C 4248.3583,6299.0101 4248.6054,6293.568 4248.2604,6292.4811 C 4247.5164,6290.1369 4244.021,6289.8648 4241.2091,6291.9322 C 4239.5137,6293.1788 4239.2974,6294.4446 4239.5003,6301.9322 C 4239.6838,6308.7014 4239.4398,6310.505 4238.3407,6310.505 C 4235.995,6310.505 4234.3518,6297.8266 4235.796,6290.8702 C 4237.7652,6281.3844 4244.4966,6276.8249 4250.4133,6280.9692 C 4253.4122,6283.0697 4253.9367,6287.4473 4252.2473,6296.2759 C 4250.5086,6305.3625 4250.3401,6314.2424 4251.8316,6318.1899 C 4253.5064,6322.6227 4257.6681,6326.3111 4262.9886,6328.0783 C 4268.5272,6329.9179 4282.3121,6330.2011 4287.6663,6328.5852 C 4295.7441,6326.1473 4302.1403,6318.8738 4303.3602,6310.7385 C 4304.2861,6304.5641 4303.292,6290.7119 4301.6344,6286.6895 C 4300.3229,6283.5072 4300.0267,6283.3633 4294.268,6283.1107 C 4283.4185,6282.6349 4276.0082,6276.8154 4275.0134,6267.9897 C 4274.5981,6264.3053 4274.9104,6263.2717 4277.1011,6261.0811 C 4279.1297,6259.0524 4280.6642,6258.505 4284.3225,6258.505 C 4288.2437,6258.505 4289.4646,6259.0118 4292.1526,6261.755 C 4293.9041,6263.5425 4296.2711,6266.3181 4297.4127,6267.9231 L 4299.4882,6270.8411 L 4302.8929,6268.7369 C 4306.5903,6266.4518 4310.2369,6262.0321 4311.7854,6257.9593 C 4313.2232,6254.1776 4314.7712,6255.9317 4314.746,6261.3141 C 4314.7175,6267.4098 4312.0249,6273.1943 4307.2744,6277.3653 L 4303.4668,6280.7083 L 4305.1443,6286.0297 C 4307.974,6295.0067 4309.081,6307.6332 4307.8455,6316.8409 C 4305.9625,6330.8746 4300.8456,6338.4495 4290.8715,6341.9685 C 4285.4604,6343.8777 4272.4179,6344.7182 4267.4855,6343.4757 z"
       id="path18622" />
    <path
       style="fill:#000000"
       d="M 4294.3296,6269.6242 C 4292.6182,6266.3146 4287.2533,6261.505 4285.2731,6261.505 C 4281.3304,6261.505 4278.238,6264.9604 4279.4212,6268.0438 C 4280.3479,6270.4587 4285.504,6272.4205 4291.0437,6272.4659 L 4295.8194,6272.505 L 4294.3296,6269.6242 z"
       id="path18319" />
    <path
       style="fill:#000000"
       d="M 5017.4855,5068.4757 C 5011.7399,5067.0283 5008.4879,5065.0442 5004.3457,5060.4593 C 4997.4634,5052.8415 4995.8692,5045.4201 4997.7114,5029.5747 C 4998.3583,5024.0101 4998.6054,5018.568 4998.2604,5017.4811 C 4997.5164,5015.1369 4994.021,5014.8648 4991.2091,5016.9322 C 4989.5137,5018.1788 4989.2974,5019.4446 4989.5003,5026.9322 C 4989.6838,5033.7014 4989.4398,5035.505 4988.3407,5035.505 C 4985.995,5035.505 4984.3518,5022.8266 4985.796,5015.8702 C 4987.7652,5006.3844 4994.4966,5001.8249 5000.4133,5005.9692 C 5003.4122,5008.0697 5003.9367,5012.4473 5002.2473,5021.2759 C 5000.5086,5030.3625 5000.3401,5039.2424 5001.8316,5043.1899 C 5003.5064,5047.6227 5007.6681,5051.3111 5012.9886,5053.0783 C 5018.5272,5054.9179 5032.3121,5055.2011 5037.6663,5053.5852 C 5045.7441,5051.1473 5052.1403,5043.8738 5053.3602,5035.7385 C 5054.2861,5029.5641 5053.292,5015.7119 5051.6344,5011.6895 C 5050.3229,5008.5072 5050.0267,5008.3633 5044.268,5008.1107 C 5033.4185,5007.6349 5026.0082,5001.8154 5025.0134,4992.9897 C 5024.5981,4989.3053 5024.9104,4988.2717 5027.1011,4986.0811 C 5029.1297,4984.0524 5030.6642,4983.505 5034.3225,4983.505 C 5038.2437,4983.505 5039.4646,4984.0118 5042.1526,4986.755 C 5043.9041,4988.5425 5046.2711,4991.3181 5047.4127,4992.9231 L 5049.4882,4995.8411 L 5052.8929,4993.7369 C 5056.5903,4991.4518 5060.2369,4987.0321 5061.7854,4982.9593 C 5063.2232,4979.1776 5064.7712,4980.9317 5064.746,4986.3141 C 5064.7175,4992.4098 5062.0249,4998.1943 5057.2744,5002.3653 L 5053.4668,5005.7083 L 5055.1443,5011.0297 C 5057.974,5020.0067 5059.081,5032.6332 5057.8455,5041.8409 C 5055.9625,5055.8746 5050.8456,5063.4495 5040.8715,5066.9685 C 5035.4604,5068.8777 5022.4179,5069.7182 5017.4855,5068.4757 z"
       id="path18629" />
    <path
       style="fill:#000000"
       d="M 5044.3296,4994.6242 C 5042.6182,4991.3146 5037.2533,4986.505 5035.2731,4986.505 C 5031.3304,4986.505 5028.238,4989.9604 5029.4212,4993.0438 C 5030.3479,4995.4587 5035.504,4997.4205 5041.0437,4997.4659 L 5045.8194,4997.505 L 5044.3296,4994.6242 z"
       id="path18631" />
    <path
       id="path18633"
       style="fill:#000000"
       d="M 3322.0573,5697.5758 C 2727.2424,5582.7986 2390.578,5425.4615 1961.7554,5061.8839 C 1249.2633,4457.8005 1084.2233,3869.2914 1274.9376,2612.7682 C 1341.9082,2171.5015 1367.4893,1739.9488 1331.7731,1653.7588 C 1254.7502,1467.8663 1217.8879,796.289 926.7851,960.2316 C 751.26821,1059.0858 403.87564,1809.4623 424.88093,2403.2208 C 443.8779,2940.0112 418.6177,3083.0348 304.83303,3083.0348 C 61.993699,3083.0348 -108.11897,2077.6512 41.392246,1526.0162 C 245.25418,773.80246 942.12447,412.23894 1554.6527,740.87749 C 1865.1146,907.44488 1919.4136,1254.5838 1744.518,1954.6823 C 1564.5186,2675.2399 1547.0745,3379.4064 1701.4825,3692.439 C 1874.8668,4043.9553 2330.7079,4836.4415 2881.5144,4976.5785 C 3454.8996,5122.4568 5006.9856,5094.9142 5561.2808,4966.7752 C 6397.5374,4773.4523 6909.706,3746.6715 7035.9965,3101.5509 C 7131.8506,2611.9277 7028.9361,1513.4631 6857.3325,1194.4912 C 6721.5592,942.13822 6690.8949,930.72701 6094.7237,910.69613 C 4971.5259,872.96579 4204.3724,411.4856 4101.3854,-288.38283 C 4058.3914,-580.55184 4090.7224,-662.51516 4317.5152,-836.22748 C 4527.5267,-997.10115 4686.3863,-1040.5094 5065.1128,-1040.5094 C 5471.0563,-1040.5094 5597.4503,-1000.3207 5875.7262,-782.78784 C 6057.0508,-641.04104 6302.0952,-420.93894 6420.2797,-293.66417 L 6635.1465,-62.269877 L 6987.6192,-229.13076 C 7370.3936,-410.33665 7747.9091,-760.8141 7908.2178,-1083.7828 C 8057.0666,-1383.6676 8217.3237,-1244.5693 8214.7149,-817.75073 C 7611.7645,190.63162 7933.0121,124.33637 7441.2153,455.09211 L 7047.0324,720.1885 L 7220.6959,1142.1697 C 7513.6416,1854.0362 7628.244,2855.304 7500.3384,3585.4647 C 7305.4005,4698.322 6775.6717,5299.0035 5743.1,5578.0565 C 5182.9143,5729.454 3832.6855,5796.1047 3322.0573,5697.5758 z M 6101.101,-158.7688 C 5923.9278,-421.21647 5368.5248,-802.6126 5163.5241,-802.6126 C 4755.3547,-802.6126 4435.2132,-528.60304 4557.7043,-284.09274 C 4653.6412,-92.593881 5237.428,387.97481 5810.9271,391.575 L 6255.333,69.675577 L 6101.101,-158.7688 z"
       sodipodi:nodetypes="ccccccscccccccccccscccccccccccccscccc" />
  </g>
</svg>
