<?xml version="1.0" encoding="UTF-8" standalone="no"?>
<!-- Created with Inkscape (http://www.inkscape.org/) -->

<svg
   xmlns:dc="http://purl.org/dc/elements/1.1/"
   xmlns:cc="http://creativecommons.org/ns#"
   xmlns:rdf="http://www.w3.org/1999/02/22-rdf-syntax-ns#"
   xmlns:svg="http://www.w3.org/2000/svg"
   xmlns="http://www.w3.org/2000/svg"
   xmlns:sodipodi="http://sodipodi.sourceforge.net/DTD/sodipodi-0.dtd"
   xmlns:inkscape="http://www.inkscape.org/namespaces/inkscape"
   version="1.0"
   width="1000"
   height="1000"
   id="svg5496"
   sodipodi:version="0.32"
   inkscape:version="0.47 r22583"
   sodipodi:docname="nga.svg"
   inkscape:output_extension="org.inkscape.output.svg.inkscape">
  <metadata
     id="metadata5594">
    <rdf:RDF>
      <cc:Work
         rdf:about="">
        <dc:format>image/svg+xml</dc:format>
        <dc:type
           rdf:resource="http://purl.org/dc/dcmitype/StillImage" />
        <dc:title></dc:title>
      </cc:Work>
    </rdf:RDF>
  </metadata>
  <sodipodi:namedview
     inkscape:window-height="618"
     inkscape:window-width="641"
     inkscape:pageshadow="2"
     inkscape:pageopacity="0.0"
     guidetolerance="10.0"
     gridtolerance="10.0"
     objecttolerance="10.0"
     borderopacity="1.0"
     bordercolor="#666666"
     pagecolor="#ffffff"
     id="base"
     showgrid="false"
     showguides="true"
     inkscape:guide-bbox="true"
     inkscape:zoom="0.16051324"
     inkscape:cx="1160.8661"
     inkscape:cy="-244.41552"
     inkscape:window-x="622"
     inkscape:window-y="49"
     inkscape:current-layer="svg5496"
     inkscape:window-maximized="0">
    <sodipodi:guide
       orientation="horizontal"
       position="200"
       id="guide5596" />
  </sodipodi:namedview>
  <defs
     id="defs5498">
    <inkscape:perspective
       sodipodi:type="inkscape:persp3d"
       inkscape:vp_x="0 : 500 : 1"
       inkscape:vp_y="0 : 1000 : 0"
       inkscape:vp_z="1000 : 500 : 1"
       inkscape:persp3d-origin="500 : 333.33333 : 1"
       id="perspective2736" />
    <inkscape:perspective
       id="perspective5747"
       inkscape:persp3d-origin="0.5 : 0.33333333 : 1"
       inkscape:vp_z="1 : 0.5 : 1"
       inkscape:vp_y="0 : 1000 : 0"
       inkscape:vp_x="0 : 0.5 : 1"
       sodipodi:type="inkscape:persp3d" />
  </defs>
  <g
     id="layer1" />
  <path
     style="fill:#000000"
     d="M 209.42006,769.5415 C 133.17663,731.64169 102.94722,648.68855 106.09369,486.00228 C 108.27034,373.46288 120.29612,276.11003 97.984566,276.11003 C 63.674534,276.11003 23.316529,402.86329 40.824035,447.70083 C 47.836574,465.66002 43.590066,480.00683 31.261629,480.00683 C -12.565534,480.00683 -2.9490372,309.33639 43.741519,258.51442 C 82.656459,216.15621 116.47827,214.70342 149.63458,253.96566 C 169.05489,276.96228 163.63675,312.35533 148.17647,421.83224 C 126.71714,573.78922 198.58564,735.04189 250.57767,751.81723 C 271.97609,758.72149 230.04658,706.87195 216.54158,654.61155 C 186.46784,538.2357 198.76782,385.33605 242.92093,326.69648 C 336.30325,202.67569 471.72533,198.74888 532.68357,318.29414 L 565.46104,382.5736 L 606.44745,314.30412 C 678.74387,193.88274 860.32782,202.41482 909.11609,328.52551 C 934.32328,393.68267 951.69236,775.33003 929.45053,775.33003 C 919.07917,775.33003 910.59376,712.87213 910.59376,636.53482 C 910.59376,476.52969 870.11449,310.27347 791.5642,280.92346 C 724.62896,255.91333 644.24772,353.28403 599.24098,402.15864 C 564.77309,439.58869 563.41461,439.37193 515.74923,388.82677 C 474.92829,345.53948 444.64983,266.57802 382.43689,276.3097 C 226.225,300.74514 184.33186,529.60203 277.82837,690.29034 C 339.77145,796.74904 317.06725,823.0519 209.42006,769.5415 z"
     id="path2464"
     sodipodi:nodetypes="csssssssssscccssssssscc" />
  <path
     style="fill:#000000"
     d="M 226.07911,1574.8668 C 145.83843,1550.7223 84.353209,1444.7103 87.578493,1282.6588 l 25.551157,-346.8296 37.81424,435.5097 c 2.20926,71.5919 35.52446,128.4243 81.25112,154.0452 77.21966,43.2661 127.22868,4.1996 189.99372,-46.4324 28.97708,-23.3756 68.11773,-46.0329 86.97929,-50.3497 47.34413,-10.8354 121.05407,15.0855 139.04762,48.8977 17.99716,33.8192 90.92432,49.7888 171.96732,37.6573 59.08052,-8.8437 59.38982,-9.8043 52.5836,-163.3041 -6.65266,-150.0396 -8.46207,-154.5445 -63.95731,-159.2274 -86.80157,-7.3247 -109.85734,16.2864 -65.66847,67.2511 69.67918,80.3634 30.07712,131.9729 -101.26802,131.9729 -57.90515,0 -126.28871,-43.8369 -125.32001,-80.3358 0.68088,-25.6937 2.48934,-25.8696 25.34471,-2.4662 29.80645,30.521 156.32962,33.8801 175.13683,4.6495 7.27246,-11.303 0.51671,-40.6285 -15.01453,-65.1678 -35.59473,-56.2426 -4.88236,-89.1173 100.01852,-107.0606 l 75.95446,-12.9918 26.43172,-175.12628 C 912.21198,882.60792 890.96469,800 920.32951,800 c 74.62883,0 2.65273,49.73874 10.44025,226.0559 6.39652,144.8235 79.27514,172.9082 125.08534,201.9908 48.649,30.885 171.9036,219.2044 148.3396,233.2584 -6.1496,3.6676 -18.2184,-5.5995 -26.8201,-20.5934 -8.6013,-14.9939 -44.1691,-62.9026 -79.0391,-106.4637 l -63.4006,-79.2019 -6.8105,169.7685 c -8.9991,224.3143 -53.55189,208.8691 -53.55189,-18.5648 0,-98.5362 -10.24032,-174.8791 -24.145,-180.0044 -15.53092,-5.7248 -24.14487,46.9342 -24.14487,147.6014 0,165.9688 -15.56167,194.3454 -116.39533,212.2468 -45.39467,8.059 -73.34075,-1.2341 -147.19702,-48.9472 -109.88777,-70.991 -179.23761,-75.8304 -231.00898,-16.1207 -20.39813,23.5257 -57.99109,49.4464 -83.54007,57.6014 -56.57427,18.0579 -48.75108,18.2991 -122.06213,-3.7603 z"
     id="path4665"
     sodipodi:nodetypes="cccccsssccscscssccccsscsscccsssscssc" />
</svg>
