<?xml version="1.0" encoding="UTF-8" standalone="no"?>
<!-- Created with Inkscape (http://www.inkscape.org/) -->

<svg
   xmlns:dc="http://purl.org/dc/elements/1.1/"
   xmlns:cc="http://creativecommons.org/ns#"
   xmlns:rdf="http://www.w3.org/1999/02/22-rdf-syntax-ns#"
   xmlns:svg="http://www.w3.org/2000/svg"
   xmlns="http://www.w3.org/2000/svg"
   xmlns:sodipodi="http://sodipodi.sourceforge.net/DTD/sodipodi-0.dtd"
   xmlns:inkscape="http://www.inkscape.org/namespaces/inkscape"
   version="1.0"
   width="1000"
   height="1000"
   id="svg5496"
   sodipodi:version="0.32"
   inkscape:version="0.47 r22583"
   sodipodi:docname="panti.svg"
   inkscape:output_extension="org.inkscape.output.svg.inkscape">
  <metadata
     id="metadata5594">
    <rdf:RDF>
      <cc:Work
         rdf:about="">
        <dc:format>image/svg+xml</dc:format>
        <dc:type
           rdf:resource="http://purl.org/dc/dcmitype/StillImage" />
        <dc:title></dc:title>
      </cc:Work>
    </rdf:RDF>
  </metadata>
  <sodipodi:namedview
     inkscape:window-height="618"
     inkscape:window-width="641"
     inkscape:pageshadow="2"
     inkscape:pageopacity="0.0"
     guidetolerance="10.0"
     gridtolerance="10.0"
     objecttolerance="10.0"
     borderopacity="1.0"
     bordercolor="#666666"
     pagecolor="#ffffff"
     id="base"
     showgrid="false"
     showguides="true"
     inkscape:guide-bbox="true"
     inkscape:zoom="0.454"
     inkscape:cx="552.08187"
     inkscape:cy="458.32801"
     inkscape:window-x="0"
     inkscape:window-y="66"
     inkscape:current-layer="svg5496"
     inkscape:window-maximized="0">
    <sodipodi:guide
       orientation="horizontal"
       position="200"
       id="guide5596" />
  </sodipodi:namedview>
  <defs
     id="defs5498">
    <inkscape:perspective
       sodipodi:type="inkscape:persp3d"
       inkscape:vp_x="0 : 500 : 1"
       inkscape:vp_y="0 : 1000 : 0"
       inkscape:vp_z="1000 : 500 : 1"
       inkscape:persp3d-origin="500 : 333.33333 : 1"
       id="perspective2638" />
    <inkscape:perspective
       id="perspective4288"
       inkscape:persp3d-origin="0.5 : 0.33333333 : 1"
       inkscape:vp_z="1 : 0.5 : 1"
       inkscape:vp_y="0 : 1000 : 0"
       inkscape:vp_x="0 : 0.5 : 1"
       sodipodi:type="inkscape:persp3d" />
  </defs>
  <g
     id="layer1" />
  <path
     style="fill:#000000"
     d="m 808.29958,800 c -35.406,-35.29971 -42.9788,-71.41939 -42.9788,-204.954 0,-167.6679 -18.84621,-267.01504 -69.26461,-267.01504 -38.7131,0 -59.67169,69.97553 -59.67169,182.09887 0,123.04474 -56.2291,194.82601 -136.8165,174.65958 -68.5941,-17.16488 -125.99842,-117.71606 -125.99842,-250.05983 0,-178.83676 -95.9093,-142.259 -119.4445,45.55369 -21.0317,167.8286 -56.03157,159.96386 -143.58585,155.00487 -48.7702,-34.05788 -84.848603,-126.43931 -41.689303,-126.43931 11.819199,0 30.299972,15.93392 30.299972,46.17713 0,47.34639 8.211101,54.04561 59.095801,48.20814 55.6059,-6.37933 59.8329,-14.46159 71.594,-136.89954 15.6593,-163.04142 26.8553,-180.55469 115.4066,-180.55469 83.209,0 44.72626,15.79872 69.42814,156.78945 0.4083,123.19643 41.50229,212.32418 107.88089,202.96644 46.6298,-6.57345 73.91893,-58.50296 79.90373,-174.6925 7.6567,-148.68247 15.89364,-185.06339 101.55684,-185.06339 80.9677,0 104.2837,59.60326 104.2837,266.59421 0,106.70175 18.22287,208.51718 38.31977,225.14748 43.9436,36.36137 82.31733,-35.61086 107.15903,-112.67232 l 22.0481,-68.39471 2.1941,89.84497 c 1.7191,70.05864 -8.325,97.19018 -45.5683,123.19858 -61.4618,42.92302 -72.417,42.08485 -124.1527,-9.49808 z"
     id="path3210"
     sodipodi:nodetypes="cssscsccssccscccsscccccc" />
</svg>
