<?xml version="1.0" encoding="UTF-8" standalone="no"?>
<!-- Created with Inkscape (http://www.inkscape.org/) -->
<svg
   xmlns:dc="http://purl.org/dc/elements/1.1/"
   xmlns:cc="http://creativecommons.org/ns#"
   xmlns:rdf="http://www.w3.org/1999/02/22-rdf-syntax-ns#"
   xmlns:svg="http://www.w3.org/2000/svg"
   xmlns="http://www.w3.org/2000/svg"
   xmlns:sodipodi="http://sodipodi.sourceforge.net/DTD/sodipodi-0.dtd"
   xmlns:inkscape="http://www.inkscape.org/namespaces/inkscape"
   width="9320"
   height="12600"
   id="svg2"
   sodipodi:version="0.32"
   inkscape:version="0.46"
   version="1.0"
   sodipodi:docname="ra-repa.svg"
   inkscape:output_extension="org.inkscape.output.svg.inkscape">
  <defs
     id="defs4">
    <inkscape:perspective
       sodipodi:type="inkscape:persp3d"
       inkscape:vp_x="0 : 526.18109 : 1"
       inkscape:vp_y="0 : 1000 : 0"
       inkscape:vp_z="744.09448 : 526.18109 : 1"
       inkscape:persp3d-origin="372.04724 : 350.78739 : 1"
       id="perspective10" />
  </defs>
  <sodipodi:namedview
     id="base"
     pagecolor="#ffffff"
     bordercolor="#666666"
     borderopacity="1.0"
     gridtolerance="10000"
     guidetolerance="10"
     objecttolerance="10"
     inkscape:pageopacity="0.0"
     inkscape:pageshadow="2"
     inkscape:zoom="0.04"
     inkscape:cx="780.56095"
     inkscape:cy="6995.6874"
     inkscape:document-units="px"
     inkscape:current-layer="layer1"
     showgrid="false"
     showguides="true"
     inkscape:snap-guide="false"
     inkscape:window-width="1280"
     inkscape:window-height="727"
     inkscape:window-x="0"
     inkscape:window-y="25">
    <inkscape:grid
       type="xygrid"
       id="grid4173"
       visible="true"
       enabled="true" />
  </sodipodi:namedview>
  <metadata
     id="metadata7">
    <rdf:RDF>
      <cc:Work
         rdf:about="">
        <dc:format>image/svg+xml</dc:format>
        <dc:type
           rdf:resource="http://purl.org/dc/dcmitype/StillImage" />
      </cc:Work>
    </rdf:RDF>
  </metadata>
  <g
     inkscape:label="Layer 1"
     inkscape:groupmode="layer"
     id="layer1">
    <path
       style="fill:#000000"
       d="M 3012.6677,8567.2552 C 2465.3115,8165.6862 2373.0153,8032.3384 2708.3375,8127.0886 C 3972.7422,8484.4134 4955.1718,8635.4143 5316.5716,8527.9528 C 6076.3017,8302.0669 5713.8826,7885.7619 4451.6789,7534.1549 C 3311.5816,7216.623 3189.3028,7128.5362 3189.3028,6625.7945 C 3189.3028,6134.649 3280.7571,6062.2171 3965.4595,6010.9796 C 4392.5706,5979.0364 4933.4912,6047.4988 5167.8804,6163.1223 C 5523.8638,6338.8589 5473.5648,6358.0462 4861.1767,6280.0124 C 3219.4478,6070.8608 3140.1904,7009.2198 4771.9286,7335.654 C 5796.3552,7540.5953 6195.0153,7788.621 6195.0153,8221.259 C 6195.0153,9257.6508 4243.0326,9469.8888 3012.6677,8567.2552 z"
       id="path7980" />
    <path
       style="fill:#000000"
       d="M 2774.8975,5401.3581 C 1647.4181,4940.9322 1318.063,4358.1263 1281.179,2758.1817 C 1238.7973,919.63555 1385.7934,238.91928 951.16747,537.32374 C 747.85974,676.90954 285.66454,1577.9377 274.96438,1984.6837 L 399.06037,2962.0494 L 141.81892,2377.2725 C -198.22426,1604.2692 262.75318,283.32345 934.06378,107.0594 C 1833.179,-129.01648 1992.9068,170.52168 1828.0779,1783.6213 C 1739.8996,2646.6098 2043.0159,4258.9134 2179.4879,4469.867 C 2835.5643,5484.013 6463.2784,5322.7709 7140.2859,4342.0649 C 7304.5654,4104.0887 7459.4054,2639.4414 7460.0804,1742.5908 C 7461.1082,379.04495 7528.6627,104.51321 7877.0087,48.217355 C 8746.7494,-92.345112 9179.9463,950.3223 9274.3894,3411.5907 C 9335.5069,5004.314 9278.5687,5714.2574 9089.7197,5714.2574 C 8914.0154,5714.2574 8807.9339,5114.708 8792.1252,4032.3528 C 8765.2021,2188.9273 8450.8755,475.45454 8086.9629,633.08843 C 7957.5341,689.15264 7984.5763,1883.9071 8021.7332,2310.3757 C 8124.8878,3494.2799 7662.0847,4604.6853 6821.6644,5189.7066 C 6221.7106,5607.3352 5808.2503,5713.3112 4793.2451,5709.6156 C 4092.0694,5707.0625 3183.8134,5568.3474 2774.8975,5401.3581 z"
       id="path2462"
       sodipodi:nodetypes="ccscccscsccccscscccc" />
  </g>
</svg>
