<?xml version="1.0" encoding="UTF-8" standalone="no"?>
<!-- Created with Inkscape (http://www.inkscape.org/) -->

<svg
   xmlns:svg="http://www.w3.org/2000/svg"
   xmlns="http://www.w3.org/2000/svg"
   version="1.0"
   width="1000"
   height="1000"
   id="svg5496">
  <defs
     id="defs5498" />
  <g
     id="layer1" />
  <g
     transform="matrix(1.8357927,0,0,1.8357927,-1.5860185,-143.69943)"
     id="g2890">
    <g
       id="layer1-4" />
    <g
       transform="matrix(0.53225174,0,0,0.53225174,1.3923261,92.611952)"
       id="g3175">
      <g
         id="layer1-42" />
      <g
         transform="matrix(1.0133535,0,0,1.0133535,-4.8107054,-18.870264)"
         id="g3254">
        <g
           id="layer1-8" />
        <path
           d="M 137.90252,735.07474 C 266.02916,673.05764 253.27353,271.25029 69.546609,238.91208 45.716245,251.48521 60.270391,347.43956 36.051468,385.53269 10.186979,426.21448 5.772211,417.67122 4.1590694,323.81419 3.1293812,263.89922 15.97863,208.4586 32.713419,200.6131 301.56603,206.56579 306.27278,510.04362 236.44758,690.13699 220.62519,728.68371 225.55619,735.158 262.53783,724.39298 332.0465,704.15984 357.94694,651.8188 376.784,493.51789 c 22.64235,-190.281 55.89835,-251.19258 153.96801,-282.00692 113.68181,-35.71974 321.71787,-14.05957 394.4921,41.07361 52.59323,39.84406 60.17038,72.65643 68.3805,296.11245 C 999.89984,719.49701 993.25334,800 972.87592,800 c -19.42852,0 -29.98186,-70.17425 -29.98186,-199.36403 0,-245.84942 -41.72989,-349.38606 -257.79487,-349.38606 -178.30014,0 -227.60887,108.49199 -254.06567,257.91365 C 392.62023,726.11527 318.9715,800 141.12644,800 L 3.7676606,800 137.90252,735.07474 z"
           id="path2536"
           style="fill:#000000" />
      </g>
    </g>
  </g>
</svg>
