<?xml version="1.0" encoding="UTF-8" standalone="no"?>
<!-- Created with Inkscape (http://www.inkscape.org/) -->
<svg
   xmlns:dc="http://purl.org/dc/elements/1.1/"
   xmlns:cc="http://creativecommons.org/ns#"
   xmlns:rdf="http://www.w3.org/1999/02/22-rdf-syntax-ns#"
   xmlns:svg="http://www.w3.org/2000/svg"
   xmlns="http://www.w3.org/2000/svg"
   xmlns:sodipodi="http://sodipodi.sourceforge.net/DTD/sodipodi-0.dtd"
   xmlns:inkscape="http://www.inkscape.org/namespaces/inkscape"
   version="1.0"
   width="1000"
   height="1000"
   id="svg5496"
   sodipodi:version="0.32"
   inkscape:version="0.46"
   sodipodi:docname="sa-gempelan.svg"
   inkscape:output_extension="org.inkscape.output.svg.inkscape">
  <metadata
     id="metadata5594">
    <rdf:RDF>
      <cc:Work
         rdf:about="">
        <dc:format>image/svg+xml</dc:format>
        <dc:type
           rdf:resource="http://purl.org/dc/dcmitype/StillImage" />
      </cc:Work>
    </rdf:RDF>
  </metadata>
  <sodipodi:namedview
     inkscape:window-height="727"
     inkscape:window-width="1280"
     inkscape:pageshadow="2"
     inkscape:pageopacity="0.0"
     guidetolerance="10.0"
     gridtolerance="10.0"
     objecttolerance="10.0"
     borderopacity="1.0"
     bordercolor="#666666"
     pagecolor="#ffffff"
     id="base"
     showgrid="false"
     showguides="true"
     inkscape:guide-bbox="true"
     inkscape:zoom="0.454"
     inkscape:cx="1132.7436"
     inkscape:cy="368.95051"
     inkscape:window-x="0"
     inkscape:window-y="25"
     inkscape:current-layer="svg5496">
    <sodipodi:guide
       orientation="horizontal"
       position="200"
       id="guide5596" />
  </sodipodi:namedview>
  <defs
     id="defs5498">
    <inkscape:perspective
       sodipodi:type="inkscape:persp3d"
       inkscape:vp_x="0 : 500 : 1"
       inkscape:vp_y="0 : 1000 : 0"
       inkscape:vp_z="1000 : 500 : 1"
       inkscape:persp3d-origin="500 : 333.33333 : 1"
       id="perspective2387" />
  </defs>
  <g
     id="layer1" />
  <path
     style="fill:#000000"
     d="M 1179.6471,732.25621 C 1122.2348,703.36534 1051.9642,616.51568 1051.9642,574.44878 C 1051.9642,541.64847 1053.5755,609.49351 1133.8554,654.8431 C 1225.4452,706.58144 1409.9914,701.62535 1466.2172,651.17923 C 1509.2577,612.56312 1513.6504,502.03607 1490.9286,314.68794 C 1476.7098,197.44915 1414.6528,129.33409 1506.4879,186.94201 C 1562.3096,221.95887 1620.2887,352.8473 1617.5455,563.95467 L 1614.8967,767.80998 L 1595.9911,584.35852 C 1582.6599,387.87565 1537.2036,221.79638 1503.2015,221.79638 C 1486.8084,221.79638 1522.9525,368.94086 1529.1092,457.77911 C 1543.1769,660.77263 1495.3836,729.54168 1327.1278,748.40605 C 1264.3735,755.44194 1214.9719,750.03214 1179.6471,732.25621 z"
     id="path2547"
     sodipodi:nodetypes="cscscscccscsc" />
  <path
     style="fill:#000000"
     d="M 670.05004,1391.8867 C 641.75524,1360.2682 665.54184,1287.047 749.99884,1145.7835 C 795.29664,1070.0181 839.11614,981.64637 847.37494,949.40214 C 855.63374,917.15787 867.03534,890.77642 872.71214,890.77642 C 878.38884,890.77642 880.27854,899.85002 876.91154,910.94049 C 873.54464,922.03054 866.86844,949.25218 862.07554,971.43229 C 857.28294,993.61277 810.33114,1058.1728 771.19894,1131.0512 C 694.33194,1274.2062 683.49134,1346.7589 698.67624,1363.5663 C 734.00984,1402.6756 804.51854,1341.6888 824.33344,1285.6169 C 872.61284,1198.3304 893.78284,988.28777 893.78284,884.42674 C 893.78284,850.64343 899.37384,819.79769 906.20704,815.88106 C 924.80964,805.2187 921.51424,970.07772 900.54584,1099.0791 C 868.44604,1296.564 803.68584,1409.2804 722.32214,1409.2804 C 702.13354,1409.2804 678.61114,1401.4529 670.05004,1391.8867 z"
     id="path2559"
     sodipodi:nodetypes="ccsssscscsscsc" />
</svg>
