<?xml version="1.0" encoding="UTF-8" standalone="no"?>
<!-- Created with Inkscape (http://www.inkscape.org/) -->

<svg
   xmlns:dc="http://purl.org/dc/elements/1.1/"
   xmlns:cc="http://creativecommons.org/ns#"
   xmlns:rdf="http://www.w3.org/1999/02/22-rdf-syntax-ns#"
   xmlns:svg="http://www.w3.org/2000/svg"
   xmlns="http://www.w3.org/2000/svg"
   xmlns:sodipodi="http://sodipodi.sourceforge.net/DTD/sodipodi-0.dtd"
   xmlns:inkscape="http://www.inkscape.org/namespaces/inkscape"
   version="1.0"
   width="1000"
   height="1000"
   id="svg5496"
   sodipodi:version="0.32"
   inkscape:version="0.47 r22583"
   sodipodi:docname="suku.svg"
   inkscape:output_extension="org.inkscape.output.svg.inkscape">
  <metadata
     id="metadata5594">
    <rdf:RDF>
      <cc:Work
         rdf:about="">
        <dc:format>image/svg+xml</dc:format>
        <dc:type
           rdf:resource="http://purl.org/dc/dcmitype/StillImage" />
      </cc:Work>
    </rdf:RDF>
  </metadata>
  <sodipodi:namedview
     inkscape:window-height="618"
     inkscape:window-width="641"
     inkscape:pageshadow="2"
     inkscape:pageopacity="0.0"
     guidetolerance="10.0"
     gridtolerance="10.0"
     objecttolerance="10.0"
     borderopacity="1.0"
     bordercolor="#666666"
     pagecolor="#ffffff"
     id="base"
     showgrid="false"
     showguides="true"
     inkscape:guide-bbox="true"
     inkscape:zoom="0.227"
     inkscape:cx="747.84923"
     inkscape:cy="121.77883"
     inkscape:window-x="50"
     inkscape:window-y="25"
     inkscape:current-layer="svg5496"
     inkscape:window-maximized="0">
    <sodipodi:guide
       orientation="horizontal"
       position="200"
       id="guide5596" />
  </sodipodi:namedview>
  <defs
     id="defs5498">
    <inkscape:perspective
       sodipodi:type="inkscape:persp3d"
       inkscape:vp_x="0 : 500 : 1"
       inkscape:vp_y="0 : 1000 : 0"
       inkscape:vp_z="1000 : 500 : 1"
       inkscape:persp3d-origin="500 : 333.33333 : 1"
       id="perspective2567" />
  </defs>
  <g
     id="layer1" />
  <path
     style="fill:#000000"
     d="m -61.227537,1372.0629 c -28.29476,-31.6185 -4.50819,-104.8397 79.94887,-246.1032 45.29776,-75.7655 89.117227,-164.13711 97.376057,-196.38138 8.25884,-32.24427 19.66037,-58.62572 25.33716,-58.62572 5.67678,0 7.56645,9.0736 4.19949,20.16407 -3.36696,11.09005 -10.04313,38.31169 -14.83604,60.4918 -4.79257,22.18052 -51.744357,86.74043 -90.876627,159.61893 -76.86696,143.155 -87.70759,215.7077 -72.52268,232.5151 35.3336396,39.1093 105.84229,-21.8775 125.65722,-77.9494 48.279367,-87.2865 69.449417,-297.32913 69.449417,-401.19018 0,-33.78331 5.591,-64.62905 12.42421,-68.54568 18.60256,-10.66236 15.3072,154.19666 -5.66125,283.19796 -32.09978,197.485 -96.859987,310.2014 -178.2236574,310.2014 -20.1885996,0 -43.7110496,-7.8275 -52.2721696,-17.3937 z"
     id="path2559"
     sodipodi:nodetypes="ccsssscscsscsc" />
</svg>
