<?xml version="1.0" encoding="UTF-8" standalone="no"?>
<!-- Created with Inkscape (http://www.inkscape.org/) -->
<svg
   xmlns:dc="http://purl.org/dc/elements/1.1/"
   xmlns:cc="http://creativecommons.org/ns#"
   xmlns:rdf="http://www.w3.org/1999/02/22-rdf-syntax-ns#"
   xmlns:svg="http://www.w3.org/2000/svg"
   xmlns="http://www.w3.org/2000/svg"
   xmlns:sodipodi="http://sodipodi.sourceforge.net/DTD/sodipodi-0.dtd"
   xmlns:inkscape="http://www.inkscape.org/namespaces/inkscape"
   version="1.0"
   width="1000"
   height="1000"
   id="svg5496"
   sodipodi:version="0.32"
   inkscape:version="0.46"
   sodipodi:docname="ta-gantungan.svg"
   inkscape:output_extension="org.inkscape.output.svg.inkscape">
  <metadata
     id="metadata5594">
    <rdf:RDF>
      <cc:Work
         rdf:about="">
        <dc:format>image/svg+xml</dc:format>
        <dc:type
           rdf:resource="http://purl.org/dc/dcmitype/StillImage" />
      </cc:Work>
    </rdf:RDF>
  </metadata>
  <sodipodi:namedview
     inkscape:window-height="618"
     inkscape:window-width="641"
     inkscape:pageshadow="2"
     inkscape:pageopacity="0.0"
     guidetolerance="10.0"
     gridtolerance="10.0"
     objecttolerance="10.0"
     borderopacity="1.0"
     bordercolor="#666666"
     pagecolor="#ffffff"
     id="base"
     showgrid="false"
     showguides="true"
     inkscape:guide-bbox="true"
     inkscape:zoom="0.454"
     inkscape:cx="600.55214"
     inkscape:cy="75.324192"
     inkscape:window-x="0"
     inkscape:window-y="46"
     inkscape:current-layer="svg5496">
    <sodipodi:guide
       orientation="horizontal"
       position="200"
       id="guide5596" />
  </sodipodi:namedview>
  <defs
     id="defs5498">
    <inkscape:perspective
       sodipodi:type="inkscape:persp3d"
       inkscape:vp_x="0 : 500 : 1"
       inkscape:vp_y="0 : 1000 : 0"
       inkscape:vp_z="1000 : 500 : 1"
       inkscape:persp3d-origin="500 : 333.33333 : 1"
       id="perspective2609" />
  </defs>
  <g
     id="layer1" />
  <path
     style="fill:#000000"
     d="M 242.20508,1308.9764 C 156.07924,1257.7426 131.80081,1179.3511 160.53696,1045.2832 C 177.35493,966.81983 175.08128,864.51272 159.96526,852.09028 C 126.7114,824.76207 87.827965,921.02106 87.827965,980.89688 C 87.827965,1008.1572 78.67043,1035.1123 67.477912,1040.7969 C 56.285379,1046.4817 47.127858,1008.9543 47.127858,957.40252 C 47.127858,829.92662 138.15214,758.00456 209.75361,828.90542 C 232.58195,851.51045 232.62427,883.13125 209.95874,981.84908 C 185.07934,1090.209 170.42247,1130.7159 202.90837,1171.4603 C 249.91722,1230.4206 274.85464,1271.4579 431.54436,1284.1477 C 531.8802,1303.9127 639.15854,1194.7116 620.5323,1154.8222 C 611.88249,1136.2974 577.55626,1125.3284 528.23493,1125.3284 C 429.02135,1125.3284 372.72869,1075.9169 372.72869,988.83082 C 372.72869,887.42056 475.52064,815.61507 636.38675,804.6519 C 750.04841,796.90583 768.76728,801.43329 840.40177,853.99668 L 919.27291,911.87019 L 927.14511,1123.7203 C 931.60717,1243.8074 925.79901,1335.5706 913.73627,1335.5706 C 902.03194,1335.5706 893.25673,1277.5152 894.23565,1206.5582 C 896.63364,1032.7586 900.26931,918.94599 812.47473,881.63568 C 731.35606,847.16248 480.41345,830.56011 438.59378,948.87756 C 419.33449,1003.3665 436.3676,1069.1293 530.14785,1069.1293 C 643.92813,1069.1293 675.07227,1056.5674 675.07227,1154.4889 C 675.07227,1268.2855 599.79363,1321.3363 424.73876,1330.9055 C 330.40823,1336.0619 276.93878,1329.6382 242.20508,1308.9764 z"
     id="path2561"
     sodipodi:nodetypes="csssssssccsssscccscsssssc" />
</svg>
