<?xml version="1.0" encoding="UTF-8" standalone="no"?>
<!-- Created with Inkscape (http://www.inkscape.org/) -->
<svg
   xmlns:dc="http://purl.org/dc/elements/1.1/"
   xmlns:cc="http://creativecommons.org/ns#"
   xmlns:rdf="http://www.w3.org/1999/02/22-rdf-syntax-ns#"
   xmlns:svg="http://www.w3.org/2000/svg"
   xmlns="http://www.w3.org/2000/svg"
   xmlns:sodipodi="http://sodipodi.sourceforge.net/DTD/sodipodi-0.dtd"
   xmlns:inkscape="http://www.inkscape.org/namespaces/inkscape"
   width="9320"
   height="12600"
   id="svg2"
   sodipodi:version="0.32"
   inkscape:version="0.46"
   version="1.0"
   sodipodi:docname="ta-latik.svg"
   inkscape:output_extension="org.inkscape.output.svg.inkscape">
  <defs
     id="defs4">
    <inkscape:perspective
       sodipodi:type="inkscape:persp3d"
       inkscape:vp_x="0 : 526.18109 : 1"
       inkscape:vp_y="0 : 1000 : 0"
       inkscape:vp_z="744.09448 : 526.18109 : 1"
       inkscape:persp3d-origin="372.04724 : 350.78739 : 1"
       id="perspective10" />
  </defs>
  <sodipodi:namedview
     id="base"
     pagecolor="#ffffff"
     bordercolor="#666666"
     borderopacity="1.0"
     gridtolerance="10000"
     guidetolerance="10"
     objecttolerance="10"
     inkscape:pageopacity="0.0"
     inkscape:pageshadow="2"
     inkscape:zoom="0.04"
     inkscape:cx="780.56095"
     inkscape:cy="6995.6874"
     inkscape:document-units="px"
     inkscape:current-layer="layer1"
     showgrid="false"
     showguides="true"
     inkscape:snap-guide="false"
     inkscape:window-width="1280"
     inkscape:window-height="727"
     inkscape:window-x="0"
     inkscape:window-y="25">
    <inkscape:grid
       type="xygrid"
       id="grid4173"
       visible="true"
       enabled="true" />
  </sodipodi:namedview>
  <metadata
     id="metadata7">
    <rdf:RDF>
      <cc:Work
         rdf:about="">
        <dc:format>image/svg+xml</dc:format>
        <dc:type
           rdf:resource="http://purl.org/dc/dcmitype/StillImage" />
      </cc:Work>
    </rdf:RDF>
  </metadata>
  <g
     inkscape:label="Layer 1"
     inkscape:groupmode="layer"
     id="layer1">
    <path
       id="path14727"
       style="fill:#000000"
       d="M 2663.7499,6088.9645 C 2004.4108,5951.3559 1617.273,5428.6287 1554.8523,4591.7046 C 1516.5736,4078.5431 1441.5886,3967.9115 1019.4511,3801.8665 C -48.892291,3381.6385 -163.47782,2748.5012 612.20333,1551.5326 C 888.25237,1125.5574 1189.1107,546.02948 1189.1107,508.14451 C 1189.1107,312.64631 430.79724,676.90594 269.91917,911.07115 C 167.21226,1060.5651 46.085281,1153.994 0.74620806,1118.6763 C -170.30379,985.43367 478.51195,230.76972 889.52392,84.89879 C 1251.7505,-43.665335 1352.3997,-30.619925 1539.9625,169.1919 C 1803.0791,449.50465 1696.6579,716.61546 962.65182,1618.2061 C 365.75001,2351.3927 324.76092,2599.359 750.84685,2899.7285 C 1607.6997,3846.7838 1504.1231,2998.5641 1762.0197,2623.1935 C 1999.4889,2277.5367 3162.3279,2126.7672 3446.2402,2263.4505 C 3740.5756,2405.1511 3646.0497,3058.0714 3278.5028,3422.0388 C 3088.6814,3610.0303 2693.4293,3811.9143 2400.1648,3870.6772 C 1968.2234,3957.238 1857.469,4051.6703 1816.9986,4367.9393 C 1722.1883,5108.6195 2839.3338,5761.6702 3796.421,5525.042 C 3987.6143,5477.7737 4365.7346,5200.693 4636.6977,4909.3158 C 5204.355,4298.8939 5283.1545,4479.835 4793.0921,5268.4351 C 4339.3008,5998.6503 3598.5859,6284.0717 2663.7499,6088.9645 z M 3127.6128,2914.4029 C 3277.2145,2773.9924 3288.8086,2672.1448 3166.0588,2576.5264 C 2951.5101,2409.3866 2373.1957,2618.5296 2226.5049,2916.3056 C 2092.8636,3187.587 2838.2464,3186.0101 3127.6128,2914.4029 z M 9010.0513,3115.4138 C 8966.904,2059.025 8737.9672,948.4286 8310.6097,647.16 C 7859.0939,328.85805 6738.5521,791.60361 6163.2994,1121.5825 C 5737.4978,1365.8347 5699.6206,1367.4116 5411.1743,1152.8863 C 5244.1228,1028.649 4742.6922,473.33856 4449.662,438.32065 C 3869.5909,369.00157 2954.4379,1064.2272 2954.4379,1284.2392 C 2954.4379,1359.5662 2889.5914,1421.2092 2810.3235,1421.2092 C 2528.6364,1421.2092 2834.9505,757.27639 3292.7737,375.50692 C 3927.3855,-153.69744 4617.458,-148.94065 5198.148,388.61751 C 5436.3701,609.15081 5631.2775,846.20914 5631.2775,915.39786 C 5631.2775,984.59954 5920.7609,804.16683 6274.5722,514.43172 C 7083.9314,-148.3281 7762.5101,-196.76929 8473.9472,357.43116 C 9037.79,796.64717 9191.4572,1420.727 9104.8615,2919.9287 C 9045.352,3950.37 9044.2478,3952.6506 9010.0513,3115.4138 z"
       sodipodi:nodetypes="ccccscsccccccccccccccccccccccssccscccc" />
  </g>
</svg>
