<?xml version="1.0" encoding="UTF-8" standalone="no"?>
<!-- Created with Inkscape (http://www.inkscape.org/) -->

<svg
   xmlns:dc="http://purl.org/dc/elements/1.1/"
   xmlns:cc="http://creativecommons.org/ns#"
   xmlns:rdf="http://www.w3.org/1999/02/22-rdf-syntax-ns#"
   xmlns:svg="http://www.w3.org/2000/svg"
   xmlns="http://www.w3.org/2000/svg"
   xmlns:sodipodi="http://sodipodi.sourceforge.net/DTD/sodipodi-0.dtd"
   xmlns:inkscape="http://www.inkscape.org/namespaces/inkscape"
   version="1.0"
   width="1000"
   height="1000"
   id="svg5496"
   sodipodi:version="0.32"
   inkscape:version="0.47 r22583"
   sodipodi:docname="New document 103"
   inkscape:output_extension="org.inkscape.output.svg.inkscape">
  <metadata
     id="metadata5594">
    <rdf:RDF>
      <cc:Work
         rdf:about="">
        <dc:format>image/svg+xml</dc:format>
        <dc:type
           rdf:resource="http://purl.org/dc/dcmitype/StillImage" />
        <dc:title></dc:title>
      </cc:Work>
    </rdf:RDF>
  </metadata>
  <sodipodi:namedview
     inkscape:window-height="706"
     inkscape:window-width="1280"
     inkscape:pageshadow="2"
     inkscape:pageopacity="0.0"
     borderopacity="1.0"
     bordercolor="#666666"
     pagecolor="#ffffff"
     id="base"
     showgrid="false"
     showguides="true"
     inkscape:guide-bbox="true"
     inkscape:zoom="0.454"
     inkscape:cx="500"
     inkscape:cy="500"
     inkscape:window-x="0"
     inkscape:window-y="24"
     inkscape:current-layer="svg5496"
     inkscape:window-maximized="1">
    <sodipodi:guide
       orientation="horizontal"
       position="200"
       id="guide5596" />
  </sodipodi:namedview>
  <defs
     id="defs5498">
    <inkscape:perspective
       sodipodi:type="inkscape:persp3d"
       inkscape:vp_x="0 : 500 : 1"
       inkscape:vp_y="0 : 1000 : 0"
       inkscape:vp_z="1000 : 500 : 1"
       inkscape:persp3d-origin="500 : 333.33333 : 1"
       id="perspective9279" />
    <inkscape:perspective
       id="perspective9238"
       inkscape:persp3d-origin="0.5 : 0.33333333 : 1"
       inkscape:vp_z="1 : 0.5 : 1"
       inkscape:vp_y="0 : 1000 : 0"
       inkscape:vp_x="0 : 0.5 : 1"
       sodipodi:type="inkscape:persp3d" />
  </defs>
  <g
     id="layer1" />
  <path
     style="fill:#000000"
     d="m 181.00205,759.94184 c -59.59638,-39.01522 -85.334033,-96.0194 -85.493753,-189.35306 -0.0563,-32.90457 3.1061,-70.88251 7.027543,-84.39541 3.9215,-13.5129 9.14325,-56.90354 11.60394,-96.42366 4.99101,-80.15742 22.30986,-146.28304 -11.1321,-146.28304 -39.744121,0 -77.931223,85.52454 -77.931223,165.8485 0,31.79267 -2.96861,55.80577 -6.89897,55.80577 -22.2314406,0 -24.8486103,-147.47754 -3.530401,-198.93947 11.814581,-28.5203 19.593311,-36.44116 50.899711,-51.82933 32.06407,-15.76063 39.617253,-17.06096 57.081683,-9.82693 38.38473,15.89946 40.31837,29.72005 22.20556,158.71506 -27.60194,196.57457 -13.95295,325.6115 73.8808,369.77139 40.86123,20.54368 44.6489,21.09886 143.94327,21.09886 93.89675,6.34149 202.61856,-87.08376 175.99783,-186.55395 -5.63761,-14.82807 -11.4405,-72.04022 -32.59055,-72.04022 -14.15241,0 -37.65196,3.5714 -52.22121,7.93647 C 348.11687,531.63639 308.8456,493.41 308.47801,401.88883 320.21354,261.90736 433.89057,184.02657 597.30045,204.01485 c 168.557,20.61794 209.528,89.01508 218.4465,364.67595 4.6994,145.25013 10.4988,170.73522 38.8529,170.73522 34.6034,0 54.8177,-61.41932 74.0697,-225.05443 12.1511,-103.2812 29.7078,-188.19628 41.7471,-201.91679 4.1936,-4.7791 17.1191,-20.98288 28.7235,-36.0085 11.60445,-15.02555 29.01095,-30.84209 38.68125,-35.14788 86.1425,-38.35546 181.8751,-50.6013 267.2522,-34.18626 108.8355,8.80115 186.5761,96.48283 227.3829,191.21574 22.3292,69.19031 28.9553,134.23329 18.8796,185.32824 -14.2436,72.23193 -29.2983,100.44391 -81.4021,152.54471 -44.1388,44.13634 -87.8517,62.30843 -150.7945,62.68757 -69.6739,0.41987 -88.8673,-5.41227 -93.249,-28.33372 -3.0574,-15.99328 -1.6371,-17.67127 11.4733,-13.55531 96.5497,30.31125 226.4738,-20.27796 270.9093,-105.48526 16.0389,-30.7553 18.3384,-43.61224 18.3384,-102.53275 -1.8985,-100.53274 -61.1793,-219.90043 -142.19,-278.92207 -32.9949,-12.82015 -59.0898,-16.40393 -138.3248,-18.99705 -109.0847,-3.57 -156.1207,5.55378 -215.3082,41.7644 -67.36395,41.21281 -66.08492,161.09682 -76.50152,294.93859 -10.0097,128.61431 -44.66263,187.61877 -70.90633,203.12129 -28.4112,16.78295 -56.7154,9.15845 -76.1688,-20.51814 -15.0725,-22.99318 -15.9578,-31.78732 -17.4687,-173.51528 -1.5616,-146.48131 -1.9498,-150.02346 -20.6039,-187.97579 -33.5307,-68.21927 -72.1169,-162.90572 -194.14,-164.39698 -142.11254,-1.73679 -223.17126,95.12874 -231.51473,157.33407 -5.94122,44.29472 4.28701,49.26061 101.46073,49.26061 78.07286,0 80.00418,0.38752 100.7496,20.21284 28.377,27.11857 44.7554,83.38865 39.9008,137.08375 -23.54825,191.97205 -258.38158,221.56017 -404.5936,151.57022 z"
     id="path8801"
     sodipodi:nodetypes="csssssssssssccsccccscssscccscsssccssssssssssscc" />
</svg>
