<?xml version="1.0" encoding="UTF-8" standalone="no"?>
<!-- Created with Inkscape (http://www.inkscape.org/) -->

<svg
   xmlns:dc="http://purl.org/dc/elements/1.1/"
   xmlns:cc="http://creativecommons.org/ns#"
   xmlns:rdf="http://www.w3.org/1999/02/22-rdf-syntax-ns#"
   xmlns:svg="http://www.w3.org/2000/svg"
   xmlns="http://www.w3.org/2000/svg"
   xmlns:sodipodi="http://sodipodi.sourceforge.net/DTD/sodipodi-0.dtd"
   xmlns:inkscape="http://www.inkscape.org/namespaces/inkscape"
   version="1.0"
   width="1000"
   height="1000"
   id="svg5496"
   sodipodi:version="0.32"
   inkscape:version="0.47 r22583"
   sodipodi:docname="da.svg"
   inkscape:output_extension="org.inkscape.output.svg.inkscape">
  <metadata
     id="metadata5594">
    <rdf:RDF>
      <cc:Work
         rdf:about="">
        <dc:format>image/svg+xml</dc:format>
        <dc:type
           rdf:resource="http://purl.org/dc/dcmitype/StillImage" />
        <dc:title></dc:title>
      </cc:Work>
    </rdf:RDF>
  </metadata>
  <sodipodi:namedview
     inkscape:window-height="706"
     inkscape:window-width="1280"
     inkscape:pageshadow="2"
     inkscape:pageopacity="0.0"
     borderopacity="1.0"
     bordercolor="#666666"
     pagecolor="#ffffff"
     id="base"
     showgrid="false"
     showguides="true"
     inkscape:guide-bbox="true"
     inkscape:zoom="0.454"
     inkscape:cx="500"
     inkscape:cy="625.24675"
     inkscape:window-x="0"
     inkscape:window-y="24"
     inkscape:current-layer="g4467"
     inkscape:window-maximized="1">
    <sodipodi:guide
       orientation="horizontal"
       position="200"
       id="guide5596" />
  </sodipodi:namedview>
  <defs
     id="defs5498">
    <inkscape:perspective
       sodipodi:type="inkscape:persp3d"
       inkscape:vp_x="0 : 500 : 1"
       inkscape:vp_y="0 : 1000 : 0"
       inkscape:vp_z="1000 : 500 : 1"
       inkscape:persp3d-origin="500 : 333.33333 : 1"
       id="perspective2822" />
    <inkscape:perspective
       id="perspective2887"
       inkscape:persp3d-origin="350 : 333.33333 : 1"
       inkscape:vp_z="700 : 500 : 1"
       inkscape:vp_y="0 : 1000 : 0"
       inkscape:vp_x="0 : 500 : 1"
       sodipodi:type="inkscape:persp3d" />
    <inkscape:perspective
       id="perspective3016"
       inkscape:persp3d-origin="0.5 : 0.33333333 : 1"
       inkscape:vp_z="1 : 0.5 : 1"
       inkscape:vp_y="0 : 1000 : 0"
       inkscape:vp_x="0 : 0.5 : 1"
       sodipodi:type="inkscape:persp3d" />
    <inkscape:perspective
       id="perspective2625"
       inkscape:persp3d-origin="500 : 333.33333 : 1"
       inkscape:vp_z="1000 : 500 : 1"
       inkscape:vp_y="0 : 1000 : 0"
       inkscape:vp_x="0 : 500 : 1"
       sodipodi:type="inkscape:persp3d" />
    <inkscape:perspective
       id="perspective2654"
       inkscape:persp3d-origin="500 : 333.33333 : 1"
       inkscape:vp_z="1000 : 500 : 1"
       inkscape:vp_y="0 : 1000 : 0"
       inkscape:vp_x="0 : 500 : 1"
       sodipodi:type="inkscape:persp3d" />
    <inkscape:perspective
       id="perspective2703"
       inkscape:persp3d-origin="500 : 333.33333 : 1"
       inkscape:vp_z="1000 : 500 : 1"
       inkscape:vp_y="0 : 1000 : 0"
       inkscape:vp_x="0 : 500 : 1"
       sodipodi:type="inkscape:persp3d" />
    <inkscape:perspective
       id="perspective3447"
       inkscape:persp3d-origin="0.5 : 0.33333333 : 1"
       inkscape:vp_z="1 : 0.5 : 1"
       inkscape:vp_y="0 : 1000 : 0"
       inkscape:vp_x="0 : 0.5 : 1"
       sodipodi:type="inkscape:persp3d" />
    <inkscape:perspective
       id="perspective4271"
       inkscape:persp3d-origin="0.5 : 0.33333333 : 1"
       inkscape:vp_z="1 : 0.5 : 1"
       inkscape:vp_y="0 : 1000 : 0"
       inkscape:vp_x="0 : 0.5 : 1"
       sodipodi:type="inkscape:persp3d" />
    <inkscape:perspective
       id="perspective2734"
       inkscape:persp3d-origin="500 : 333.33333 : 1"
       inkscape:vp_z="1000 : 500 : 1"
       inkscape:vp_y="0 : 1000 : 0"
       inkscape:vp_x="0 : 500 : 1"
       sodipodi:type="inkscape:persp3d" />
    <inkscape:perspective
       id="perspective2531"
       inkscape:persp3d-origin="500 : 333.33333 : 1"
       inkscape:vp_z="1000 : 500 : 1"
       inkscape:vp_y="0 : 1000 : 0"
       inkscape:vp_x="0 : 500 : 1"
       sodipodi:type="inkscape:persp3d" />
  </defs>
  <g
     id="layer1" />
  <g
     id="g2890"
     transform="matrix(1.8357927,0,0,1.8357927,-1.5860185,-143.69943)">
    <g
       id="layer1-4" />
    <g
       id="g4388"
       transform="matrix(0.53051661,0,0,0.53051661,3.3201954,89.300831)">
      <g
         id="layer1-7" />
      <g
         id="g4467"
         transform="matrix(1.0331668,0,0,1.0331668,-8.8711831,-24.130273)">
        <g
           id="layer1-2" />
        <path
           sodipodi:nodetypes="cssccssssscsscccscsssccccssscs"
           id="path2434"
           d="M 112.63072,275.14492 C 104.75532,241.85808 58.446386,303.0264 37.406162,425.68527 26.669827,488.27523 34.955208,490.03603 13.443928,444.21165 -18.683903,375.77124 25.163394,233.47036 84.32229,214.1846 c 138.59991,-6.72296 87.8171,156.86725 78.21261,237.86437 -19.4704,101.96897 -9.40813,235.10788 62.4397,288.43454 27.03988,20.06944 70.34689,10.04462 113.19459,10.12384 C 487.02443,750.88256 567.20863,622.13301 515.49351,577.38176 478.56832,545.42885 438.85955,542.93184 403.50667,532.73628 325.06394,510.11385 268.06658,492.53022 310.50671,335.12911 357.2881,161.62723 696.85714,158.2297 760.09739,326.27275 c 12.32569,32.75232 28.60092,138.58611 36.16708,235.18632 7.56619,96.60021 21.93538,175.63673 31.93156,175.63673 59.39435,0 42.28902,-316.65408 -24.35315,-450.82778 l -40.43272,-81.40474 37.86701,2.20264 c 28.09559,0 61.83421,14.28939 93.81942,42.52284 56.72412,50.0705 86.96232,64.14205 93.82067,309.98045 3.86746,138.62144 1.5794,246.49583 -5.0841,239.7205 C 972.67354,787.94338 954.90519,612.22823 952.12896,478.6603 948.95633,323.83203 860.70748,266.50455 843.34437,271.21698 c -13.14209,3.56682 45.35995,126.46745 53.2206,207.61214 27.06091,201.10085 2.2072,311.48993 -70.13134,311.48993 C 711.9462,724.67151 761.99343,463.06998 704.72105,332.99443 674.7212,279.13697 620.22495,258.2203 516.91123,251.10128 c -41.193,0.8065 -103.93947,24.04496 -139.02444,64.41441 -53.72774,61.82017 -61.15703,161.24607 36.55825,171.21006 90.32109,9.21001 171.14311,44.89551 154.55846,130.17428 C 547.70175,726.4341 473.33321,785.1138 341.59345,796.33498 15.651869,827.81061 156.75064,461.62598 112.63072,275.14492 z"
           style="fill:#000000" />
      </g>
    </g>
  </g>
</svg>
