<?xml version="1.0" encoding="UTF-8" standalone="no"?>
<!-- Created with Inkscape (http://www.inkscape.org/) -->
<svg
   xmlns:dc="http://purl.org/dc/elements/1.1/"
   xmlns:cc="http://creativecommons.org/ns#"
   xmlns:rdf="http://www.w3.org/1999/02/22-rdf-syntax-ns#"
   xmlns:svg="http://www.w3.org/2000/svg"
   xmlns="http://www.w3.org/2000/svg"
   xmlns:sodipodi="http://sodipodi.sourceforge.net/DTD/sodipodi-0.dtd"
   xmlns:inkscape="http://www.inkscape.org/namespaces/inkscape"
   width="9320"
   height="12600"
   id="svg2"
   sodipodi:version="0.32"
   inkscape:version="0.46"
   version="1.0"
   sodipodi:docname="u-kara.svg"
   inkscape:output_extension="org.inkscape.output.svg.inkscape">
  <defs
     id="defs4">
    <inkscape:perspective
       sodipodi:type="inkscape:persp3d"
       inkscape:vp_x="0 : 526.18109 : 1"
       inkscape:vp_y="0 : 1000 : 0"
       inkscape:vp_z="744.09448 : 526.18109 : 1"
       inkscape:persp3d-origin="372.04724 : 350.78739 : 1"
       id="perspective10" />
  </defs>
  <sodipodi:namedview
     id="base"
     pagecolor="#ffffff"
     bordercolor="#666666"
     borderopacity="1.0"
     gridtolerance="10000"
     guidetolerance="10"
     objecttolerance="10"
     inkscape:pageopacity="0.0"
     inkscape:pageshadow="2"
     inkscape:zoom="0.04"
     inkscape:cx="780.56095"
     inkscape:cy="6995.6874"
     inkscape:document-units="px"
     inkscape:current-layer="layer1"
     showgrid="false"
     showguides="true"
     inkscape:snap-guide="false"
     inkscape:window-width="1280"
     inkscape:window-height="727"
     inkscape:window-x="0"
     inkscape:window-y="25">
    <inkscape:grid
       type="xygrid"
       id="grid4173"
       visible="true"
       enabled="true" />
  </sodipodi:namedview>
  <metadata
     id="metadata7">
    <rdf:RDF>
      <cc:Work
         rdf:about="">
        <dc:format>image/svg+xml</dc:format>
        <dc:type
           rdf:resource="http://purl.org/dc/dcmitype/StillImage" />
      </cc:Work>
    </rdf:RDF>
  </metadata>
  <g
     inkscape:label="Layer 1"
     inkscape:groupmode="layer"
     id="layer1">
    <path
       style="fill:#000000"
       d="M 7598.8811,9805.7947 C 7598.2426,8379.6882 6146.6322,7217.8616 4031.4123,7449.4803 C 3455.0061,7512.6011 3217.8084,7796.8181 2499.3597,8152.3653 C 1958.31,8547.4539 2031.5502,8707.47 2085.5545,9404.836 C 2138.7195,10091.278 2120.0598,10135.815 1806.7464,10070.324 C 99.29738,9713.4381 -476.64774,8122.9121 555.45593,6614.7361 C 983.84953,5988.739 1379.7955,5675.7445 2989.5351,4690.5829 C 5113.4581,3390.7505 5756.4374,2850.5299 5779.4131,1911.2741 C 5801.7742,997.25831 4898.0496,157.74833 3744.8588,390.2586 C 2987.8621,542.8795 2662.9542,1200.9702 2791.5384,1885.9432 C 2904.0762,2485.5196 2782.4096,2545.2304 2266.9372,2143.4212 C 1846.5136,1815.6973 1554.899,1294.8131 1554.899,871.57017 C 1554.899,395.39485 1834.6533,638.50649 1938.7362,1205.1396 C 2066.6821,1901.6884 2394.3745,2128.3944 2394.3745,1520.3633 C 2394.3745,933.32015 2775.019,269.21124 3208.6037,99.771927 C 4157.4717,-271.04252 5460.2123,137.22328 5921.1955,949.87442 C 6249.9049,1529.3299 6036.8433,2683.1383 5438.0643,3566.2583 C 5037.8377,4156.5379 4117.9212,4367.7278 2544.8271,5447.5747 C 219.34809,7043.8967 176.63247,7816.1679 532.23176,8682.8245 C 734.37894,9175.4961 1237.4824,9652.5466 1554.899,9652.5466 C 1647.2398,9652.5466 1722.8012,9430.1009 1722.8012,9158.2237 C 1722.8012,8149.0852 2584.7677,7337.6642 3939.8101,7071.2363 C 5344.7301,6794.9914 6652.0707,7226.4083 7436.513,8225.1106 C 7839.1637,8737.7383 7932.0839,8998.9563 7933.361,9621.8987 C 7934.248,10051.764 7861.229,10388.14 7767.0434,10388.14 C 7674.6908,10388.14 7599.023,10126.088 7598.8811,9805.7947 z"
       id="path6424"
       sodipodi:nodetypes="cccccccccccscscccccsscccsc" />
  </g>
</svg>
