<?xml version="1.0" encoding="UTF-8" standalone="no"?>
<!-- Created with Inkscape (http://www.inkscape.org/) -->
<svg
   xmlns:dc="http://purl.org/dc/elements/1.1/"
   xmlns:cc="http://creativecommons.org/ns#"
   xmlns:rdf="http://www.w3.org/1999/02/22-rdf-syntax-ns#"
   xmlns:svg="http://www.w3.org/2000/svg"
   xmlns="http://www.w3.org/2000/svg"
   xmlns:sodipodi="http://sodipodi.sourceforge.net/DTD/sodipodi-0.dtd"
   xmlns:inkscape="http://www.inkscape.org/namespaces/inkscape"
   version="1.0"
   width="1000"
   height="1000"
   id="svg5496"
   sodipodi:version="0.32"
   inkscape:version="0.46"
   sodipodi:docname="ya-gantungan.svg"
   inkscape:output_extension="org.inkscape.output.svg.inkscape">
  <metadata
     id="metadata5594">
    <rdf:RDF>
      <cc:Work
         rdf:about="">
        <dc:format>image/svg+xml</dc:format>
        <dc:type
           rdf:resource="http://purl.org/dc/dcmitype/StillImage" />
      </cc:Work>
    </rdf:RDF>
  </metadata>
  <sodipodi:namedview
     inkscape:window-height="618"
     inkscape:window-width="641"
     inkscape:pageshadow="2"
     inkscape:pageopacity="0.0"
     guidetolerance="10.0"
     gridtolerance="10.0"
     objecttolerance="10.0"
     borderopacity="1.0"
     bordercolor="#666666"
     pagecolor="#ffffff"
     id="base"
     showgrid="false"
     showguides="true"
     inkscape:guide-bbox="true"
     inkscape:zoom="0.45"
     inkscape:cx="549.26826"
     inkscape:cy="35.119749"
     inkscape:window-x="615"
     inkscape:window-y="25"
     inkscape:current-layer="svg5496">
    <sodipodi:guide
       orientation="horizontal"
       position="200"
       id="guide5596" />
  </sodipodi:namedview>
  <defs
     id="defs5498">
    <inkscape:perspective
       sodipodi:type="inkscape:persp3d"
       inkscape:vp_x="0 : 500 : 1"
       inkscape:vp_y="0 : 1000 : 0"
       inkscape:vp_z="1000 : 500 : 1"
       inkscape:persp3d-origin="500 : 333.33333 : 1"
       id="perspective2870" />
  </defs>
  <g
     id="layer1" />
  <path
     style="fill:#000000"
     d="M 487.84117,1408.0769 C 348.47827,1385.1938 285.01265,1348.9904 250.01536,1272.4095 C 225.91814,1219.6793 244.44616,1145.1168 292.25734,1102.4144 C 312.78984,1084.0759 404.5534,1051.0865 542.82117,1012.3354 C 711.11849,965.16909 769.68551,942.8444 799.03814,914.67121 C 819.96606,894.58435 837.121,869.29966 837.1604,858.48311 C 837.19991,847.66641 845.27065,838.81639 855.09519,838.81639 C 880.23911,838.81639 845.32642,905.57057 802.61231,939.16583 C 783.52046,954.18182 689.20354,989.58158 593.01932,1017.832 C 352.55495,1088.46 280.23523,1132.0616 280.40458,1206.3061 C 280.61678,1299.3201 431.91869,1374.1251 680.60674,1365.6998 C 868.06417,1359.3492 941.1988,1342.2636 1009.474,1279.8786 C 1052.3267,1240.7228 1035.3112,1189.4305 1044.3042,895.00688 C 1039.1348,611.81073 1055.4086,387.73134 1014.6141,342.31299 C 973.21259,296.21885 1036.9003,289.29464 1070.6453,277.86239 C 1159.3929,247.79619 1140.8311,262.75192 1171.0466,300.01495 C 1196.1789,331.00919 1182.8938,663.3382 1182.8938,1006.2769 C 1182.8938,1269.2392 1176.1382,1411.9585 1163.6905,1411.9585 C 1151.2494,1411.9585 1144.487,1271.7511 1144.487,1013.8098 C 1144.487,666.83959 1150.5465,342.61125 1122.2258,330.75997 C 1031.6991,292.87768 1064.693,346.73225 1084.0828,386.29726 C 1110.3492,439.89454 1091.8777,1242.5343 1065.0133,1289.4724 C 1037.1818,1338.1008 977.94041,1377.1754 904.09238,1395.6128 C 813.03277,1418.3485 590.90407,1425.0004 487.84117,1408.0769 z"
     id="path2599"
     sodipodi:nodetypes="ccscsssscscscssssssssccc" />
</svg>
